<?xml version="1.0" encoding="utf-8" standalone="no"?>
<!DOCTYPE svg PUBLIC "-//W3C//DTD SVG 1.1//EN"
  "http://www.w3.org/Graphics/SVG/1.1/DTD/svg11.dtd">
<svg height="534.772242pt" version="1.1" viewBox="0 0 966.053125 534.772242" width="966.053125pt" xmlns="http://www.w3.org/2000/svg" xmlns:xlink="http://www.w3.org/1999/xlink">
 <metadata>
  <rdf:RDF xmlns:cc="http://creativecommons.org/ns#" xmlns:dc="http://purl.org/dc/elements/1.1/" xmlns:rdf="http://www.w3.org/1999/02/22-rdf-syntax-ns#">
   <cc:Work>
    <dc:type rdf:resource="http://purl.org/dc/dcmitype/StillImage"/>
    <dc:date>2021-08-26T19:26:42.107440</dc:date>
    <dc:format>image/svg+xml</dc:format>
    <dc:creator>
     <cc:Agent>
      <dc:title>Matplotlib v3.4.2, https://matplotlib.org/</dc:title>
     </cc:Agent>
    </dc:creator>
   </cc:Work>
  </rdf:RDF>
 </metadata>
 <defs>
  <style type="text/css">*{stroke-linecap:butt;stroke-linejoin:round;}</style>
 </defs>
 <g id="figure_1">
  <g id="patch_1">
   <path d="M 0 534.772242 
L 966.053125 534.772242 
L 966.053125 0 
L 0 0 
z
" style="fill:none;"/>
  </g>
  <g id="axes_1">
   <g id="patch_2">
    <path d="M 66.053125 230.35781 
L 471.871307 230.35781 
L 471.871307 7.975992 
L 66.053125 7.975992 
z
" style="fill:#ffffff;"/>
   </g>
   <g id="matplotlib.axis_1">
    <g id="xtick_1">
     <g id="line2d_1">
      <path clip-path="url(#pc664e5fec6)" d="M 84.499405 230.35781 
L 84.499405 7.975992 
" style="fill:none;stroke:#b0b0b0;stroke-linecap:square;stroke-width:0.8;"/>
     </g>
     <g id="line2d_2">
      <defs>
       <path d="M 0 0 
L 0 3.5 
" id="m4e6da00179" style="stroke:#000000;stroke-width:0.8;"/>
      </defs>
      <g>
       <use style="stroke:#000000;stroke-width:0.8;" x="84.499405" xlink:href="#m4e6da00179" y="230.35781"/>
      </g>
     </g>
     <g id="text_1">
      <!-- 0 -->
      <g transform="translate(81.318155 244.956248)scale(0.1 -0.1)">
       <defs>
        <path d="M 2034 4250 
Q 1547 4250 1301 3770 
Q 1056 3291 1056 2328 
Q 1056 1369 1301 889 
Q 1547 409 2034 409 
Q 2525 409 2770 889 
Q 3016 1369 3016 2328 
Q 3016 3291 2770 3770 
Q 2525 4250 2034 4250 
z
M 2034 4750 
Q 2819 4750 3233 4129 
Q 3647 3509 3647 2328 
Q 3647 1150 3233 529 
Q 2819 -91 2034 -91 
Q 1250 -91 836 529 
Q 422 1150 422 2328 
Q 422 3509 836 4129 
Q 1250 4750 2034 4750 
z
" id="DejaVuSans-30" transform="scale(0.015625)"/>
       </defs>
       <use xlink:href="#DejaVuSans-30"/>
      </g>
     </g>
    </g>
    <g id="xtick_2">
     <g id="line2d_3">
      <path clip-path="url(#pc664e5fec6)" d="M 133.893578 230.35781 
L 133.893578 7.975992 
" style="fill:none;stroke:#b0b0b0;stroke-linecap:square;stroke-width:0.8;"/>
     </g>
     <g id="line2d_4">
      <g>
       <use style="stroke:#000000;stroke-width:0.8;" x="133.893578" xlink:href="#m4e6da00179" y="230.35781"/>
      </g>
     </g>
     <g id="text_2">
      <!-- 2000 -->
      <g transform="translate(121.168578 244.956248)scale(0.1 -0.1)">
       <defs>
        <path d="M 1228 531 
L 3431 531 
L 3431 0 
L 469 0 
L 469 531 
Q 828 903 1448 1529 
Q 2069 2156 2228 2338 
Q 2531 2678 2651 2914 
Q 2772 3150 2772 3378 
Q 2772 3750 2511 3984 
Q 2250 4219 1831 4219 
Q 1534 4219 1204 4116 
Q 875 4013 500 3803 
L 500 4441 
Q 881 4594 1212 4672 
Q 1544 4750 1819 4750 
Q 2544 4750 2975 4387 
Q 3406 4025 3406 3419 
Q 3406 3131 3298 2873 
Q 3191 2616 2906 2266 
Q 2828 2175 2409 1742 
Q 1991 1309 1228 531 
z
" id="DejaVuSans-32" transform="scale(0.015625)"/>
       </defs>
       <use xlink:href="#DejaVuSans-32"/>
       <use x="63.623047" xlink:href="#DejaVuSans-30"/>
       <use x="127.246094" xlink:href="#DejaVuSans-30"/>
       <use x="190.869141" xlink:href="#DejaVuSans-30"/>
      </g>
     </g>
    </g>
    <g id="xtick_3">
     <g id="line2d_5">
      <path clip-path="url(#pc664e5fec6)" d="M 183.28775 230.35781 
L 183.28775 7.975992 
" style="fill:none;stroke:#b0b0b0;stroke-linecap:square;stroke-width:0.8;"/>
     </g>
     <g id="line2d_6">
      <g>
       <use style="stroke:#000000;stroke-width:0.8;" x="183.28775" xlink:href="#m4e6da00179" y="230.35781"/>
      </g>
     </g>
     <g id="text_3">
      <!-- 4000 -->
      <g transform="translate(170.56275 244.956248)scale(0.1 -0.1)">
       <defs>
        <path d="M 2419 4116 
L 825 1625 
L 2419 1625 
L 2419 4116 
z
M 2253 4666 
L 3047 4666 
L 3047 1625 
L 3713 1625 
L 3713 1100 
L 3047 1100 
L 3047 0 
L 2419 0 
L 2419 1100 
L 313 1100 
L 313 1709 
L 2253 4666 
z
" id="DejaVuSans-34" transform="scale(0.015625)"/>
       </defs>
       <use xlink:href="#DejaVuSans-34"/>
       <use x="63.623047" xlink:href="#DejaVuSans-30"/>
       <use x="127.246094" xlink:href="#DejaVuSans-30"/>
       <use x="190.869141" xlink:href="#DejaVuSans-30"/>
      </g>
     </g>
    </g>
    <g id="xtick_4">
     <g id="line2d_7">
      <path clip-path="url(#pc664e5fec6)" d="M 232.681922 230.35781 
L 232.681922 7.975992 
" style="fill:none;stroke:#b0b0b0;stroke-linecap:square;stroke-width:0.8;"/>
     </g>
     <g id="line2d_8">
      <g>
       <use style="stroke:#000000;stroke-width:0.8;" x="232.681922" xlink:href="#m4e6da00179" y="230.35781"/>
      </g>
     </g>
     <g id="text_4">
      <!-- 6000 -->
      <g transform="translate(219.956922 244.956248)scale(0.1 -0.1)">
       <defs>
        <path d="M 2113 2584 
Q 1688 2584 1439 2293 
Q 1191 2003 1191 1497 
Q 1191 994 1439 701 
Q 1688 409 2113 409 
Q 2538 409 2786 701 
Q 3034 994 3034 1497 
Q 3034 2003 2786 2293 
Q 2538 2584 2113 2584 
z
M 3366 4563 
L 3366 3988 
Q 3128 4100 2886 4159 
Q 2644 4219 2406 4219 
Q 1781 4219 1451 3797 
Q 1122 3375 1075 2522 
Q 1259 2794 1537 2939 
Q 1816 3084 2150 3084 
Q 2853 3084 3261 2657 
Q 3669 2231 3669 1497 
Q 3669 778 3244 343 
Q 2819 -91 2113 -91 
Q 1303 -91 875 529 
Q 447 1150 447 2328 
Q 447 3434 972 4092 
Q 1497 4750 2381 4750 
Q 2619 4750 2861 4703 
Q 3103 4656 3366 4563 
z
" id="DejaVuSans-36" transform="scale(0.015625)"/>
       </defs>
       <use xlink:href="#DejaVuSans-36"/>
       <use x="63.623047" xlink:href="#DejaVuSans-30"/>
       <use x="127.246094" xlink:href="#DejaVuSans-30"/>
       <use x="190.869141" xlink:href="#DejaVuSans-30"/>
      </g>
     </g>
    </g>
    <g id="xtick_5">
     <g id="line2d_9">
      <path clip-path="url(#pc664e5fec6)" d="M 282.076094 230.35781 
L 282.076094 7.975992 
" style="fill:none;stroke:#b0b0b0;stroke-linecap:square;stroke-width:0.8;"/>
     </g>
     <g id="line2d_10">
      <g>
       <use style="stroke:#000000;stroke-width:0.8;" x="282.076094" xlink:href="#m4e6da00179" y="230.35781"/>
      </g>
     </g>
     <g id="text_5">
      <!-- 8000 -->
      <g transform="translate(269.351094 244.956248)scale(0.1 -0.1)">
       <defs>
        <path d="M 2034 2216 
Q 1584 2216 1326 1975 
Q 1069 1734 1069 1313 
Q 1069 891 1326 650 
Q 1584 409 2034 409 
Q 2484 409 2743 651 
Q 3003 894 3003 1313 
Q 3003 1734 2745 1975 
Q 2488 2216 2034 2216 
z
M 1403 2484 
Q 997 2584 770 2862 
Q 544 3141 544 3541 
Q 544 4100 942 4425 
Q 1341 4750 2034 4750 
Q 2731 4750 3128 4425 
Q 3525 4100 3525 3541 
Q 3525 3141 3298 2862 
Q 3072 2584 2669 2484 
Q 3125 2378 3379 2068 
Q 3634 1759 3634 1313 
Q 3634 634 3220 271 
Q 2806 -91 2034 -91 
Q 1263 -91 848 271 
Q 434 634 434 1313 
Q 434 1759 690 2068 
Q 947 2378 1403 2484 
z
M 1172 3481 
Q 1172 3119 1398 2916 
Q 1625 2713 2034 2713 
Q 2441 2713 2670 2916 
Q 2900 3119 2900 3481 
Q 2900 3844 2670 4047 
Q 2441 4250 2034 4250 
Q 1625 4250 1398 4047 
Q 1172 3844 1172 3481 
z
" id="DejaVuSans-38" transform="scale(0.015625)"/>
       </defs>
       <use xlink:href="#DejaVuSans-38"/>
       <use x="63.623047" xlink:href="#DejaVuSans-30"/>
       <use x="127.246094" xlink:href="#DejaVuSans-30"/>
       <use x="190.869141" xlink:href="#DejaVuSans-30"/>
      </g>
     </g>
    </g>
    <g id="xtick_6">
     <g id="line2d_11">
      <path clip-path="url(#pc664e5fec6)" d="M 331.470266 230.35781 
L 331.470266 7.975992 
" style="fill:none;stroke:#b0b0b0;stroke-linecap:square;stroke-width:0.8;"/>
     </g>
     <g id="line2d_12">
      <g>
       <use style="stroke:#000000;stroke-width:0.8;" x="331.470266" xlink:href="#m4e6da00179" y="230.35781"/>
      </g>
     </g>
     <g id="text_6">
      <!-- 10000 -->
      <g transform="translate(315.564016 244.956248)scale(0.1 -0.1)">
       <defs>
        <path d="M 794 531 
L 1825 531 
L 1825 4091 
L 703 3866 
L 703 4441 
L 1819 4666 
L 2450 4666 
L 2450 531 
L 3481 531 
L 3481 0 
L 794 0 
L 794 531 
z
" id="DejaVuSans-31" transform="scale(0.015625)"/>
       </defs>
       <use xlink:href="#DejaVuSans-31"/>
       <use x="63.623047" xlink:href="#DejaVuSans-30"/>
       <use x="127.246094" xlink:href="#DejaVuSans-30"/>
       <use x="190.869141" xlink:href="#DejaVuSans-30"/>
       <use x="254.492188" xlink:href="#DejaVuSans-30"/>
      </g>
     </g>
    </g>
    <g id="xtick_7">
     <g id="line2d_13">
      <path clip-path="url(#pc664e5fec6)" d="M 380.864439 230.35781 
L 380.864439 7.975992 
" style="fill:none;stroke:#b0b0b0;stroke-linecap:square;stroke-width:0.8;"/>
     </g>
     <g id="line2d_14">
      <g>
       <use style="stroke:#000000;stroke-width:0.8;" x="380.864439" xlink:href="#m4e6da00179" y="230.35781"/>
      </g>
     </g>
     <g id="text_7">
      <!-- 12000 -->
      <g transform="translate(364.958189 244.956248)scale(0.1 -0.1)">
       <use xlink:href="#DejaVuSans-31"/>
       <use x="63.623047" xlink:href="#DejaVuSans-32"/>
       <use x="127.246094" xlink:href="#DejaVuSans-30"/>
       <use x="190.869141" xlink:href="#DejaVuSans-30"/>
       <use x="254.492188" xlink:href="#DejaVuSans-30"/>
      </g>
     </g>
    </g>
    <g id="xtick_8">
     <g id="line2d_15">
      <path clip-path="url(#pc664e5fec6)" d="M 430.258611 230.35781 
L 430.258611 7.975992 
" style="fill:none;stroke:#b0b0b0;stroke-linecap:square;stroke-width:0.8;"/>
     </g>
     <g id="line2d_16">
      <g>
       <use style="stroke:#000000;stroke-width:0.8;" x="430.258611" xlink:href="#m4e6da00179" y="230.35781"/>
      </g>
     </g>
     <g id="text_8">
      <!-- 14000 -->
      <g transform="translate(414.352361 244.956248)scale(0.1 -0.1)">
       <use xlink:href="#DejaVuSans-31"/>
       <use x="63.623047" xlink:href="#DejaVuSans-34"/>
       <use x="127.246094" xlink:href="#DejaVuSans-30"/>
       <use x="190.869141" xlink:href="#DejaVuSans-30"/>
       <use x="254.492188" xlink:href="#DejaVuSans-30"/>
      </g>
     </g>
    </g>
    <g id="text_9">
     <!-- Horizontal distance [m] -->
     <g transform="translate(210.29581 258.634373)scale(0.1 -0.1)">
      <defs>
       <path d="M 628 4666 
L 1259 4666 
L 1259 2753 
L 3553 2753 
L 3553 4666 
L 4184 4666 
L 4184 0 
L 3553 0 
L 3553 2222 
L 1259 2222 
L 1259 0 
L 628 0 
L 628 4666 
z
" id="DejaVuSans-48" transform="scale(0.015625)"/>
       <path d="M 1959 3097 
Q 1497 3097 1228 2736 
Q 959 2375 959 1747 
Q 959 1119 1226 758 
Q 1494 397 1959 397 
Q 2419 397 2687 759 
Q 2956 1122 2956 1747 
Q 2956 2369 2687 2733 
Q 2419 3097 1959 3097 
z
M 1959 3584 
Q 2709 3584 3137 3096 
Q 3566 2609 3566 1747 
Q 3566 888 3137 398 
Q 2709 -91 1959 -91 
Q 1206 -91 779 398 
Q 353 888 353 1747 
Q 353 2609 779 3096 
Q 1206 3584 1959 3584 
z
" id="DejaVuSans-6f" transform="scale(0.015625)"/>
       <path d="M 2631 2963 
Q 2534 3019 2420 3045 
Q 2306 3072 2169 3072 
Q 1681 3072 1420 2755 
Q 1159 2438 1159 1844 
L 1159 0 
L 581 0 
L 581 3500 
L 1159 3500 
L 1159 2956 
Q 1341 3275 1631 3429 
Q 1922 3584 2338 3584 
Q 2397 3584 2469 3576 
Q 2541 3569 2628 3553 
L 2631 2963 
z
" id="DejaVuSans-72" transform="scale(0.015625)"/>
       <path d="M 603 3500 
L 1178 3500 
L 1178 0 
L 603 0 
L 603 3500 
z
M 603 4863 
L 1178 4863 
L 1178 4134 
L 603 4134 
L 603 4863 
z
" id="DejaVuSans-69" transform="scale(0.015625)"/>
       <path d="M 353 3500 
L 3084 3500 
L 3084 2975 
L 922 459 
L 3084 459 
L 3084 0 
L 275 0 
L 275 525 
L 2438 3041 
L 353 3041 
L 353 3500 
z
" id="DejaVuSans-7a" transform="scale(0.015625)"/>
       <path d="M 3513 2113 
L 3513 0 
L 2938 0 
L 2938 2094 
Q 2938 2591 2744 2837 
Q 2550 3084 2163 3084 
Q 1697 3084 1428 2787 
Q 1159 2491 1159 1978 
L 1159 0 
L 581 0 
L 581 3500 
L 1159 3500 
L 1159 2956 
Q 1366 3272 1645 3428 
Q 1925 3584 2291 3584 
Q 2894 3584 3203 3211 
Q 3513 2838 3513 2113 
z
" id="DejaVuSans-6e" transform="scale(0.015625)"/>
       <path d="M 1172 4494 
L 1172 3500 
L 2356 3500 
L 2356 3053 
L 1172 3053 
L 1172 1153 
Q 1172 725 1289 603 
Q 1406 481 1766 481 
L 2356 481 
L 2356 0 
L 1766 0 
Q 1100 0 847 248 
Q 594 497 594 1153 
L 594 3053 
L 172 3053 
L 172 3500 
L 594 3500 
L 594 4494 
L 1172 4494 
z
" id="DejaVuSans-74" transform="scale(0.015625)"/>
       <path d="M 2194 1759 
Q 1497 1759 1228 1600 
Q 959 1441 959 1056 
Q 959 750 1161 570 
Q 1363 391 1709 391 
Q 2188 391 2477 730 
Q 2766 1069 2766 1631 
L 2766 1759 
L 2194 1759 
z
M 3341 1997 
L 3341 0 
L 2766 0 
L 2766 531 
Q 2569 213 2275 61 
Q 1981 -91 1556 -91 
Q 1019 -91 701 211 
Q 384 513 384 1019 
Q 384 1609 779 1909 
Q 1175 2209 1959 2209 
L 2766 2209 
L 2766 2266 
Q 2766 2663 2505 2880 
Q 2244 3097 1772 3097 
Q 1472 3097 1187 3025 
Q 903 2953 641 2809 
L 641 3341 
Q 956 3463 1253 3523 
Q 1550 3584 1831 3584 
Q 2591 3584 2966 3190 
Q 3341 2797 3341 1997 
z
" id="DejaVuSans-61" transform="scale(0.015625)"/>
       <path d="M 603 4863 
L 1178 4863 
L 1178 0 
L 603 0 
L 603 4863 
z
" id="DejaVuSans-6c" transform="scale(0.015625)"/>
       <path id="DejaVuSans-20" transform="scale(0.015625)"/>
       <path d="M 2906 2969 
L 2906 4863 
L 3481 4863 
L 3481 0 
L 2906 0 
L 2906 525 
Q 2725 213 2448 61 
Q 2172 -91 1784 -91 
Q 1150 -91 751 415 
Q 353 922 353 1747 
Q 353 2572 751 3078 
Q 1150 3584 1784 3584 
Q 2172 3584 2448 3432 
Q 2725 3281 2906 2969 
z
M 947 1747 
Q 947 1113 1208 752 
Q 1469 391 1925 391 
Q 2381 391 2643 752 
Q 2906 1113 2906 1747 
Q 2906 2381 2643 2742 
Q 2381 3103 1925 3103 
Q 1469 3103 1208 2742 
Q 947 2381 947 1747 
z
" id="DejaVuSans-64" transform="scale(0.015625)"/>
       <path d="M 2834 3397 
L 2834 2853 
Q 2591 2978 2328 3040 
Q 2066 3103 1784 3103 
Q 1356 3103 1142 2972 
Q 928 2841 928 2578 
Q 928 2378 1081 2264 
Q 1234 2150 1697 2047 
L 1894 2003 
Q 2506 1872 2764 1633 
Q 3022 1394 3022 966 
Q 3022 478 2636 193 
Q 2250 -91 1575 -91 
Q 1294 -91 989 -36 
Q 684 19 347 128 
L 347 722 
Q 666 556 975 473 
Q 1284 391 1588 391 
Q 1994 391 2212 530 
Q 2431 669 2431 922 
Q 2431 1156 2273 1281 
Q 2116 1406 1581 1522 
L 1381 1569 
Q 847 1681 609 1914 
Q 372 2147 372 2553 
Q 372 3047 722 3315 
Q 1072 3584 1716 3584 
Q 2034 3584 2315 3537 
Q 2597 3491 2834 3397 
z
" id="DejaVuSans-73" transform="scale(0.015625)"/>
       <path d="M 3122 3366 
L 3122 2828 
Q 2878 2963 2633 3030 
Q 2388 3097 2138 3097 
Q 1578 3097 1268 2742 
Q 959 2388 959 1747 
Q 959 1106 1268 751 
Q 1578 397 2138 397 
Q 2388 397 2633 464 
Q 2878 531 3122 666 
L 3122 134 
Q 2881 22 2623 -34 
Q 2366 -91 2075 -91 
Q 1284 -91 818 406 
Q 353 903 353 1747 
Q 353 2603 823 3093 
Q 1294 3584 2113 3584 
Q 2378 3584 2631 3529 
Q 2884 3475 3122 3366 
z
" id="DejaVuSans-63" transform="scale(0.015625)"/>
       <path d="M 3597 1894 
L 3597 1613 
L 953 1613 
Q 991 1019 1311 708 
Q 1631 397 2203 397 
Q 2534 397 2845 478 
Q 3156 559 3463 722 
L 3463 178 
Q 3153 47 2828 -22 
Q 2503 -91 2169 -91 
Q 1331 -91 842 396 
Q 353 884 353 1716 
Q 353 2575 817 3079 
Q 1281 3584 2069 3584 
Q 2775 3584 3186 3129 
Q 3597 2675 3597 1894 
z
M 3022 2063 
Q 3016 2534 2758 2815 
Q 2500 3097 2075 3097 
Q 1594 3097 1305 2825 
Q 1016 2553 972 2059 
L 3022 2063 
z
" id="DejaVuSans-65" transform="scale(0.015625)"/>
       <path d="M 550 4863 
L 1875 4863 
L 1875 4416 
L 1125 4416 
L 1125 -397 
L 1875 -397 
L 1875 -844 
L 550 -844 
L 550 4863 
z
" id="DejaVuSans-5b" transform="scale(0.015625)"/>
       <path d="M 3328 2828 
Q 3544 3216 3844 3400 
Q 4144 3584 4550 3584 
Q 5097 3584 5394 3201 
Q 5691 2819 5691 2113 
L 5691 0 
L 5113 0 
L 5113 2094 
Q 5113 2597 4934 2840 
Q 4756 3084 4391 3084 
Q 3944 3084 3684 2787 
Q 3425 2491 3425 1978 
L 3425 0 
L 2847 0 
L 2847 2094 
Q 2847 2600 2669 2842 
Q 2491 3084 2119 3084 
Q 1678 3084 1418 2786 
Q 1159 2488 1159 1978 
L 1159 0 
L 581 0 
L 581 3500 
L 1159 3500 
L 1159 2956 
Q 1356 3278 1631 3431 
Q 1906 3584 2284 3584 
Q 2666 3584 2933 3390 
Q 3200 3197 3328 2828 
z
" id="DejaVuSans-6d" transform="scale(0.015625)"/>
       <path d="M 1947 4863 
L 1947 -844 
L 622 -844 
L 622 -397 
L 1369 -397 
L 1369 4416 
L 622 4416 
L 622 4863 
L 1947 4863 
z
" id="DejaVuSans-5d" transform="scale(0.015625)"/>
      </defs>
      <use xlink:href="#DejaVuSans-48"/>
      <use x="75.195312" xlink:href="#DejaVuSans-6f"/>
      <use x="136.376953" xlink:href="#DejaVuSans-72"/>
      <use x="177.490234" xlink:href="#DejaVuSans-69"/>
      <use x="205.273438" xlink:href="#DejaVuSans-7a"/>
      <use x="257.763672" xlink:href="#DejaVuSans-6f"/>
      <use x="318.945312" xlink:href="#DejaVuSans-6e"/>
      <use x="382.324219" xlink:href="#DejaVuSans-74"/>
      <use x="421.533203" xlink:href="#DejaVuSans-61"/>
      <use x="482.8125" xlink:href="#DejaVuSans-6c"/>
      <use x="510.595703" xlink:href="#DejaVuSans-20"/>
      <use x="542.382812" xlink:href="#DejaVuSans-64"/>
      <use x="605.859375" xlink:href="#DejaVuSans-69"/>
      <use x="633.642578" xlink:href="#DejaVuSans-73"/>
      <use x="685.742188" xlink:href="#DejaVuSans-74"/>
      <use x="724.951172" xlink:href="#DejaVuSans-61"/>
      <use x="786.230469" xlink:href="#DejaVuSans-6e"/>
      <use x="849.609375" xlink:href="#DejaVuSans-63"/>
      <use x="904.589844" xlink:href="#DejaVuSans-65"/>
      <use x="966.113281" xlink:href="#DejaVuSans-20"/>
      <use x="997.900391" xlink:href="#DejaVuSans-5b"/>
      <use x="1036.914062" xlink:href="#DejaVuSans-6d"/>
      <use x="1134.326172" xlink:href="#DejaVuSans-5d"/>
     </g>
    </g>
   </g>
   <g id="matplotlib.axis_2">
    <g id="ytick_1">
     <g id="line2d_17">
      <path clip-path="url(#pc664e5fec6)" d="M 66.053125 220.249906 
L 471.871307 220.249906 
" style="fill:none;stroke:#b0b0b0;stroke-linecap:square;stroke-width:0.8;"/>
     </g>
     <g id="line2d_18">
      <defs>
       <path d="M 0 0 
L -3.5 0 
" id="m0f17a16774" style="stroke:#000000;stroke-width:0.8;"/>
      </defs>
      <g>
       <use style="stroke:#000000;stroke-width:0.8;" x="66.053125" xlink:href="#m0f17a16774" y="220.249906"/>
      </g>
     </g>
     <g id="text_10">
      <!-- 0 -->
      <g transform="translate(52.690625 224.049125)scale(0.1 -0.1)">
       <use xlink:href="#DejaVuSans-30"/>
      </g>
     </g>
    </g>
    <g id="ytick_2">
     <g id="line2d_19">
      <path clip-path="url(#pc664e5fec6)" d="M 66.053125 190.356951 
L 471.871307 190.356951 
" style="fill:none;stroke:#b0b0b0;stroke-linecap:square;stroke-width:0.8;"/>
     </g>
     <g id="line2d_20">
      <g>
       <use style="stroke:#000000;stroke-width:0.8;" x="66.053125" xlink:href="#m0f17a16774" y="190.356951"/>
      </g>
     </g>
     <g id="text_11">
      <!-- 25000 -->
      <g transform="translate(27.240625 194.15617)scale(0.1 -0.1)">
       <defs>
        <path d="M 691 4666 
L 3169 4666 
L 3169 4134 
L 1269 4134 
L 1269 2991 
Q 1406 3038 1543 3061 
Q 1681 3084 1819 3084 
Q 2600 3084 3056 2656 
Q 3513 2228 3513 1497 
Q 3513 744 3044 326 
Q 2575 -91 1722 -91 
Q 1428 -91 1123 -41 
Q 819 9 494 109 
L 494 744 
Q 775 591 1075 516 
Q 1375 441 1709 441 
Q 2250 441 2565 725 
Q 2881 1009 2881 1497 
Q 2881 1984 2565 2268 
Q 2250 2553 1709 2553 
Q 1456 2553 1204 2497 
Q 953 2441 691 2322 
L 691 4666 
z
" id="DejaVuSans-35" transform="scale(0.015625)"/>
       </defs>
       <use xlink:href="#DejaVuSans-32"/>
       <use x="63.623047" xlink:href="#DejaVuSans-35"/>
       <use x="127.246094" xlink:href="#DejaVuSans-30"/>
       <use x="190.869141" xlink:href="#DejaVuSans-30"/>
       <use x="254.492188" xlink:href="#DejaVuSans-30"/>
      </g>
     </g>
    </g>
    <g id="ytick_3">
     <g id="line2d_21">
      <path clip-path="url(#pc664e5fec6)" d="M 66.053125 160.463996 
L 471.871307 160.463996 
" style="fill:none;stroke:#b0b0b0;stroke-linecap:square;stroke-width:0.8;"/>
     </g>
     <g id="line2d_22">
      <g>
       <use style="stroke:#000000;stroke-width:0.8;" x="66.053125" xlink:href="#m0f17a16774" y="160.463996"/>
      </g>
     </g>
     <g id="text_12">
      <!-- 50000 -->
      <g transform="translate(27.240625 164.263214)scale(0.1 -0.1)">
       <use xlink:href="#DejaVuSans-35"/>
       <use x="63.623047" xlink:href="#DejaVuSans-30"/>
       <use x="127.246094" xlink:href="#DejaVuSans-30"/>
       <use x="190.869141" xlink:href="#DejaVuSans-30"/>
       <use x="254.492188" xlink:href="#DejaVuSans-30"/>
      </g>
     </g>
    </g>
    <g id="ytick_4">
     <g id="line2d_23">
      <path clip-path="url(#pc664e5fec6)" d="M 66.053125 130.57104 
L 471.871307 130.57104 
" style="fill:none;stroke:#b0b0b0;stroke-linecap:square;stroke-width:0.8;"/>
     </g>
     <g id="line2d_24">
      <g>
       <use style="stroke:#000000;stroke-width:0.8;" x="66.053125" xlink:href="#m0f17a16774" y="130.57104"/>
      </g>
     </g>
     <g id="text_13">
      <!-- 75000 -->
      <g transform="translate(27.240625 134.370259)scale(0.1 -0.1)">
       <defs>
        <path d="M 525 4666 
L 3525 4666 
L 3525 4397 
L 1831 0 
L 1172 0 
L 2766 4134 
L 525 4134 
L 525 4666 
z
" id="DejaVuSans-37" transform="scale(0.015625)"/>
       </defs>
       <use xlink:href="#DejaVuSans-37"/>
       <use x="63.623047" xlink:href="#DejaVuSans-35"/>
       <use x="127.246094" xlink:href="#DejaVuSans-30"/>
       <use x="190.869141" xlink:href="#DejaVuSans-30"/>
       <use x="254.492188" xlink:href="#DejaVuSans-30"/>
      </g>
     </g>
    </g>
    <g id="ytick_5">
     <g id="line2d_25">
      <path clip-path="url(#pc664e5fec6)" d="M 66.053125 100.678085 
L 471.871307 100.678085 
" style="fill:none;stroke:#b0b0b0;stroke-linecap:square;stroke-width:0.8;"/>
     </g>
     <g id="line2d_26">
      <g>
       <use style="stroke:#000000;stroke-width:0.8;" x="66.053125" xlink:href="#m0f17a16774" y="100.678085"/>
      </g>
     </g>
     <g id="text_14">
      <!-- 100000 -->
      <g transform="translate(20.878125 104.477304)scale(0.1 -0.1)">
       <use xlink:href="#DejaVuSans-31"/>
       <use x="63.623047" xlink:href="#DejaVuSans-30"/>
       <use x="127.246094" xlink:href="#DejaVuSans-30"/>
       <use x="190.869141" xlink:href="#DejaVuSans-30"/>
       <use x="254.492188" xlink:href="#DejaVuSans-30"/>
       <use x="318.115234" xlink:href="#DejaVuSans-30"/>
      </g>
     </g>
    </g>
    <g id="ytick_6">
     <g id="line2d_27">
      <path clip-path="url(#pc664e5fec6)" d="M 66.053125 70.785129 
L 471.871307 70.785129 
" style="fill:none;stroke:#b0b0b0;stroke-linecap:square;stroke-width:0.8;"/>
     </g>
     <g id="line2d_28">
      <g>
       <use style="stroke:#000000;stroke-width:0.8;" x="66.053125" xlink:href="#m0f17a16774" y="70.785129"/>
      </g>
     </g>
     <g id="text_15">
      <!-- 125000 -->
      <g transform="translate(20.878125 74.584348)scale(0.1 -0.1)">
       <use xlink:href="#DejaVuSans-31"/>
       <use x="63.623047" xlink:href="#DejaVuSans-32"/>
       <use x="127.246094" xlink:href="#DejaVuSans-35"/>
       <use x="190.869141" xlink:href="#DejaVuSans-30"/>
       <use x="254.492188" xlink:href="#DejaVuSans-30"/>
       <use x="318.115234" xlink:href="#DejaVuSans-30"/>
      </g>
     </g>
    </g>
    <g id="ytick_7">
     <g id="line2d_29">
      <path clip-path="url(#pc664e5fec6)" d="M 66.053125 40.892174 
L 471.871307 40.892174 
" style="fill:none;stroke:#b0b0b0;stroke-linecap:square;stroke-width:0.8;"/>
     </g>
     <g id="line2d_30">
      <g>
       <use style="stroke:#000000;stroke-width:0.8;" x="66.053125" xlink:href="#m0f17a16774" y="40.892174"/>
      </g>
     </g>
     <g id="text_16">
      <!-- 150000 -->
      <g transform="translate(20.878125 44.691393)scale(0.1 -0.1)">
       <use xlink:href="#DejaVuSans-31"/>
       <use x="63.623047" xlink:href="#DejaVuSans-35"/>
       <use x="127.246094" xlink:href="#DejaVuSans-30"/>
       <use x="190.869141" xlink:href="#DejaVuSans-30"/>
       <use x="254.492188" xlink:href="#DejaVuSans-30"/>
       <use x="318.115234" xlink:href="#DejaVuSans-30"/>
      </g>
     </g>
    </g>
    <g id="ytick_8">
     <g id="line2d_31">
      <path clip-path="url(#pc664e5fec6)" d="M 66.053125 10.999219 
L 471.871307 10.999219 
" style="fill:none;stroke:#b0b0b0;stroke-linecap:square;stroke-width:0.8;"/>
     </g>
     <g id="line2d_32">
      <g>
       <use style="stroke:#000000;stroke-width:0.8;" x="66.053125" xlink:href="#m0f17a16774" y="10.999219"/>
      </g>
     </g>
     <g id="text_17">
      <!-- 175000 -->
      <g transform="translate(20.878125 14.798437)scale(0.1 -0.1)">
       <use xlink:href="#DejaVuSans-31"/>
       <use x="63.623047" xlink:href="#DejaVuSans-37"/>
       <use x="127.246094" xlink:href="#DejaVuSans-35"/>
       <use x="190.869141" xlink:href="#DejaVuSans-30"/>
       <use x="254.492188" xlink:href="#DejaVuSans-30"/>
       <use x="318.115234" xlink:href="#DejaVuSans-30"/>
      </g>
     </g>
    </g>
    <g id="text_18">
     <!-- Vertical distance [m] -->
     <g transform="translate(14.798438 171.020026)rotate(-90)scale(0.1 -0.1)">
      <defs>
       <path d="M 1831 0 
L 50 4666 
L 709 4666 
L 2188 738 
L 3669 4666 
L 4325 4666 
L 2547 0 
L 1831 0 
z
" id="DejaVuSans-56" transform="scale(0.015625)"/>
      </defs>
      <use xlink:href="#DejaVuSans-56"/>
      <use x="60.658203" xlink:href="#DejaVuSans-65"/>
      <use x="122.181641" xlink:href="#DejaVuSans-72"/>
      <use x="163.294922" xlink:href="#DejaVuSans-74"/>
      <use x="202.503906" xlink:href="#DejaVuSans-69"/>
      <use x="230.287109" xlink:href="#DejaVuSans-63"/>
      <use x="285.267578" xlink:href="#DejaVuSans-61"/>
      <use x="346.546875" xlink:href="#DejaVuSans-6c"/>
      <use x="374.330078" xlink:href="#DejaVuSans-20"/>
      <use x="406.117188" xlink:href="#DejaVuSans-64"/>
      <use x="469.59375" xlink:href="#DejaVuSans-69"/>
      <use x="497.376953" xlink:href="#DejaVuSans-73"/>
      <use x="549.476562" xlink:href="#DejaVuSans-74"/>
      <use x="588.685547" xlink:href="#DejaVuSans-61"/>
      <use x="649.964844" xlink:href="#DejaVuSans-6e"/>
      <use x="713.34375" xlink:href="#DejaVuSans-63"/>
      <use x="768.324219" xlink:href="#DejaVuSans-65"/>
      <use x="829.847656" xlink:href="#DejaVuSans-20"/>
      <use x="861.634766" xlink:href="#DejaVuSans-5b"/>
      <use x="900.648438" xlink:href="#DejaVuSans-6d"/>
      <use x="998.060547" xlink:href="#DejaVuSans-5d"/>
     </g>
    </g>
   </g>
   <g id="line2d_33">
    <path clip-path="url(#pc664e5fec6)" d="M 84.499406 220.249546 
L 84.611864 219.862315 
L 85.102686 219.000631 
L 86.108381 217.710399 
L 87.732315 216.007287 
L 90.06175 213.89989 
L 93.190773 211.379996 
L 97.200179 208.445766 
L 102.183126 205.08306 
L 108.2147 201.288484 
L 115.364921 197.058845 
L 123.722295 192.378566 
L 133.38666 187.226493 
L 144.410809 181.606146 
L 156.901536 175.492309 
L 170.903747 168.890089 
L 186.535331 161.769323 
L 203.834898 154.136358 
L 222.93654 145.954876 
L 243.87505 137.231846 
L 266.735589 127.951925 
L 291.609433 118.097593 
L 318.596029 107.648608 
L 347.70789 96.617953 
L 379.039086 84.986609 
L 412.69686 72.731435 
L 448.67532 59.870319 
L 453.425026 58.189242 
L 453.425026 58.189242 
" style="fill:none;stroke:#1f77b4;stroke-linecap:square;stroke-width:1.5;"/>
   </g>
   <g id="line2d_34">
    <path clip-path="url(#pc664e5fec6)" d="M 84.499406 220.249546 
L 84.611561 219.862777 
L 85.114132 218.968815 
L 86.207078 217.512661 
L 88.130057 215.347568 
L 91.197201 212.251641 
L 95.806249 207.934809 
L 102.446511 202.037363 
L 111.698278 194.133426 
L 124.203907 183.755692 
L 140.701271 170.366672 
L 161.979758 153.395107 
L 188.878946 132.235612 
L 222.224689 106.297714 
L 262.817894 75.012538 
L 311.470609 37.804582 
L 337.383575 18.084257 
L 337.383575 18.084257 
" style="fill:none;stroke:#ff7f0e;stroke-linecap:square;stroke-width:1.5;"/>
   </g>
   <g id="line2d_35">
    <path clip-path="url(#pc664e5fec6)" d="M 84.499406 220.249546 
L 84.61176 219.8625 
L 85.102801 219.000241 
L 86.107245 217.711238 
L 87.729114 216.009762 
L 90.056655 213.903997 
L 93.170494 211.397112 
L 97.154282 208.483971 
L 102.089189 205.158714 
L 108.04603 201.419978 
L 115.110772 197.255015 
L 123.356022 192.658204 
L 132.877457 187.610304 
L 143.752549 182.101858 
L 156.056507 176.123516 
L 169.902956 169.647417 
L 185.380042 162.658757 
L 202.526757 155.163834 
L 221.47639 147.127078 
L 242.26257 138.555862 
L 265.040512 129.407142 
L 289.843087 119.688111 
L 316.768831 109.379179 
L 345.828847 98.49375 
L 377.115365 87.013682 
L 410.733259 74.916902 
L 446.804727 62.17615 
L 453.168977 59.951514 
L 453.168977 59.951514 
" style="fill:none;stroke:#2ca02c;stroke-linecap:square;stroke-width:1.5;"/>
   </g>
   <g id="line2d_36">
    <path clip-path="url(#pc664e5fec6)" d="M 84.499406 220.249546 
L 84.611459 219.862963 
L 85.114271 218.968393 
L 86.208621 217.510319 
L 88.129218 215.347774 
L 91.188649 212.259519 
L 95.772195 207.96729 
L 102.350161 202.128354 
L 111.46387 194.350431 
L 123.754198 184.167385 
L 139.946665 171.05281 
L 160.8369 154.431313 
L 187.278709 133.687644 
L 220.084241 108.243662 
L 260.143009 77.464202 
L 308.167032 40.852886 
L 335.513202 20.110909 
L 335.513202 20.110909 
" style="fill:none;stroke:#d62728;stroke-linecap:square;stroke-width:1.5;"/>
   </g>
   <g id="patch_3">
    <path d="M 66.053125 230.35781 
L 66.053125 7.975992 
" style="fill:none;stroke:#000000;stroke-linecap:square;stroke-linejoin:miter;stroke-width:0.8;"/>
   </g>
   <g id="patch_4">
    <path d="M 471.871307 230.35781 
L 471.871307 7.975992 
" style="fill:none;stroke:#000000;stroke-linecap:square;stroke-linejoin:miter;stroke-width:0.8;"/>
   </g>
   <g id="patch_5">
    <path d="M 66.053125 230.35781 
L 471.871307 230.35781 
" style="fill:none;stroke:#000000;stroke-linecap:square;stroke-linejoin:miter;stroke-width:0.8;"/>
   </g>
   <g id="patch_6">
    <path d="M 66.053125 7.975992 
L 471.871307 7.975992 
" style="fill:none;stroke:#000000;stroke-linecap:square;stroke-linejoin:miter;stroke-width:0.8;"/>
   </g>
   <g id="legend_1">
    <g id="patch_7">
     <path d="M 73.053125 74.688492 
L 119.204688 74.688492 
Q 121.204688 74.688492 121.204688 72.688492 
L 121.204688 14.975992 
Q 121.204688 12.975992 119.204688 12.975992 
L 73.053125 12.975992 
Q 71.053125 12.975992 71.053125 14.975992 
L 71.053125 72.688492 
Q 71.053125 74.688492 73.053125 74.688492 
z
" style="fill:#ffffff;opacity:0.8;stroke:#cccccc;stroke-linejoin:miter;"/>
    </g>
    <g id="line2d_37">
     <path d="M 75.053125 21.07443 
L 95.053125 21.07443 
" style="fill:none;stroke:#1f77b4;stroke-linecap:square;stroke-width:1.5;"/>
    </g>
    <g id="line2d_38"/>
    <g id="text_19">
     <!-- (a) -->
     <g transform="translate(103.053125 24.57443)scale(0.1 -0.1)">
      <defs>
       <path d="M 1984 4856 
Q 1566 4138 1362 3434 
Q 1159 2731 1159 2009 
Q 1159 1288 1364 580 
Q 1569 -128 1984 -844 
L 1484 -844 
Q 1016 -109 783 600 
Q 550 1309 550 2009 
Q 550 2706 781 3412 
Q 1013 4119 1484 4856 
L 1984 4856 
z
" id="DejaVuSans-28" transform="scale(0.015625)"/>
       <path d="M 513 4856 
L 1013 4856 
Q 1481 4119 1714 3412 
Q 1947 2706 1947 2009 
Q 1947 1309 1714 600 
Q 1481 -109 1013 -844 
L 513 -844 
Q 928 -128 1133 580 
Q 1338 1288 1338 2009 
Q 1338 2731 1133 3434 
Q 928 4138 513 4856 
z
" id="DejaVuSans-29" transform="scale(0.015625)"/>
      </defs>
      <use xlink:href="#DejaVuSans-28"/>
      <use x="39.013672" xlink:href="#DejaVuSans-61"/>
      <use x="100.292969" xlink:href="#DejaVuSans-29"/>
     </g>
    </g>
    <g id="line2d_39">
     <path d="M 75.053125 35.752555 
L 95.053125 35.752555 
" style="fill:none;stroke:#ff7f0e;stroke-linecap:square;stroke-width:1.5;"/>
    </g>
    <g id="line2d_40"/>
    <g id="text_20">
     <!-- (b) -->
     <g transform="translate(103.053125 39.252555)scale(0.1 -0.1)">
      <defs>
       <path d="M 3116 1747 
Q 3116 2381 2855 2742 
Q 2594 3103 2138 3103 
Q 1681 3103 1420 2742 
Q 1159 2381 1159 1747 
Q 1159 1113 1420 752 
Q 1681 391 2138 391 
Q 2594 391 2855 752 
Q 3116 1113 3116 1747 
z
M 1159 2969 
Q 1341 3281 1617 3432 
Q 1894 3584 2278 3584 
Q 2916 3584 3314 3078 
Q 3713 2572 3713 1747 
Q 3713 922 3314 415 
Q 2916 -91 2278 -91 
Q 1894 -91 1617 61 
Q 1341 213 1159 525 
L 1159 0 
L 581 0 
L 581 4863 
L 1159 4863 
L 1159 2969 
z
" id="DejaVuSans-62" transform="scale(0.015625)"/>
      </defs>
      <use xlink:href="#DejaVuSans-28"/>
      <use x="39.013672" xlink:href="#DejaVuSans-62"/>
      <use x="102.490234" xlink:href="#DejaVuSans-29"/>
     </g>
    </g>
    <g id="line2d_41">
     <path d="M 75.053125 50.43068 
L 95.053125 50.43068 
" style="fill:none;stroke:#2ca02c;stroke-linecap:square;stroke-width:1.5;"/>
    </g>
    <g id="line2d_42"/>
    <g id="text_21">
     <!-- (c) -->
     <g transform="translate(103.053125 53.93068)scale(0.1 -0.1)">
      <use xlink:href="#DejaVuSans-28"/>
      <use x="39.013672" xlink:href="#DejaVuSans-63"/>
      <use x="93.994141" xlink:href="#DejaVuSans-29"/>
     </g>
    </g>
    <g id="line2d_43">
     <path d="M 75.053125 65.108805 
L 95.053125 65.108805 
" style="fill:none;stroke:#d62728;stroke-linecap:square;stroke-width:1.5;"/>
    </g>
    <g id="line2d_44"/>
    <g id="text_22">
     <!-- (d) -->
     <g transform="translate(103.053125 68.608805)scale(0.1 -0.1)">
      <use xlink:href="#DejaVuSans-28"/>
      <use x="39.013672" xlink:href="#DejaVuSans-64"/>
      <use x="102.490234" xlink:href="#DejaVuSans-29"/>
     </g>
    </g>
   </g>
  </g>
  <g id="axes_2">
   <g id="patch_8">
    <path d="M 553.034943 230.35781 
L 958.853125 230.35781 
L 958.853125 7.975992 
L 553.034943 7.975992 
z
" style="fill:#ffffff;"/>
   </g>
   <g id="matplotlib.axis_3">
    <g id="xtick_9">
     <g id="line2d_45">
      <path clip-path="url(#p968aceb288)" d="M 571.444328 230.35781 
L 571.444328 7.975992 
" style="fill:none;stroke:#b0b0b0;stroke-linecap:square;stroke-width:0.8;"/>
     </g>
     <g id="line2d_46">
      <g>
       <use style="stroke:#000000;stroke-width:0.8;" x="571.444328" xlink:href="#m4e6da00179" y="230.35781"/>
      </g>
     </g>
     <g id="text_23">
      <!-- 0 -->
      <g transform="translate(568.263078 244.956248)scale(0.1 -0.1)">
       <use xlink:href="#DejaVuSans-30"/>
      </g>
     </g>
    </g>
    <g id="xtick_10">
     <g id="line2d_47">
      <path clip-path="url(#p968aceb288)" d="M 645.236831 230.35781 
L 645.236831 7.975992 
" style="fill:none;stroke:#b0b0b0;stroke-linecap:square;stroke-width:0.8;"/>
     </g>
     <g id="line2d_48">
      <g>
       <use style="stroke:#000000;stroke-width:0.8;" x="645.236831" xlink:href="#m4e6da00179" y="230.35781"/>
      </g>
     </g>
     <g id="text_24">
      <!-- 20 -->
      <g transform="translate(638.874331 244.956248)scale(0.1 -0.1)">
       <use xlink:href="#DejaVuSans-32"/>
       <use x="63.623047" xlink:href="#DejaVuSans-30"/>
      </g>
     </g>
    </g>
    <g id="xtick_11">
     <g id="line2d_49">
      <path clip-path="url(#p968aceb288)" d="M 719.029334 230.35781 
L 719.029334 7.975992 
" style="fill:none;stroke:#b0b0b0;stroke-linecap:square;stroke-width:0.8;"/>
     </g>
     <g id="line2d_50">
      <g>
       <use style="stroke:#000000;stroke-width:0.8;" x="719.029334" xlink:href="#m4e6da00179" y="230.35781"/>
      </g>
     </g>
     <g id="text_25">
      <!-- 40 -->
      <g transform="translate(712.666834 244.956248)scale(0.1 -0.1)">
       <use xlink:href="#DejaVuSans-34"/>
       <use x="63.623047" xlink:href="#DejaVuSans-30"/>
      </g>
     </g>
    </g>
    <g id="xtick_12">
     <g id="line2d_51">
      <path clip-path="url(#p968aceb288)" d="M 792.821838 230.35781 
L 792.821838 7.975992 
" style="fill:none;stroke:#b0b0b0;stroke-linecap:square;stroke-width:0.8;"/>
     </g>
     <g id="line2d_52">
      <g>
       <use style="stroke:#000000;stroke-width:0.8;" x="792.821838" xlink:href="#m4e6da00179" y="230.35781"/>
      </g>
     </g>
     <g id="text_26">
      <!-- 60 -->
      <g transform="translate(786.459338 244.956248)scale(0.1 -0.1)">
       <use xlink:href="#DejaVuSans-36"/>
       <use x="63.623047" xlink:href="#DejaVuSans-30"/>
      </g>
     </g>
    </g>
    <g id="xtick_13">
     <g id="line2d_53">
      <path clip-path="url(#p968aceb288)" d="M 866.614341 230.35781 
L 866.614341 7.975992 
" style="fill:none;stroke:#b0b0b0;stroke-linecap:square;stroke-width:0.8;"/>
     </g>
     <g id="line2d_54">
      <g>
       <use style="stroke:#000000;stroke-width:0.8;" x="866.614341" xlink:href="#m4e6da00179" y="230.35781"/>
      </g>
     </g>
     <g id="text_27">
      <!-- 80 -->
      <g transform="translate(860.251841 244.956248)scale(0.1 -0.1)">
       <use xlink:href="#DejaVuSans-38"/>
       <use x="63.623047" xlink:href="#DejaVuSans-30"/>
      </g>
     </g>
    </g>
    <g id="xtick_14">
     <g id="line2d_55">
      <path clip-path="url(#p968aceb288)" d="M 940.406844 230.35781 
L 940.406844 7.975992 
" style="fill:none;stroke:#b0b0b0;stroke-linecap:square;stroke-width:0.8;"/>
     </g>
     <g id="line2d_56">
      <g>
       <use style="stroke:#000000;stroke-width:0.8;" x="940.406844" xlink:href="#m4e6da00179" y="230.35781"/>
      </g>
     </g>
     <g id="text_28">
      <!-- 100 -->
      <g transform="translate(930.863094 244.956248)scale(0.1 -0.1)">
       <use xlink:href="#DejaVuSans-31"/>
       <use x="63.623047" xlink:href="#DejaVuSans-30"/>
       <use x="127.246094" xlink:href="#DejaVuSans-30"/>
      </g>
     </g>
    </g>
    <g id="text_29">
     <!-- Time [s] -->
     <g transform="translate(735.615128 258.634373)scale(0.1 -0.1)">
      <defs>
       <path d="M -19 4666 
L 3928 4666 
L 3928 4134 
L 2272 4134 
L 2272 0 
L 1638 0 
L 1638 4134 
L -19 4134 
L -19 4666 
z
" id="DejaVuSans-54" transform="scale(0.015625)"/>
      </defs>
      <use xlink:href="#DejaVuSans-54"/>
      <use x="57.958984" xlink:href="#DejaVuSans-69"/>
      <use x="85.742188" xlink:href="#DejaVuSans-6d"/>
      <use x="183.154297" xlink:href="#DejaVuSans-65"/>
      <use x="244.677734" xlink:href="#DejaVuSans-20"/>
      <use x="276.464844" xlink:href="#DejaVuSans-5b"/>
      <use x="315.478516" xlink:href="#DejaVuSans-73"/>
      <use x="367.578125" xlink:href="#DejaVuSans-5d"/>
     </g>
    </g>
   </g>
   <g id="matplotlib.axis_4">
    <g id="ytick_9">
     <g id="line2d_57">
      <path clip-path="url(#p968aceb288)" d="M 553.034943 220.249906 
L 958.853125 220.249906 
" style="fill:none;stroke:#b0b0b0;stroke-linecap:square;stroke-width:0.8;"/>
     </g>
     <g id="line2d_58">
      <g>
       <use style="stroke:#000000;stroke-width:0.8;" x="553.034943" xlink:href="#m0f17a16774" y="220.249906"/>
      </g>
     </g>
     <g id="text_30">
      <!-- 0 -->
      <g transform="translate(539.672443 224.049125)scale(0.1 -0.1)">
       <use xlink:href="#DejaVuSans-30"/>
      </g>
     </g>
    </g>
    <g id="ytick_10">
     <g id="line2d_59">
      <path clip-path="url(#p968aceb288)" d="M 553.034943 190.356951 
L 958.853125 190.356951 
" style="fill:none;stroke:#b0b0b0;stroke-linecap:square;stroke-width:0.8;"/>
     </g>
     <g id="line2d_60">
      <g>
       <use style="stroke:#000000;stroke-width:0.8;" x="553.034943" xlink:href="#m0f17a16774" y="190.356951"/>
      </g>
     </g>
     <g id="text_31">
      <!-- 25000 -->
      <g transform="translate(514.222443 194.15617)scale(0.1 -0.1)">
       <use xlink:href="#DejaVuSans-32"/>
       <use x="63.623047" xlink:href="#DejaVuSans-35"/>
       <use x="127.246094" xlink:href="#DejaVuSans-30"/>
       <use x="190.869141" xlink:href="#DejaVuSans-30"/>
       <use x="254.492188" xlink:href="#DejaVuSans-30"/>
      </g>
     </g>
    </g>
    <g id="ytick_11">
     <g id="line2d_61">
      <path clip-path="url(#p968aceb288)" d="M 553.034943 160.463996 
L 958.853125 160.463996 
" style="fill:none;stroke:#b0b0b0;stroke-linecap:square;stroke-width:0.8;"/>
     </g>
     <g id="line2d_62">
      <g>
       <use style="stroke:#000000;stroke-width:0.8;" x="553.034943" xlink:href="#m0f17a16774" y="160.463996"/>
      </g>
     </g>
     <g id="text_32">
      <!-- 50000 -->
      <g transform="translate(514.222443 164.263214)scale(0.1 -0.1)">
       <use xlink:href="#DejaVuSans-35"/>
       <use x="63.623047" xlink:href="#DejaVuSans-30"/>
       <use x="127.246094" xlink:href="#DejaVuSans-30"/>
       <use x="190.869141" xlink:href="#DejaVuSans-30"/>
       <use x="254.492188" xlink:href="#DejaVuSans-30"/>
      </g>
     </g>
    </g>
    <g id="ytick_12">
     <g id="line2d_63">
      <path clip-path="url(#p968aceb288)" d="M 553.034943 130.57104 
L 958.853125 130.57104 
" style="fill:none;stroke:#b0b0b0;stroke-linecap:square;stroke-width:0.8;"/>
     </g>
     <g id="line2d_64">
      <g>
       <use style="stroke:#000000;stroke-width:0.8;" x="553.034943" xlink:href="#m0f17a16774" y="130.57104"/>
      </g>
     </g>
     <g id="text_33">
      <!-- 75000 -->
      <g transform="translate(514.222443 134.370259)scale(0.1 -0.1)">
       <use xlink:href="#DejaVuSans-37"/>
       <use x="63.623047" xlink:href="#DejaVuSans-35"/>
       <use x="127.246094" xlink:href="#DejaVuSans-30"/>
       <use x="190.869141" xlink:href="#DejaVuSans-30"/>
       <use x="254.492188" xlink:href="#DejaVuSans-30"/>
      </g>
     </g>
    </g>
    <g id="ytick_13">
     <g id="line2d_65">
      <path clip-path="url(#p968aceb288)" d="M 553.034943 100.678085 
L 958.853125 100.678085 
" style="fill:none;stroke:#b0b0b0;stroke-linecap:square;stroke-width:0.8;"/>
     </g>
     <g id="line2d_66">
      <g>
       <use style="stroke:#000000;stroke-width:0.8;" x="553.034943" xlink:href="#m0f17a16774" y="100.678085"/>
      </g>
     </g>
     <g id="text_34">
      <!-- 100000 -->
      <g transform="translate(507.859943 104.477304)scale(0.1 -0.1)">
       <use xlink:href="#DejaVuSans-31"/>
       <use x="63.623047" xlink:href="#DejaVuSans-30"/>
       <use x="127.246094" xlink:href="#DejaVuSans-30"/>
       <use x="190.869141" xlink:href="#DejaVuSans-30"/>
       <use x="254.492188" xlink:href="#DejaVuSans-30"/>
       <use x="318.115234" xlink:href="#DejaVuSans-30"/>
      </g>
     </g>
    </g>
    <g id="ytick_14">
     <g id="line2d_67">
      <path clip-path="url(#p968aceb288)" d="M 553.034943 70.785129 
L 958.853125 70.785129 
" style="fill:none;stroke:#b0b0b0;stroke-linecap:square;stroke-width:0.8;"/>
     </g>
     <g id="line2d_68">
      <g>
       <use style="stroke:#000000;stroke-width:0.8;" x="553.034943" xlink:href="#m0f17a16774" y="70.785129"/>
      </g>
     </g>
     <g id="text_35">
      <!-- 125000 -->
      <g transform="translate(507.859943 74.584348)scale(0.1 -0.1)">
       <use xlink:href="#DejaVuSans-31"/>
       <use x="63.623047" xlink:href="#DejaVuSans-32"/>
       <use x="127.246094" xlink:href="#DejaVuSans-35"/>
       <use x="190.869141" xlink:href="#DejaVuSans-30"/>
       <use x="254.492188" xlink:href="#DejaVuSans-30"/>
       <use x="318.115234" xlink:href="#DejaVuSans-30"/>
      </g>
     </g>
    </g>
    <g id="ytick_15">
     <g id="line2d_69">
      <path clip-path="url(#p968aceb288)" d="M 553.034943 40.892174 
L 958.853125 40.892174 
" style="fill:none;stroke:#b0b0b0;stroke-linecap:square;stroke-width:0.8;"/>
     </g>
     <g id="line2d_70">
      <g>
       <use style="stroke:#000000;stroke-width:0.8;" x="553.034943" xlink:href="#m0f17a16774" y="40.892174"/>
      </g>
     </g>
     <g id="text_36">
      <!-- 150000 -->
      <g transform="translate(507.859943 44.691393)scale(0.1 -0.1)">
       <use xlink:href="#DejaVuSans-31"/>
       <use x="63.623047" xlink:href="#DejaVuSans-35"/>
       <use x="127.246094" xlink:href="#DejaVuSans-30"/>
       <use x="190.869141" xlink:href="#DejaVuSans-30"/>
       <use x="254.492188" xlink:href="#DejaVuSans-30"/>
       <use x="318.115234" xlink:href="#DejaVuSans-30"/>
      </g>
     </g>
    </g>
    <g id="ytick_16">
     <g id="line2d_71">
      <path clip-path="url(#p968aceb288)" d="M 553.034943 10.999219 
L 958.853125 10.999219 
" style="fill:none;stroke:#b0b0b0;stroke-linecap:square;stroke-width:0.8;"/>
     </g>
     <g id="line2d_72">
      <g>
       <use style="stroke:#000000;stroke-width:0.8;" x="553.034943" xlink:href="#m0f17a16774" y="10.999219"/>
      </g>
     </g>
     <g id="text_37">
      <!-- 175000 -->
      <g transform="translate(507.859943 14.798437)scale(0.1 -0.1)">
       <use xlink:href="#DejaVuSans-31"/>
       <use x="63.623047" xlink:href="#DejaVuSans-37"/>
       <use x="127.246094" xlink:href="#DejaVuSans-35"/>
       <use x="190.869141" xlink:href="#DejaVuSans-30"/>
       <use x="254.492188" xlink:href="#DejaVuSans-30"/>
       <use x="318.115234" xlink:href="#DejaVuSans-30"/>
      </g>
     </g>
    </g>
    <g id="text_38">
     <!-- Vertical distance [m] -->
     <g transform="translate(501.780256 171.020026)rotate(-90)scale(0.1 -0.1)">
      <use xlink:href="#DejaVuSans-56"/>
      <use x="60.658203" xlink:href="#DejaVuSans-65"/>
      <use x="122.181641" xlink:href="#DejaVuSans-72"/>
      <use x="163.294922" xlink:href="#DejaVuSans-74"/>
      <use x="202.503906" xlink:href="#DejaVuSans-69"/>
      <use x="230.287109" xlink:href="#DejaVuSans-63"/>
      <use x="285.267578" xlink:href="#DejaVuSans-61"/>
      <use x="346.546875" xlink:href="#DejaVuSans-6c"/>
      <use x="374.330078" xlink:href="#DejaVuSans-20"/>
      <use x="406.117188" xlink:href="#DejaVuSans-64"/>
      <use x="469.59375" xlink:href="#DejaVuSans-69"/>
      <use x="497.376953" xlink:href="#DejaVuSans-73"/>
      <use x="549.476562" xlink:href="#DejaVuSans-74"/>
      <use x="588.685547" xlink:href="#DejaVuSans-61"/>
      <use x="649.964844" xlink:href="#DejaVuSans-6e"/>
      <use x="713.34375" xlink:href="#DejaVuSans-63"/>
      <use x="768.324219" xlink:href="#DejaVuSans-65"/>
      <use x="829.847656" xlink:href="#DejaVuSans-20"/>
      <use x="861.634766" xlink:href="#DejaVuSans-5b"/>
      <use x="900.648438" xlink:href="#DejaVuSans-6d"/>
      <use x="998.060547" xlink:href="#DejaVuSans-5d"/>
     </g>
    </g>
   </g>
   <g id="line2d_73">
    <path clip-path="url(#p968aceb288)" d="M 571.481224 220.249546 
L 584.542497 220.010678 
L 597.3086 219.555877 
L 609.779533 218.890162 
L 621.992193 218.016076 
L 633.909682 216.941249 
L 645.568897 215.6678 
L 657.006735 214.195455 
L 668.1863 212.53311 
L 679.144486 210.679791 
L 689.881296 208.639242 
L 700.396727 206.415542 
L 710.727678 204.004086 
L 720.837251 201.416986 
L 730.762342 198.648579 
L 740.502953 195.701645 
L 750.059082 192.579203 
L 759.467626 189.271083 
L 768.691689 185.79234 
L 777.731271 182.146684 
L 786.623267 178.32171 
L 795.367679 174.318574 
L 803.964506 170.138541 
L 812.413747 165.782994 
L 820.715404 161.25343 
L 828.869475 156.55146 
L 836.875962 151.678813 
L 844.77176 146.61304 
L 852.519973 141.37785 
L 860.120601 135.975201 
L 867.61054 130.378908 
L 874.98979 124.586916 
L 882.221455 118.628117 
L 889.342432 112.471937 
L 896.315823 106.15006 
L 903.178526 99.628672 
L 909.93054 92.904775 
L 916.534969 86.014386 
L 923.02871 78.91801 
L 929.374865 71.654757 
L 935.610331 64.180796 
L 940.406844 58.189242 
L 940.406844 58.189242 
" style="fill:none;stroke:#1f77b4;stroke-linecap:square;stroke-width:1.5;"/>
   </g>
   <g id="line2d_74">
    <path clip-path="url(#p968aceb288)" d="M 571.481224 220.249546 
L 584.468705 220.011526 
L 596.902742 219.56318 
L 608.709542 218.917056 
L 619.962899 218.080374 
L 630.736604 217.05791 
L 641.104451 215.852184 
L 651.140231 214.462918 
L 660.917738 212.886216 
L 670.473867 211.12095 
L 679.845515 209.164281 
L 689.069578 207.01114 
L 698.146056 204.663791 
L 707.074949 202.125257 
L 715.893153 199.387232 
L 724.600668 196.450866 
L 733.197495 193.317616 
L 741.720529 189.974179 
L 750.132874 186.435317 
L 758.471427 182.685869 
L 766.699291 178.742857 
L 774.853363 174.589047 
L 782.933642 170.223196 
L 790.940129 165.643979 
L 798.872823 160.849961 
L 806.731724 155.839581 
L 814.479937 150.636547 
L 822.154358 145.21617 
L 829.754985 139.576486 
L 837.281821 133.715321 
L 844.734864 127.630264 
L 852.114114 121.318639 
L 859.419572 114.777474 
L 866.651237 108.003457 
L 873.80911 100.992899 
L 880.89319 93.74168 
L 887.866582 86.28551 
L 894.766181 78.582472 
L 901.591987 70.626982 
L 908.307105 62.458602 
L 914.94843 54.028382 
L 921.479067 45.378474 
L 927.899015 36.506569 
L 934.208274 27.409725 
L 940.406844 18.084257 
L 940.406844 18.084257 
" style="fill:none;stroke:#ff7f0e;stroke-linecap:square;stroke-width:1.5;"/>
   </g>
   <g id="line2d_75">
    <path clip-path="url(#p968aceb288)" d="M 571.481224 220.249546 
L 584.542497 220.010751 
L 597.3086 219.556453 
L 609.81643 218.890001 
L 622.065985 218.015748 
L 634.094163 216.934924 
L 645.864067 215.655108 
L 657.412594 214.176805 
L 668.739743 212.503607 
L 679.845515 210.639147 
L 690.729909 208.587061 
L 701.392926 206.350994 
L 711.834565 203.934644 
L 722.054827 201.341837 
L 732.053711 198.576614 
L 741.868114 195.631804 
L 751.46114 192.521844 
L 760.869684 189.238497 
L 770.093747 185.784507 
L 779.133328 182.16299 
L 788.025325 178.361162 
L 796.73284 174.397117 
L 805.292771 170.256648 
L 813.705116 165.941012 
L 821.969876 161.451641 
L 830.087052 156.790125 
L 838.056642 151.958204 
L 845.915544 146.933543 
L 853.62686 141.739808 
L 861.227488 136.352199 
L 868.680531 130.796937 
L 876.022885 125.046526 
L 883.217654 119.129864 
L 890.301734 113.01651 
L 897.275126 106.70397 
L 904.100932 100.225312 
L 910.81605 93.545 
L 917.420479 86.659732 
L 923.877323 79.607004 
L 930.223479 72.345215 
L 936.422049 64.915008 
L 940.406844 59.951514 
L 940.406844 59.951514 
" style="fill:none;stroke:#2ca02c;stroke-linecap:square;stroke-width:1.5;"/>
   </g>
   <g id="line2d_76">
    <path clip-path="url(#p968aceb288)" d="M 571.481224 220.249546 
L 584.505601 220.010598 
L 596.939638 219.562073 
L 608.783335 218.914362 
L 620.073588 218.076344 
L 630.921086 217.049677 
L 641.399621 215.835288 
L 651.54609 214.436623 
L 661.434286 212.850311 
L 671.101104 211.075558 
L 680.58344 209.109637 
L 689.918192 206.947347 
L 699.068462 204.60043 
L 708.071148 202.063181 
L 716.963144 199.326587 
L 725.707556 196.403737 
L 734.341279 193.284342 
L 742.864313 189.969247 
L 751.276658 186.459557 
L 759.615211 182.739625 
L 767.843075 178.825839 
L 775.997147 174.700697 
L 784.04053 170.383036 
L 792.01012 165.853276 
L 799.905918 161.109897 
L 807.727923 156.151302 
L 815.476136 150.975777 
L 823.150556 145.581464 
L 830.751184 139.966324 
L 838.27802 134.128116 
L 845.731062 128.064358 
L 853.073416 121.804494 
L 860.341978 115.316285 
L 867.536747 108.59648 
L 874.657724 101.64145 
L 881.704908 94.447144 
L 888.678299 87.009028 
L 895.541002 79.364022 
L 902.329912 71.468118 
L 909.04503 63.315114 
L 915.649459 54.945777 
L 922.143199 46.35843 
L 928.563147 37.498866 
L 934.872406 28.411744 
L 940.406844 20.110909 
L 940.406844 20.110909 
" style="fill:none;stroke:#d62728;stroke-linecap:square;stroke-width:1.5;"/>
   </g>
   <g id="patch_9">
    <path d="M 553.034943 230.35781 
L 553.034943 7.975992 
" style="fill:none;stroke:#000000;stroke-linecap:square;stroke-linejoin:miter;stroke-width:0.8;"/>
   </g>
   <g id="patch_10">
    <path d="M 958.853125 230.35781 
L 958.853125 7.975992 
" style="fill:none;stroke:#000000;stroke-linecap:square;stroke-linejoin:miter;stroke-width:0.8;"/>
   </g>
   <g id="patch_11">
    <path d="M 553.034943 230.35781 
L 958.853125 230.35781 
" style="fill:none;stroke:#000000;stroke-linecap:square;stroke-linejoin:miter;stroke-width:0.8;"/>
   </g>
   <g id="patch_12">
    <path d="M 553.034943 7.975992 
L 958.853125 7.975992 
" style="fill:none;stroke:#000000;stroke-linecap:square;stroke-linejoin:miter;stroke-width:0.8;"/>
   </g>
   <g id="legend_2">
    <g id="patch_13">
     <path d="M 560.034943 74.688492 
L 606.186506 74.688492 
Q 608.186506 74.688492 608.186506 72.688492 
L 608.186506 14.975992 
Q 608.186506 12.975992 606.186506 12.975992 
L 560.034943 12.975992 
Q 558.034943 12.975992 558.034943 14.975992 
L 558.034943 72.688492 
Q 558.034943 74.688492 560.034943 74.688492 
z
" style="fill:#ffffff;opacity:0.8;stroke:#cccccc;stroke-linejoin:miter;"/>
    </g>
    <g id="line2d_77">
     <path d="M 562.034943 21.07443 
L 582.034943 21.07443 
" style="fill:none;stroke:#1f77b4;stroke-linecap:square;stroke-width:1.5;"/>
    </g>
    <g id="line2d_78"/>
    <g id="text_39">
     <!-- (a) -->
     <g transform="translate(590.034943 24.57443)scale(0.1 -0.1)">
      <use xlink:href="#DejaVuSans-28"/>
      <use x="39.013672" xlink:href="#DejaVuSans-61"/>
      <use x="100.292969" xlink:href="#DejaVuSans-29"/>
     </g>
    </g>
    <g id="line2d_79">
     <path d="M 562.034943 35.752555 
L 582.034943 35.752555 
" style="fill:none;stroke:#ff7f0e;stroke-linecap:square;stroke-width:1.5;"/>
    </g>
    <g id="line2d_80"/>
    <g id="text_40">
     <!-- (b) -->
     <g transform="translate(590.034943 39.252555)scale(0.1 -0.1)">
      <use xlink:href="#DejaVuSans-28"/>
      <use x="39.013672" xlink:href="#DejaVuSans-62"/>
      <use x="102.490234" xlink:href="#DejaVuSans-29"/>
     </g>
    </g>
    <g id="line2d_81">
     <path d="M 562.034943 50.43068 
L 582.034943 50.43068 
" style="fill:none;stroke:#2ca02c;stroke-linecap:square;stroke-width:1.5;"/>
    </g>
    <g id="line2d_82"/>
    <g id="text_41">
     <!-- (c) -->
     <g transform="translate(590.034943 53.93068)scale(0.1 -0.1)">
      <use xlink:href="#DejaVuSans-28"/>
      <use x="39.013672" xlink:href="#DejaVuSans-63"/>
      <use x="93.994141" xlink:href="#DejaVuSans-29"/>
     </g>
    </g>
    <g id="line2d_83">
     <path d="M 562.034943 65.108805 
L 582.034943 65.108805 
" style="fill:none;stroke:#d62728;stroke-linecap:square;stroke-width:1.5;"/>
    </g>
    <g id="line2d_84"/>
    <g id="text_42">
     <!-- (d) -->
     <g transform="translate(590.034943 68.608805)scale(0.1 -0.1)">
      <use xlink:href="#DejaVuSans-28"/>
      <use x="39.013672" xlink:href="#DejaVuSans-64"/>
      <use x="102.490234" xlink:href="#DejaVuSans-29"/>
     </g>
    </g>
   </g>
  </g>
  <g id="axes_3">
   <g id="patch_14">
    <path d="M 66.053125 497.215992 
L 471.871307 497.215992 
L 471.871307 274.834174 
L 66.053125 274.834174 
z
" style="fill:#ffffff;"/>
   </g>
   <g id="matplotlib.axis_5">
    <g id="xtick_15">
     <g id="line2d_85">
      <path clip-path="url(#pa6427b64e2)" d="M 84.46251 497.215992 
L 84.46251 274.834174 
" style="fill:none;stroke:#b0b0b0;stroke-linecap:square;stroke-width:0.8;"/>
     </g>
     <g id="line2d_86">
      <g>
       <use style="stroke:#000000;stroke-width:0.8;" x="84.46251" xlink:href="#m4e6da00179" y="497.215992"/>
      </g>
     </g>
     <g id="text_43">
      <!-- 0 -->
      <g transform="translate(81.28126 511.81443)scale(0.1 -0.1)">
       <use xlink:href="#DejaVuSans-30"/>
      </g>
     </g>
    </g>
    <g id="xtick_16">
     <g id="line2d_87">
      <path clip-path="url(#pa6427b64e2)" d="M 158.255013 497.215992 
L 158.255013 274.834174 
" style="fill:none;stroke:#b0b0b0;stroke-linecap:square;stroke-width:0.8;"/>
     </g>
     <g id="line2d_88">
      <g>
       <use style="stroke:#000000;stroke-width:0.8;" x="158.255013" xlink:href="#m4e6da00179" y="497.215992"/>
      </g>
     </g>
     <g id="text_44">
      <!-- 20 -->
      <g transform="translate(151.892513 511.81443)scale(0.1 -0.1)">
       <use xlink:href="#DejaVuSans-32"/>
       <use x="63.623047" xlink:href="#DejaVuSans-30"/>
      </g>
     </g>
    </g>
    <g id="xtick_17">
     <g id="line2d_89">
      <path clip-path="url(#pa6427b64e2)" d="M 232.047516 497.215992 
L 232.047516 274.834174 
" style="fill:none;stroke:#b0b0b0;stroke-linecap:square;stroke-width:0.8;"/>
     </g>
     <g id="line2d_90">
      <g>
       <use style="stroke:#000000;stroke-width:0.8;" x="232.047516" xlink:href="#m4e6da00179" y="497.215992"/>
      </g>
     </g>
     <g id="text_45">
      <!-- 40 -->
      <g transform="translate(225.685016 511.81443)scale(0.1 -0.1)">
       <use xlink:href="#DejaVuSans-34"/>
       <use x="63.623047" xlink:href="#DejaVuSans-30"/>
      </g>
     </g>
    </g>
    <g id="xtick_18">
     <g id="line2d_91">
      <path clip-path="url(#pa6427b64e2)" d="M 305.840019 497.215992 
L 305.840019 274.834174 
" style="fill:none;stroke:#b0b0b0;stroke-linecap:square;stroke-width:0.8;"/>
     </g>
     <g id="line2d_92">
      <g>
       <use style="stroke:#000000;stroke-width:0.8;" x="305.840019" xlink:href="#m4e6da00179" y="497.215992"/>
      </g>
     </g>
     <g id="text_46">
      <!-- 60 -->
      <g transform="translate(299.477519 511.81443)scale(0.1 -0.1)">
       <use xlink:href="#DejaVuSans-36"/>
       <use x="63.623047" xlink:href="#DejaVuSans-30"/>
      </g>
     </g>
    </g>
    <g id="xtick_19">
     <g id="line2d_93">
      <path clip-path="url(#pa6427b64e2)" d="M 379.632523 497.215992 
L 379.632523 274.834174 
" style="fill:none;stroke:#b0b0b0;stroke-linecap:square;stroke-width:0.8;"/>
     </g>
     <g id="line2d_94">
      <g>
       <use style="stroke:#000000;stroke-width:0.8;" x="379.632523" xlink:href="#m4e6da00179" y="497.215992"/>
      </g>
     </g>
     <g id="text_47">
      <!-- 80 -->
      <g transform="translate(373.270023 511.81443)scale(0.1 -0.1)">
       <use xlink:href="#DejaVuSans-38"/>
       <use x="63.623047" xlink:href="#DejaVuSans-30"/>
      </g>
     </g>
    </g>
    <g id="xtick_20">
     <g id="line2d_95">
      <path clip-path="url(#pa6427b64e2)" d="M 453.425026 497.215992 
L 453.425026 274.834174 
" style="fill:none;stroke:#b0b0b0;stroke-linecap:square;stroke-width:0.8;"/>
     </g>
     <g id="line2d_96">
      <g>
       <use style="stroke:#000000;stroke-width:0.8;" x="453.425026" xlink:href="#m4e6da00179" y="497.215992"/>
      </g>
     </g>
     <g id="text_48">
      <!-- 100 -->
      <g transform="translate(443.881276 511.81443)scale(0.1 -0.1)">
       <use xlink:href="#DejaVuSans-31"/>
       <use x="63.623047" xlink:href="#DejaVuSans-30"/>
       <use x="127.246094" xlink:href="#DejaVuSans-30"/>
      </g>
     </g>
    </g>
    <g id="text_49">
     <!-- Time [s] -->
     <g transform="translate(248.63331 525.492555)scale(0.1 -0.1)">
      <use xlink:href="#DejaVuSans-54"/>
      <use x="57.958984" xlink:href="#DejaVuSans-69"/>
      <use x="85.742188" xlink:href="#DejaVuSans-6d"/>
      <use x="183.154297" xlink:href="#DejaVuSans-65"/>
      <use x="244.677734" xlink:href="#DejaVuSans-20"/>
      <use x="276.464844" xlink:href="#DejaVuSans-5b"/>
      <use x="315.478516" xlink:href="#DejaVuSans-73"/>
      <use x="367.578125" xlink:href="#DejaVuSans-5d"/>
     </g>
    </g>
   </g>
   <g id="matplotlib.axis_6">
    <g id="ytick_17">
     <g id="line2d_97">
      <path clip-path="url(#pa6427b64e2)" d="M 66.053125 488.39859 
L 471.871307 488.39859 
" style="fill:none;stroke:#b0b0b0;stroke-linecap:square;stroke-width:0.8;"/>
     </g>
     <g id="line2d_98">
      <g>
       <use style="stroke:#000000;stroke-width:0.8;" x="66.053125" xlink:href="#m0f17a16774" y="488.39859"/>
      </g>
     </g>
     <g id="text_50">
      <!-- 0 -->
      <g transform="translate(52.690625 492.197809)scale(0.1 -0.1)">
       <use xlink:href="#DejaVuSans-30"/>
      </g>
     </g>
    </g>
    <g id="ytick_18">
     <g id="line2d_99">
      <path clip-path="url(#pa6427b64e2)" d="M 66.053125 445.57783 
L 471.871307 445.57783 
" style="fill:none;stroke:#b0b0b0;stroke-linecap:square;stroke-width:0.8;"/>
     </g>
     <g id="line2d_100">
      <g>
       <use style="stroke:#000000;stroke-width:0.8;" x="66.053125" xlink:href="#m0f17a16774" y="445.57783"/>
      </g>
     </g>
     <g id="text_51">
      <!-- 1000 -->
      <g transform="translate(33.603125 449.377049)scale(0.1 -0.1)">
       <use xlink:href="#DejaVuSans-31"/>
       <use x="63.623047" xlink:href="#DejaVuSans-30"/>
       <use x="127.246094" xlink:href="#DejaVuSans-30"/>
       <use x="190.869141" xlink:href="#DejaVuSans-30"/>
      </g>
     </g>
    </g>
    <g id="ytick_19">
     <g id="line2d_101">
      <path clip-path="url(#pa6427b64e2)" d="M 66.053125 402.757069 
L 471.871307 402.757069 
" style="fill:none;stroke:#b0b0b0;stroke-linecap:square;stroke-width:0.8;"/>
     </g>
     <g id="line2d_102">
      <g>
       <use style="stroke:#000000;stroke-width:0.8;" x="66.053125" xlink:href="#m0f17a16774" y="402.757069"/>
      </g>
     </g>
     <g id="text_52">
      <!-- 2000 -->
      <g transform="translate(33.603125 406.556288)scale(0.1 -0.1)">
       <use xlink:href="#DejaVuSans-32"/>
       <use x="63.623047" xlink:href="#DejaVuSans-30"/>
       <use x="127.246094" xlink:href="#DejaVuSans-30"/>
       <use x="190.869141" xlink:href="#DejaVuSans-30"/>
      </g>
     </g>
    </g>
    <g id="ytick_20">
     <g id="line2d_103">
      <path clip-path="url(#pa6427b64e2)" d="M 66.053125 359.936309 
L 471.871307 359.936309 
" style="fill:none;stroke:#b0b0b0;stroke-linecap:square;stroke-width:0.8;"/>
     </g>
     <g id="line2d_104">
      <g>
       <use style="stroke:#000000;stroke-width:0.8;" x="66.053125" xlink:href="#m0f17a16774" y="359.936309"/>
      </g>
     </g>
     <g id="text_53">
      <!-- 3000 -->
      <g transform="translate(33.603125 363.735527)scale(0.1 -0.1)">
       <defs>
        <path d="M 2597 2516 
Q 3050 2419 3304 2112 
Q 3559 1806 3559 1356 
Q 3559 666 3084 287 
Q 2609 -91 1734 -91 
Q 1441 -91 1130 -33 
Q 819 25 488 141 
L 488 750 
Q 750 597 1062 519 
Q 1375 441 1716 441 
Q 2309 441 2620 675 
Q 2931 909 2931 1356 
Q 2931 1769 2642 2001 
Q 2353 2234 1838 2234 
L 1294 2234 
L 1294 2753 
L 1863 2753 
Q 2328 2753 2575 2939 
Q 2822 3125 2822 3475 
Q 2822 3834 2567 4026 
Q 2313 4219 1838 4219 
Q 1578 4219 1281 4162 
Q 984 4106 628 3988 
L 628 4550 
Q 988 4650 1302 4700 
Q 1616 4750 1894 4750 
Q 2613 4750 3031 4423 
Q 3450 4097 3450 3541 
Q 3450 3153 3228 2886 
Q 3006 2619 2597 2516 
z
" id="DejaVuSans-33" transform="scale(0.015625)"/>
       </defs>
       <use xlink:href="#DejaVuSans-33"/>
       <use x="63.623047" xlink:href="#DejaVuSans-30"/>
       <use x="127.246094" xlink:href="#DejaVuSans-30"/>
       <use x="190.869141" xlink:href="#DejaVuSans-30"/>
      </g>
     </g>
    </g>
    <g id="ytick_21">
     <g id="line2d_105">
      <path clip-path="url(#pa6427b64e2)" d="M 66.053125 317.115548 
L 471.871307 317.115548 
" style="fill:none;stroke:#b0b0b0;stroke-linecap:square;stroke-width:0.8;"/>
     </g>
     <g id="line2d_106">
      <g>
       <use style="stroke:#000000;stroke-width:0.8;" x="66.053125" xlink:href="#m0f17a16774" y="317.115548"/>
      </g>
     </g>
     <g id="text_54">
      <!-- 4000 -->
      <g transform="translate(33.603125 320.914767)scale(0.1 -0.1)">
       <use xlink:href="#DejaVuSans-34"/>
       <use x="63.623047" xlink:href="#DejaVuSans-30"/>
       <use x="127.246094" xlink:href="#DejaVuSans-30"/>
       <use x="190.869141" xlink:href="#DejaVuSans-30"/>
      </g>
     </g>
    </g>
    <g id="text_55">
     <!-- Velocity [m/s] -->
     <g transform="translate(27.523438 420.290708)rotate(-90)scale(0.1 -0.1)">
      <defs>
       <path d="M 2059 -325 
Q 1816 -950 1584 -1140 
Q 1353 -1331 966 -1331 
L 506 -1331 
L 506 -850 
L 844 -850 
Q 1081 -850 1212 -737 
Q 1344 -625 1503 -206 
L 1606 56 
L 191 3500 
L 800 3500 
L 1894 763 
L 2988 3500 
L 3597 3500 
L 2059 -325 
z
" id="DejaVuSans-79" transform="scale(0.015625)"/>
       <path d="M 1625 4666 
L 2156 4666 
L 531 -594 
L 0 -594 
L 1625 4666 
z
" id="DejaVuSans-2f" transform="scale(0.015625)"/>
      </defs>
      <use xlink:href="#DejaVuSans-56"/>
      <use x="60.658203" xlink:href="#DejaVuSans-65"/>
      <use x="122.181641" xlink:href="#DejaVuSans-6c"/>
      <use x="149.964844" xlink:href="#DejaVuSans-6f"/>
      <use x="211.146484" xlink:href="#DejaVuSans-63"/>
      <use x="266.126953" xlink:href="#DejaVuSans-69"/>
      <use x="293.910156" xlink:href="#DejaVuSans-74"/>
      <use x="333.119141" xlink:href="#DejaVuSans-79"/>
      <use x="392.298828" xlink:href="#DejaVuSans-20"/>
      <use x="424.085938" xlink:href="#DejaVuSans-5b"/>
      <use x="463.099609" xlink:href="#DejaVuSans-6d"/>
      <use x="560.511719" xlink:href="#DejaVuSans-2f"/>
      <use x="594.203125" xlink:href="#DejaVuSans-73"/>
      <use x="646.302734" xlink:href="#DejaVuSans-5d"/>
     </g>
    </g>
   </g>
   <g id="line2d_107">
    <path clip-path="url(#pa6427b64e2)" d="M 84.499406 487.107726 
L 103.353391 483.805397 
L 121.432554 480.414648 
L 138.810688 476.930454 
L 155.487794 473.361469 
L 171.500767 469.708874 
L 186.886504 465.972926 
L 201.681901 462.152809 
L 215.886958 458.256907 
L 229.538571 454.283694 
L 242.673637 450.230251 
L 255.292155 446.104497 
L 267.394125 441.915476 
L 279.053341 437.645669 
L 290.269801 433.301954 
L 301.043507 428.892252 
L 311.411353 424.409253 
L 321.373341 419.860583 
L 330.966367 415.236751 
L 340.19043 410.544797 
L 349.04553 405.792882 
L 357.568564 400.968968 
L 365.796428 396.057734 
L 373.729122 391.063971 
L 381.366646 385.993412 
L 388.709001 380.852854 
L 395.793081 375.622324 
L 402.618887 370.306594 
L 409.18642 364.911456 
L 415.532575 359.411011 
L 421.657353 353.808081 
L 427.560753 348.106344 
L 433.242776 342.310476 
L 438.740318 336.385434 
L 444.053378 330.331378 
L 449.181957 324.149095 
L 453.425026 318.756934 
L 453.425026 318.756934 
" style="fill:none;stroke:#1f77b4;stroke-linecap:square;stroke-width:1.5;"/>
   </g>
   <g id="line2d_108">
    <path clip-path="url(#pa6427b64e2)" d="M 84.499406 487.107726 
L 98.852048 484.567199 
L 110.917122 482.209037 
L 122.096686 479.798645 
L 132.944184 477.23242 
L 143.791682 474.436917 
L 154.860558 471.353234 
L 166.2615 467.945108 
L 178.105196 464.171056 
L 190.354752 460.032943 
L 202.936374 455.54669 
L 215.66558 450.771646 
L 228.431684 445.745308 
L 241.050202 440.538871 
L 253.447342 435.184 
L 265.512416 429.731763 
L 277.245424 424.186593 
L 288.572574 418.588978 
L 299.53076 412.927035 
L 310.083088 407.226277 
L 320.266454 401.473584 
L 330.080857 395.675011 
L 339.526297 389.837349 
L 348.602775 383.968314 
L 357.347187 378.051175 
L 365.759532 372.092434 
L 373.876707 366.071669 
L 381.698713 359.993709 
L 389.225548 353.86436 
L 396.457213 347.690559 
L 403.430605 341.446694 
L 410.145723 335.137441 
L 416.639463 328.731266 
L 422.874929 322.268712 
L 428.889019 315.71669 
L 434.68173 309.078539 
L 440.28996 302.312985 
L 445.676813 295.466458 
L 450.879184 288.494818 
L 453.425026 284.942438 
L 453.425026 284.942438 
" style="fill:none;stroke:#ff7f0e;stroke-linecap:square;stroke-width:1.5;"/>
   </g>
   <g id="line2d_109">
    <path clip-path="url(#pa6427b64e2)" d="M 84.499406 487.107728 
L 103.648561 483.756578 
L 122.465649 480.238606 
L 140.803086 476.58541 
L 158.47639 472.839333 
L 175.227289 469.063766 
L 190.981988 465.287435 
L 205.777385 461.5149 
L 219.724168 457.731489 
L 232.969922 453.909301 
L 245.588441 450.038436 
L 257.727307 446.083236 
L 269.423419 442.039327 
L 280.713672 437.9017 
L 291.634963 433.663774 
L 302.18729 429.332154 
L 312.407552 424.897488 
L 322.258851 420.381881 
L 331.778084 415.7748 
L 340.928355 411.100975 
L 349.746559 406.349051 
L 358.269593 401.504236 
L 366.460561 396.593381 
L 374.356359 391.601119 
L 381.956986 386.533402 
L 389.262444 381.397231 
L 396.309628 376.172716 
L 403.098539 370.864827 
L 409.666071 365.44831 
L 415.97533 359.958159 
L 422.063212 354.367799 
L 427.929716 348.681166 
L 433.611739 342.864402 
L 439.072384 336.958079 
L 444.348548 330.925937 
L 449.440231 324.769139 
L 453.425026 319.697588 
L 453.425026 319.697588 
" style="fill:none;stroke:#2ca02c;stroke-linecap:square;stroke-width:1.5;"/>
   </g>
   <g id="line2d_110">
    <path clip-path="url(#pa6427b64e2)" d="M 84.499406 487.107728 
L 98.999633 484.54235 
L 111.249188 482.151558 
L 122.65013 479.700559 
L 133.792798 477.077333 
L 145.009259 474.207734 
L 156.557785 471.022111 
L 168.512171 467.492303 
L 180.835519 463.621131 
L 193.417141 459.435391 
L 206.035659 455.002988 
L 218.506592 450.387602 
L 230.793044 445.603951 
L 242.858118 440.668185 
L 254.701815 435.58316 
L 266.324134 430.351848 
L 277.725076 424.976741 
L 288.867744 419.477731 
L 299.678345 413.895906 
L 310.156881 408.237129 
L 320.30335 402.506353 
L 330.080857 396.730359 
L 339.526297 390.893364 
L 348.602775 385.024703 
L 357.347187 379.107797 
L 365.759532 373.149217 
L 373.876707 367.128572 
L 381.698713 361.050706 
L 389.225548 354.921436 
L 396.457213 348.7477 
L 403.430605 342.503888 
L 410.145723 336.194682 
L 416.639463 329.788546 
L 422.874929 323.326026 
L 428.889019 316.774034 
L 434.68173 310.135908 
L 440.28996 303.370376 
L 445.676813 296.523868 
L 450.879184 289.552245 
L 453.425026 285.999874 
L 453.425026 285.999874 
" style="fill:none;stroke:#d62728;stroke-linecap:square;stroke-width:1.5;"/>
   </g>
   <g id="patch_15">
    <path d="M 66.053125 497.215992 
L 66.053125 274.834174 
" style="fill:none;stroke:#000000;stroke-linecap:square;stroke-linejoin:miter;stroke-width:0.8;"/>
   </g>
   <g id="patch_16">
    <path d="M 471.871307 497.215992 
L 471.871307 274.834174 
" style="fill:none;stroke:#000000;stroke-linecap:square;stroke-linejoin:miter;stroke-width:0.8;"/>
   </g>
   <g id="patch_17">
    <path d="M 66.053125 497.215992 
L 471.871307 497.215992 
" style="fill:none;stroke:#000000;stroke-linecap:square;stroke-linejoin:miter;stroke-width:0.8;"/>
   </g>
   <g id="patch_18">
    <path d="M 66.053125 274.834174 
L 471.871307 274.834174 
" style="fill:none;stroke:#000000;stroke-linecap:square;stroke-linejoin:miter;stroke-width:0.8;"/>
   </g>
   <g id="legend_3">
    <g id="patch_19">
     <path d="M 73.053125 341.546674 
L 119.204688 341.546674 
Q 121.204688 341.546674 121.204688 339.546674 
L 121.204688 281.834174 
Q 121.204688 279.834174 119.204688 279.834174 
L 73.053125 279.834174 
Q 71.053125 279.834174 71.053125 281.834174 
L 71.053125 339.546674 
Q 71.053125 341.546674 73.053125 341.546674 
z
" style="fill:#ffffff;opacity:0.8;stroke:#cccccc;stroke-linejoin:miter;"/>
    </g>
    <g id="line2d_111">
     <path d="M 75.053125 287.932611 
L 95.053125 287.932611 
" style="fill:none;stroke:#1f77b4;stroke-linecap:square;stroke-width:1.5;"/>
    </g>
    <g id="line2d_112"/>
    <g id="text_56">
     <!-- (a) -->
     <g transform="translate(103.053125 291.432611)scale(0.1 -0.1)">
      <use xlink:href="#DejaVuSans-28"/>
      <use x="39.013672" xlink:href="#DejaVuSans-61"/>
      <use x="100.292969" xlink:href="#DejaVuSans-29"/>
     </g>
    </g>
    <g id="line2d_113">
     <path d="M 75.053125 302.610736 
L 95.053125 302.610736 
" style="fill:none;stroke:#ff7f0e;stroke-linecap:square;stroke-width:1.5;"/>
    </g>
    <g id="line2d_114"/>
    <g id="text_57">
     <!-- (b) -->
     <g transform="translate(103.053125 306.110736)scale(0.1 -0.1)">
      <use xlink:href="#DejaVuSans-28"/>
      <use x="39.013672" xlink:href="#DejaVuSans-62"/>
      <use x="102.490234" xlink:href="#DejaVuSans-29"/>
     </g>
    </g>
    <g id="line2d_115">
     <path d="M 75.053125 317.288861 
L 95.053125 317.288861 
" style="fill:none;stroke:#2ca02c;stroke-linecap:square;stroke-width:1.5;"/>
    </g>
    <g id="line2d_116"/>
    <g id="text_58">
     <!-- (c) -->
     <g transform="translate(103.053125 320.788861)scale(0.1 -0.1)">
      <use xlink:href="#DejaVuSans-28"/>
      <use x="39.013672" xlink:href="#DejaVuSans-63"/>
      <use x="93.994141" xlink:href="#DejaVuSans-29"/>
     </g>
    </g>
    <g id="line2d_117">
     <path d="M 75.053125 331.966986 
L 95.053125 331.966986 
" style="fill:none;stroke:#d62728;stroke-linecap:square;stroke-width:1.5;"/>
    </g>
    <g id="line2d_118"/>
    <g id="text_59">
     <!-- (d) -->
     <g transform="translate(103.053125 335.466986)scale(0.1 -0.1)">
      <use xlink:href="#DejaVuSans-28"/>
      <use x="39.013672" xlink:href="#DejaVuSans-64"/>
      <use x="102.490234" xlink:href="#DejaVuSans-29"/>
     </g>
    </g>
   </g>
  </g>
  <g id="axes_4">
   <g id="patch_20">
    <path d="M 553.034943 497.215992 
L 958.853125 497.215992 
L 958.853125 274.834174 
L 553.034943 274.834174 
z
" style="fill:#ffffff;"/>
   </g>
   <g id="matplotlib.axis_7">
    <g id="xtick_21">
     <g id="line2d_119">
      <path clip-path="url(#pdb0042354f)" d="M 571.444328 497.215992 
L 571.444328 274.834174 
" style="fill:none;stroke:#b0b0b0;stroke-linecap:square;stroke-width:0.8;"/>
     </g>
     <g id="line2d_120">
      <g>
       <use style="stroke:#000000;stroke-width:0.8;" x="571.444328" xlink:href="#m4e6da00179" y="497.215992"/>
      </g>
     </g>
     <g id="text_60">
      <!-- 0 -->
      <g transform="translate(568.263078 511.81443)scale(0.1 -0.1)">
       <use xlink:href="#DejaVuSans-30"/>
      </g>
     </g>
    </g>
    <g id="xtick_22">
     <g id="line2d_121">
      <path clip-path="url(#pdb0042354f)" d="M 645.236831 497.215992 
L 645.236831 274.834174 
" style="fill:none;stroke:#b0b0b0;stroke-linecap:square;stroke-width:0.8;"/>
     </g>
     <g id="line2d_122">
      <g>
       <use style="stroke:#000000;stroke-width:0.8;" x="645.236831" xlink:href="#m4e6da00179" y="497.215992"/>
      </g>
     </g>
     <g id="text_61">
      <!-- 20 -->
      <g transform="translate(638.874331 511.81443)scale(0.1 -0.1)">
       <use xlink:href="#DejaVuSans-32"/>
       <use x="63.623047" xlink:href="#DejaVuSans-30"/>
      </g>
     </g>
    </g>
    <g id="xtick_23">
     <g id="line2d_123">
      <path clip-path="url(#pdb0042354f)" d="M 719.029334 497.215992 
L 719.029334 274.834174 
" style="fill:none;stroke:#b0b0b0;stroke-linecap:square;stroke-width:0.8;"/>
     </g>
     <g id="line2d_124">
      <g>
       <use style="stroke:#000000;stroke-width:0.8;" x="719.029334" xlink:href="#m4e6da00179" y="497.215992"/>
      </g>
     </g>
     <g id="text_62">
      <!-- 40 -->
      <g transform="translate(712.666834 511.81443)scale(0.1 -0.1)">
       <use xlink:href="#DejaVuSans-34"/>
       <use x="63.623047" xlink:href="#DejaVuSans-30"/>
      </g>
     </g>
    </g>
    <g id="xtick_24">
     <g id="line2d_125">
      <path clip-path="url(#pdb0042354f)" d="M 792.821838 497.215992 
L 792.821838 274.834174 
" style="fill:none;stroke:#b0b0b0;stroke-linecap:square;stroke-width:0.8;"/>
     </g>
     <g id="line2d_126">
      <g>
       <use style="stroke:#000000;stroke-width:0.8;" x="792.821838" xlink:href="#m4e6da00179" y="497.215992"/>
      </g>
     </g>
     <g id="text_63">
      <!-- 60 -->
      <g transform="translate(786.459338 511.81443)scale(0.1 -0.1)">
       <use xlink:href="#DejaVuSans-36"/>
       <use x="63.623047" xlink:href="#DejaVuSans-30"/>
      </g>
     </g>
    </g>
    <g id="xtick_25">
     <g id="line2d_127">
      <path clip-path="url(#pdb0042354f)" d="M 866.614341 497.215992 
L 866.614341 274.834174 
" style="fill:none;stroke:#b0b0b0;stroke-linecap:square;stroke-width:0.8;"/>
     </g>
     <g id="line2d_128">
      <g>
       <use style="stroke:#000000;stroke-width:0.8;" x="866.614341" xlink:href="#m4e6da00179" y="497.215992"/>
      </g>
     </g>
     <g id="text_64">
      <!-- 80 -->
      <g transform="translate(860.251841 511.81443)scale(0.1 -0.1)">
       <use xlink:href="#DejaVuSans-38"/>
       <use x="63.623047" xlink:href="#DejaVuSans-30"/>
      </g>
     </g>
    </g>
    <g id="xtick_26">
     <g id="line2d_129">
      <path clip-path="url(#pdb0042354f)" d="M 940.406844 497.215992 
L 940.406844 274.834174 
" style="fill:none;stroke:#b0b0b0;stroke-linecap:square;stroke-width:0.8;"/>
     </g>
     <g id="line2d_130">
      <g>
       <use style="stroke:#000000;stroke-width:0.8;" x="940.406844" xlink:href="#m4e6da00179" y="497.215992"/>
      </g>
     </g>
     <g id="text_65">
      <!-- 100 -->
      <g transform="translate(930.863094 511.81443)scale(0.1 -0.1)">
       <use xlink:href="#DejaVuSans-31"/>
       <use x="63.623047" xlink:href="#DejaVuSans-30"/>
       <use x="127.246094" xlink:href="#DejaVuSans-30"/>
      </g>
     </g>
    </g>
    <g id="text_66">
     <!-- Time [s] -->
     <g transform="translate(735.615128 525.492555)scale(0.1 -0.1)">
      <use xlink:href="#DejaVuSans-54"/>
      <use x="57.958984" xlink:href="#DejaVuSans-69"/>
      <use x="85.742188" xlink:href="#DejaVuSans-6d"/>
      <use x="183.154297" xlink:href="#DejaVuSans-65"/>
      <use x="244.677734" xlink:href="#DejaVuSans-20"/>
      <use x="276.464844" xlink:href="#DejaVuSans-5b"/>
      <use x="315.478516" xlink:href="#DejaVuSans-73"/>
      <use x="367.578125" xlink:href="#DejaVuSans-5d"/>
     </g>
    </g>
   </g>
   <g id="matplotlib.axis_8">
    <g id="ytick_22">
     <g id="line2d_131">
      <path clip-path="url(#pdb0042354f)" d="M 553.034943 483.753004 
L 958.853125 483.753004 
" style="fill:none;stroke:#b0b0b0;stroke-linecap:square;stroke-width:0.8;"/>
     </g>
     <g id="line2d_132">
      <g>
       <use style="stroke:#000000;stroke-width:0.8;" x="553.034943" xlink:href="#m0f17a16774" y="483.753004"/>
      </g>
     </g>
     <g id="text_67">
      <!-- 0.02 -->
      <g transform="translate(523.769318 487.552222)scale(0.1 -0.1)">
       <defs>
        <path d="M 684 794 
L 1344 794 
L 1344 0 
L 684 0 
L 684 794 
z
" id="DejaVuSans-2e" transform="scale(0.015625)"/>
       </defs>
       <use xlink:href="#DejaVuSans-30"/>
       <use x="63.623047" xlink:href="#DejaVuSans-2e"/>
       <use x="95.410156" xlink:href="#DejaVuSans-30"/>
       <use x="159.033203" xlink:href="#DejaVuSans-32"/>
      </g>
     </g>
    </g>
    <g id="ytick_23">
     <g id="line2d_133">
      <path clip-path="url(#pdb0042354f)" d="M 553.034943 456.806499 
L 958.853125 456.806499 
" style="fill:none;stroke:#b0b0b0;stroke-linecap:square;stroke-width:0.8;"/>
     </g>
     <g id="line2d_134">
      <g>
       <use style="stroke:#000000;stroke-width:0.8;" x="553.034943" xlink:href="#m0f17a16774" y="456.806499"/>
      </g>
     </g>
     <g id="text_68">
      <!-- 0.04 -->
      <g transform="translate(523.769318 460.605717)scale(0.1 -0.1)">
       <use xlink:href="#DejaVuSans-30"/>
       <use x="63.623047" xlink:href="#DejaVuSans-2e"/>
       <use x="95.410156" xlink:href="#DejaVuSans-30"/>
       <use x="159.033203" xlink:href="#DejaVuSans-34"/>
      </g>
     </g>
    </g>
    <g id="ytick_24">
     <g id="line2d_135">
      <path clip-path="url(#pdb0042354f)" d="M 553.034943 429.859994 
L 958.853125 429.859994 
" style="fill:none;stroke:#b0b0b0;stroke-linecap:square;stroke-width:0.8;"/>
     </g>
     <g id="line2d_136">
      <g>
       <use style="stroke:#000000;stroke-width:0.8;" x="553.034943" xlink:href="#m0f17a16774" y="429.859994"/>
      </g>
     </g>
     <g id="text_69">
      <!-- 0.06 -->
      <g transform="translate(523.769318 433.659212)scale(0.1 -0.1)">
       <use xlink:href="#DejaVuSans-30"/>
       <use x="63.623047" xlink:href="#DejaVuSans-2e"/>
       <use x="95.410156" xlink:href="#DejaVuSans-30"/>
       <use x="159.033203" xlink:href="#DejaVuSans-36"/>
      </g>
     </g>
    </g>
    <g id="ytick_25">
     <g id="line2d_137">
      <path clip-path="url(#pdb0042354f)" d="M 553.034943 402.913489 
L 958.853125 402.913489 
" style="fill:none;stroke:#b0b0b0;stroke-linecap:square;stroke-width:0.8;"/>
     </g>
     <g id="line2d_138">
      <g>
       <use style="stroke:#000000;stroke-width:0.8;" x="553.034943" xlink:href="#m0f17a16774" y="402.913489"/>
      </g>
     </g>
     <g id="text_70">
      <!-- 0.08 -->
      <g transform="translate(523.769318 406.712707)scale(0.1 -0.1)">
       <use xlink:href="#DejaVuSans-30"/>
       <use x="63.623047" xlink:href="#DejaVuSans-2e"/>
       <use x="95.410156" xlink:href="#DejaVuSans-30"/>
       <use x="159.033203" xlink:href="#DejaVuSans-38"/>
      </g>
     </g>
    </g>
    <g id="ytick_26">
     <g id="line2d_139">
      <path clip-path="url(#pdb0042354f)" d="M 553.034943 375.966984 
L 958.853125 375.966984 
" style="fill:none;stroke:#b0b0b0;stroke-linecap:square;stroke-width:0.8;"/>
     </g>
     <g id="line2d_140">
      <g>
       <use style="stroke:#000000;stroke-width:0.8;" x="553.034943" xlink:href="#m0f17a16774" y="375.966984"/>
      </g>
     </g>
     <g id="text_71">
      <!-- 0.10 -->
      <g transform="translate(523.769318 379.766202)scale(0.1 -0.1)">
       <use xlink:href="#DejaVuSans-30"/>
       <use x="63.623047" xlink:href="#DejaVuSans-2e"/>
       <use x="95.410156" xlink:href="#DejaVuSans-31"/>
       <use x="159.033203" xlink:href="#DejaVuSans-30"/>
      </g>
     </g>
    </g>
    <g id="ytick_27">
     <g id="line2d_141">
      <path clip-path="url(#pdb0042354f)" d="M 553.034943 349.020479 
L 958.853125 349.020479 
" style="fill:none;stroke:#b0b0b0;stroke-linecap:square;stroke-width:0.8;"/>
     </g>
     <g id="line2d_142">
      <g>
       <use style="stroke:#000000;stroke-width:0.8;" x="553.034943" xlink:href="#m0f17a16774" y="349.020479"/>
      </g>
     </g>
     <g id="text_72">
      <!-- 0.12 -->
      <g transform="translate(523.769318 352.819698)scale(0.1 -0.1)">
       <use xlink:href="#DejaVuSans-30"/>
       <use x="63.623047" xlink:href="#DejaVuSans-2e"/>
       <use x="95.410156" xlink:href="#DejaVuSans-31"/>
       <use x="159.033203" xlink:href="#DejaVuSans-32"/>
      </g>
     </g>
    </g>
    <g id="ytick_28">
     <g id="line2d_143">
      <path clip-path="url(#pdb0042354f)" d="M 553.034943 322.073974 
L 958.853125 322.073974 
" style="fill:none;stroke:#b0b0b0;stroke-linecap:square;stroke-width:0.8;"/>
     </g>
     <g id="line2d_144">
      <g>
       <use style="stroke:#000000;stroke-width:0.8;" x="553.034943" xlink:href="#m0f17a16774" y="322.073974"/>
      </g>
     </g>
     <g id="text_73">
      <!-- 0.14 -->
      <g transform="translate(523.769318 325.873193)scale(0.1 -0.1)">
       <use xlink:href="#DejaVuSans-30"/>
       <use x="63.623047" xlink:href="#DejaVuSans-2e"/>
       <use x="95.410156" xlink:href="#DejaVuSans-31"/>
       <use x="159.033203" xlink:href="#DejaVuSans-34"/>
      </g>
     </g>
    </g>
    <g id="ytick_29">
     <g id="line2d_145">
      <path clip-path="url(#pdb0042354f)" d="M 553.034943 295.127469 
L 958.853125 295.127469 
" style="fill:none;stroke:#b0b0b0;stroke-linecap:square;stroke-width:0.8;"/>
     </g>
     <g id="line2d_146">
      <g>
       <use style="stroke:#000000;stroke-width:0.8;" x="553.034943" xlink:href="#m0f17a16774" y="295.127469"/>
      </g>
     </g>
     <g id="text_74">
      <!-- 0.16 -->
      <g transform="translate(523.769318 298.926688)scale(0.1 -0.1)">
       <use xlink:href="#DejaVuSans-30"/>
       <use x="63.623047" xlink:href="#DejaVuSans-2e"/>
       <use x="95.410156" xlink:href="#DejaVuSans-31"/>
       <use x="159.033203" xlink:href="#DejaVuSans-36"/>
      </g>
     </g>
    </g>
    <g id="text_75">
     <!-- Theta [rad.] -->
     <g transform="translate(517.689631 415.721958)rotate(-90)scale(0.1 -0.1)">
      <defs>
       <path d="M 3513 2113 
L 3513 0 
L 2938 0 
L 2938 2094 
Q 2938 2591 2744 2837 
Q 2550 3084 2163 3084 
Q 1697 3084 1428 2787 
Q 1159 2491 1159 1978 
L 1159 0 
L 581 0 
L 581 4863 
L 1159 4863 
L 1159 2956 
Q 1366 3272 1645 3428 
Q 1925 3584 2291 3584 
Q 2894 3584 3203 3211 
Q 3513 2838 3513 2113 
z
" id="DejaVuSans-68" transform="scale(0.015625)"/>
      </defs>
      <use xlink:href="#DejaVuSans-54"/>
      <use x="61.083984" xlink:href="#DejaVuSans-68"/>
      <use x="124.462891" xlink:href="#DejaVuSans-65"/>
      <use x="185.986328" xlink:href="#DejaVuSans-74"/>
      <use x="225.195312" xlink:href="#DejaVuSans-61"/>
      <use x="286.474609" xlink:href="#DejaVuSans-20"/>
      <use x="318.261719" xlink:href="#DejaVuSans-5b"/>
      <use x="357.275391" xlink:href="#DejaVuSans-72"/>
      <use x="398.388672" xlink:href="#DejaVuSans-61"/>
      <use x="459.667969" xlink:href="#DejaVuSans-64"/>
      <use x="523.144531" xlink:href="#DejaVuSans-2e"/>
      <use x="554.931641" xlink:href="#DejaVuSans-5d"/>
     </g>
    </g>
   </g>
   <g id="line2d_147">
    <path clip-path="url(#pdb0042354f)" d="M 571.481224 487.107728 
L 574.027066 482.085515 
L 576.941869 476.830178 
L 580.225636 471.374384 
L 583.841468 465.801525 
L 587.789367 460.126329 
L 592.069333 454.363748 
L 596.681364 448.528629 
L 601.625462 442.635551 
L 606.864729 436.739112 
L 612.399167 430.846655 
L 618.228775 424.96606 
L 624.353553 419.105498 
L 630.736604 413.305946 
L 637.414826 407.539798 
L 644.351321 401.845105 
L 651.54609 396.225886 
L 659.036029 390.65964 
L 666.784242 385.180083 
L 674.790729 379.791466 
L 683.055489 374.498058 
L 691.578523 369.304095 
L 700.359831 364.213745 
L 709.399413 359.231075 
L 718.697268 354.360034 
L 728.290294 349.586546 
L 738.141593 344.933997 
L 748.251166 340.405799 
L 758.655909 335.98998 
L 769.318925 331.706537 
L 780.277112 327.54474 
L 791.530469 323.50965 
L 803.078996 319.60606 
L 814.922692 315.838521 
L 827.061559 312.21137 
L 839.495596 308.72877 
L 852.224803 305.394754 
L 865.286076 302.204586 
L 878.642519 299.172162 
L 892.294132 296.30147 
L 906.240915 293.596716 
L 920.445972 291.068767 
L 934.909303 288.72114 
L 940.406844 287.88709 
L 940.406844 287.88709 
" style="fill:none;stroke:#1f77b4;stroke-linecap:square;stroke-width:1.5;"/>
   </g>
   <g id="line2d_148">
    <path clip-path="url(#pdb0042354f)" d="M 571.481224 487.107728 
L 573.953273 482.243739 
L 576.646699 477.435041 
L 579.524607 472.74879 
L 582.5501 468.244766 
L 585.686281 463.973994 
L 588.896255 459.977508 
L 592.143125 456.285526 
L 595.463788 452.844287 
L 598.821347 449.682376 
L 602.252698 446.755915 
L 605.757842 444.060369 
L 609.336778 441.59006 
L 612.989507 439.337955 
L 616.789821 437.257604 
L 620.73772 435.352889 
L 624.833204 433.62433 
L 629.150065 432.044175 
L 633.725201 430.607013 
L 638.632402 429.300484 
L 643.945462 428.1192 
L 649.738174 427.062074 
L 656.158122 426.120148 
L 663.389787 425.288906 
L 671.654547 424.567973 
L 681.358261 423.951226 
L 693.091269 423.436581 
L 707.84977 423.021862 
L 727.552368 422.703759 
L 756.368341 422.479241 
L 805.956903 422.344138 
L 929.559346 422.290359 
L 940.406844 422.289555 
L 940.406844 422.289555 
" style="fill:none;stroke:#ff7f0e;stroke-linecap:square;stroke-width:1.5;"/>
   </g>
   <g id="line2d_149">
    <path clip-path="url(#pdb0042354f)" d="M 571.481224 487.107728 
L 574.027066 482.085285 
L 576.941869 476.829115 
L 580.225636 471.37158 
L 583.841468 465.795706 
L 587.826264 460.064407 
L 592.143125 454.249747 
L 596.792053 448.364913 
L 601.73615 442.465748 
L 607.012314 436.517609 
L 612.583648 430.571826 
L 618.487049 424.598616 
L 624.685619 418.644944 
L 631.179359 412.717601 
L 637.96827 406.823565 
L 645.015454 400.999699 
L 652.357808 395.22064 
L 659.958436 389.520939 
L 667.854233 383.87867 
L 676.008305 378.326254 
L 684.42065 372.868187 
L 693.054373 367.531574 
L 701.94637 362.297146 
L 711.059744 357.190487 
L 720.431392 352.194927 
L 730.024417 347.334207 
L 739.83882 342.610889 
L 749.911497 338.011021 
L 760.205551 333.55498 
L 770.757879 329.229948 
L 781.568481 325.039939 
L 792.637356 320.988524 
L 804.001402 317.066517 
L 815.660617 313.278966 
L 827.615003 309.630534 
L 839.864558 306.125588 
L 852.409284 302.768291 
L 865.249179 299.562683 
L 878.384245 296.512774 
L 891.814481 293.622639 
L 905.539886 290.896542 
L 919.560462 288.339102 
L 933.839311 285.961394 
L 940.406844 284.942438 
L 940.406844 284.942438 
" style="fill:none;stroke:#2ca02c;stroke-linecap:square;stroke-width:1.5;"/>
   </g>
   <g id="line2d_150">
    <path clip-path="url(#pdb0042354f)" d="M 571.481224 487.107728 
L 573.953273 482.243523 
L 576.646699 477.4341 
L 579.524607 472.746474 
L 582.5501 468.240289 
L 585.686281 463.966472 
L 588.896255 459.965995 
L 592.180021 456.228969 
L 595.500684 452.785358 
L 598.858243 449.619866 
L 602.289594 446.688608 
L 605.794738 443.987074 
L 609.373675 441.509638 
L 613.0633 439.227807 
L 616.863614 437.140569 
L 620.811513 435.227727 
L 624.943893 433.475303 
L 629.260754 431.886691 
L 633.872786 430.429036 
L 638.779987 429.113217 
L 644.093047 427.921308 
L 649.885759 426.852358 
L 656.305707 425.897496 
L 663.500476 425.056157 
L 671.72834 424.322582 
L 681.358261 423.693406 
L 692.943684 423.166852 
L 707.443911 422.739985 
L 726.629962 422.410327 
L 754.265255 422.175301 
L 800.606947 422.030681 
L 909.118823 421.968995 
L 940.406844 421.965973 
L 940.406844 421.965973 
" style="fill:none;stroke:#d62728;stroke-linecap:square;stroke-width:1.5;"/>
   </g>
   <g id="patch_21">
    <path d="M 553.034943 497.215992 
L 553.034943 274.834174 
" style="fill:none;stroke:#000000;stroke-linecap:square;stroke-linejoin:miter;stroke-width:0.8;"/>
   </g>
   <g id="patch_22">
    <path d="M 958.853125 497.215992 
L 958.853125 274.834174 
" style="fill:none;stroke:#000000;stroke-linecap:square;stroke-linejoin:miter;stroke-width:0.8;"/>
   </g>
   <g id="patch_23">
    <path d="M 553.034943 497.215992 
L 958.853125 497.215992 
" style="fill:none;stroke:#000000;stroke-linecap:square;stroke-linejoin:miter;stroke-width:0.8;"/>
   </g>
   <g id="patch_24">
    <path d="M 553.034943 274.834174 
L 958.853125 274.834174 
" style="fill:none;stroke:#000000;stroke-linecap:square;stroke-linejoin:miter;stroke-width:0.8;"/>
   </g>
   <g id="legend_4">
    <g id="patch_25">
     <path d="M 560.034943 341.546674 
L 606.186506 341.546674 
Q 608.186506 341.546674 608.186506 339.546674 
L 608.186506 281.834174 
Q 608.186506 279.834174 606.186506 279.834174 
L 560.034943 279.834174 
Q 558.034943 279.834174 558.034943 281.834174 
L 558.034943 339.546674 
Q 558.034943 341.546674 560.034943 341.546674 
z
" style="fill:#ffffff;opacity:0.8;stroke:#cccccc;stroke-linejoin:miter;"/>
    </g>
    <g id="line2d_151">
     <path d="M 562.034943 287.932611 
L 582.034943 287.932611 
" style="fill:none;stroke:#1f77b4;stroke-linecap:square;stroke-width:1.5;"/>
    </g>
    <g id="line2d_152"/>
    <g id="text_76">
     <!-- (a) -->
     <g transform="translate(590.034943 291.432611)scale(0.1 -0.1)">
      <use xlink:href="#DejaVuSans-28"/>
      <use x="39.013672" xlink:href="#DejaVuSans-61"/>
      <use x="100.292969" xlink:href="#DejaVuSans-29"/>
     </g>
    </g>
    <g id="line2d_153">
     <path d="M 562.034943 302.610736 
L 582.034943 302.610736 
" style="fill:none;stroke:#ff7f0e;stroke-linecap:square;stroke-width:1.5;"/>
    </g>
    <g id="line2d_154"/>
    <g id="text_77">
     <!-- (b) -->
     <g transform="translate(590.034943 306.110736)scale(0.1 -0.1)">
      <use xlink:href="#DejaVuSans-28"/>
      <use x="39.013672" xlink:href="#DejaVuSans-62"/>
      <use x="102.490234" xlink:href="#DejaVuSans-29"/>
     </g>
    </g>
    <g id="line2d_155">
     <path d="M 562.034943 317.288861 
L 582.034943 317.288861 
" style="fill:none;stroke:#2ca02c;stroke-linecap:square;stroke-width:1.5;"/>
    </g>
    <g id="line2d_156"/>
    <g id="text_78">
     <!-- (c) -->
     <g transform="translate(590.034943 320.788861)scale(0.1 -0.1)">
      <use xlink:href="#DejaVuSans-28"/>
      <use x="39.013672" xlink:href="#DejaVuSans-63"/>
      <use x="93.994141" xlink:href="#DejaVuSans-29"/>
     </g>
    </g>
    <g id="line2d_157">
     <path d="M 562.034943 331.966986 
L 582.034943 331.966986 
" style="fill:none;stroke:#d62728;stroke-linecap:square;stroke-width:1.5;"/>
    </g>
    <g id="line2d_158"/>
    <g id="text_79">
     <!-- (d) -->
     <g transform="translate(590.034943 335.466986)scale(0.1 -0.1)">
      <use xlink:href="#DejaVuSans-28"/>
      <use x="39.013672" xlink:href="#DejaVuSans-64"/>
      <use x="102.490234" xlink:href="#DejaVuSans-29"/>
     </g>
    </g>
   </g>
  </g>
 </g>
 <defs>
  <clipPath id="pc664e5fec6">
   <rect height="222.381818" width="405.818182" x="66.053125" y="7.975992"/>
  </clipPath>
  <clipPath id="p968aceb288">
   <rect height="222.381818" width="405.818182" x="553.034943" y="7.975992"/>
  </clipPath>
  <clipPath id="pa6427b64e2">
   <rect height="222.381818" width="405.818182" x="66.053125" y="274.834174"/>
  </clipPath>
  <clipPath id="pdb0042354f">
   <rect height="222.381818" width="405.818182" x="553.034943" y="274.834174"/>
  </clipPath>
 </defs>
</svg>
