<?xml version="1.0" encoding="utf-8" standalone="no"?>
<!DOCTYPE svg PUBLIC "-//W3C//DTD SVG 1.1//EN"
  "http://www.w3.org/Graphics/SVG/1.1/DTD/svg11.dtd">
<svg height="534.060344pt" version="1.1" viewBox="0 0 966.053125 534.060344" width="966.053125pt" xmlns="http://www.w3.org/2000/svg" xmlns:xlink="http://www.w3.org/1999/xlink">
 <metadata>
  <rdf:RDF xmlns:cc="http://creativecommons.org/ns#" xmlns:dc="http://purl.org/dc/elements/1.1/" xmlns:rdf="http://www.w3.org/1999/02/22-rdf-syntax-ns#">
   <cc:Work>
    <dc:type rdf:resource="http://purl.org/dc/dcmitype/StillImage"/>
    <dc:date>2021-08-26T19:28:37.437036</dc:date>
    <dc:format>image/svg+xml</dc:format>
    <dc:creator>
     <cc:Agent>
      <dc:title>Matplotlib v3.4.2, https://matplotlib.org/</dc:title>
     </cc:Agent>
    </dc:creator>
   </cc:Work>
  </rdf:RDF>
 </metadata>
 <defs>
  <style type="text/css">*{stroke-linecap:butt;stroke-linejoin:round;}</style>
 </defs>
 <g id="figure_1">
  <g id="patch_1">
   <path d="M 0 534.060344 
L 966.053125 534.060344 
L 966.053125 0 
L 0 0 
z
" style="fill:none;"/>
  </g>
  <g id="axes_1">
   <g id="patch_2">
    <path d="M 66.053125 229.645912 
L 471.871307 229.645912 
L 471.871307 7.264094 
L 66.053125 7.264094 
z
" style="fill:#ffffff;"/>
   </g>
   <g id="matplotlib.axis_1">
    <g id="xtick_1">
     <g id="line2d_1">
      <path clip-path="url(#p789f08d900)" d="M 84.49934 229.645912 
L 84.49934 7.264094 
" style="fill:none;stroke:#b0b0b0;stroke-linecap:square;stroke-width:0.8;"/>
     </g>
     <g id="line2d_2">
      <defs>
       <path d="M 0 0 
L 0 3.5 
" id="mcfe0366dfa" style="stroke:#000000;stroke-width:0.8;"/>
      </defs>
      <g>
       <use style="stroke:#000000;stroke-width:0.8;" x="84.49934" xlink:href="#mcfe0366dfa" y="229.645912"/>
      </g>
     </g>
     <g id="text_1">
      <!-- 0 -->
      <g transform="translate(81.31809 244.244349)scale(0.1 -0.1)">
       <defs>
        <path d="M 2034 4250 
Q 1547 4250 1301 3770 
Q 1056 3291 1056 2328 
Q 1056 1369 1301 889 
Q 1547 409 2034 409 
Q 2525 409 2770 889 
Q 3016 1369 3016 2328 
Q 3016 3291 2770 3770 
Q 2525 4250 2034 4250 
z
M 2034 4750 
Q 2819 4750 3233 4129 
Q 3647 3509 3647 2328 
Q 3647 1150 3233 529 
Q 2819 -91 2034 -91 
Q 1250 -91 836 529 
Q 422 1150 422 2328 
Q 422 3509 836 4129 
Q 1250 4750 2034 4750 
z
" id="DejaVuSans-30" transform="scale(0.015625)"/>
       </defs>
       <use xlink:href="#DejaVuSans-30"/>
      </g>
     </g>
    </g>
    <g id="xtick_2">
     <g id="line2d_3">
      <path clip-path="url(#p789f08d900)" d="M 134.719939 229.645912 
L 134.719939 7.264094 
" style="fill:none;stroke:#b0b0b0;stroke-linecap:square;stroke-width:0.8;"/>
     </g>
     <g id="line2d_4">
      <g>
       <use style="stroke:#000000;stroke-width:0.8;" x="134.719939" xlink:href="#mcfe0366dfa" y="229.645912"/>
      </g>
     </g>
     <g id="text_2">
      <!-- 2000 -->
      <g transform="translate(121.994939 244.244349)scale(0.1 -0.1)">
       <defs>
        <path d="M 1228 531 
L 3431 531 
L 3431 0 
L 469 0 
L 469 531 
Q 828 903 1448 1529 
Q 2069 2156 2228 2338 
Q 2531 2678 2651 2914 
Q 2772 3150 2772 3378 
Q 2772 3750 2511 3984 
Q 2250 4219 1831 4219 
Q 1534 4219 1204 4116 
Q 875 4013 500 3803 
L 500 4441 
Q 881 4594 1212 4672 
Q 1544 4750 1819 4750 
Q 2544 4750 2975 4387 
Q 3406 4025 3406 3419 
Q 3406 3131 3298 2873 
Q 3191 2616 2906 2266 
Q 2828 2175 2409 1742 
Q 1991 1309 1228 531 
z
" id="DejaVuSans-32" transform="scale(0.015625)"/>
       </defs>
       <use xlink:href="#DejaVuSans-32"/>
       <use x="63.623047" xlink:href="#DejaVuSans-30"/>
       <use x="127.246094" xlink:href="#DejaVuSans-30"/>
       <use x="190.869141" xlink:href="#DejaVuSans-30"/>
      </g>
     </g>
    </g>
    <g id="xtick_3">
     <g id="line2d_5">
      <path clip-path="url(#p789f08d900)" d="M 184.940539 229.645912 
L 184.940539 7.264094 
" style="fill:none;stroke:#b0b0b0;stroke-linecap:square;stroke-width:0.8;"/>
     </g>
     <g id="line2d_6">
      <g>
       <use style="stroke:#000000;stroke-width:0.8;" x="184.940539" xlink:href="#mcfe0366dfa" y="229.645912"/>
      </g>
     </g>
     <g id="text_3">
      <!-- 4000 -->
      <g transform="translate(172.215539 244.244349)scale(0.1 -0.1)">
       <defs>
        <path d="M 2419 4116 
L 825 1625 
L 2419 1625 
L 2419 4116 
z
M 2253 4666 
L 3047 4666 
L 3047 1625 
L 3713 1625 
L 3713 1100 
L 3047 1100 
L 3047 0 
L 2419 0 
L 2419 1100 
L 313 1100 
L 313 1709 
L 2253 4666 
z
" id="DejaVuSans-34" transform="scale(0.015625)"/>
       </defs>
       <use xlink:href="#DejaVuSans-34"/>
       <use x="63.623047" xlink:href="#DejaVuSans-30"/>
       <use x="127.246094" xlink:href="#DejaVuSans-30"/>
       <use x="190.869141" xlink:href="#DejaVuSans-30"/>
      </g>
     </g>
    </g>
    <g id="xtick_4">
     <g id="line2d_7">
      <path clip-path="url(#p789f08d900)" d="M 235.161138 229.645912 
L 235.161138 7.264094 
" style="fill:none;stroke:#b0b0b0;stroke-linecap:square;stroke-width:0.8;"/>
     </g>
     <g id="line2d_8">
      <g>
       <use style="stroke:#000000;stroke-width:0.8;" x="235.161138" xlink:href="#mcfe0366dfa" y="229.645912"/>
      </g>
     </g>
     <g id="text_4">
      <!-- 6000 -->
      <g transform="translate(222.436138 244.244349)scale(0.1 -0.1)">
       <defs>
        <path d="M 2113 2584 
Q 1688 2584 1439 2293 
Q 1191 2003 1191 1497 
Q 1191 994 1439 701 
Q 1688 409 2113 409 
Q 2538 409 2786 701 
Q 3034 994 3034 1497 
Q 3034 2003 2786 2293 
Q 2538 2584 2113 2584 
z
M 3366 4563 
L 3366 3988 
Q 3128 4100 2886 4159 
Q 2644 4219 2406 4219 
Q 1781 4219 1451 3797 
Q 1122 3375 1075 2522 
Q 1259 2794 1537 2939 
Q 1816 3084 2150 3084 
Q 2853 3084 3261 2657 
Q 3669 2231 3669 1497 
Q 3669 778 3244 343 
Q 2819 -91 2113 -91 
Q 1303 -91 875 529 
Q 447 1150 447 2328 
Q 447 3434 972 4092 
Q 1497 4750 2381 4750 
Q 2619 4750 2861 4703 
Q 3103 4656 3366 4563 
z
" id="DejaVuSans-36" transform="scale(0.015625)"/>
       </defs>
       <use xlink:href="#DejaVuSans-36"/>
       <use x="63.623047" xlink:href="#DejaVuSans-30"/>
       <use x="127.246094" xlink:href="#DejaVuSans-30"/>
       <use x="190.869141" xlink:href="#DejaVuSans-30"/>
      </g>
     </g>
    </g>
    <g id="xtick_5">
     <g id="line2d_9">
      <path clip-path="url(#p789f08d900)" d="M 285.381737 229.645912 
L 285.381737 7.264094 
" style="fill:none;stroke:#b0b0b0;stroke-linecap:square;stroke-width:0.8;"/>
     </g>
     <g id="line2d_10">
      <g>
       <use style="stroke:#000000;stroke-width:0.8;" x="285.381737" xlink:href="#mcfe0366dfa" y="229.645912"/>
      </g>
     </g>
     <g id="text_5">
      <!-- 8000 -->
      <g transform="translate(272.656737 244.244349)scale(0.1 -0.1)">
       <defs>
        <path d="M 2034 2216 
Q 1584 2216 1326 1975 
Q 1069 1734 1069 1313 
Q 1069 891 1326 650 
Q 1584 409 2034 409 
Q 2484 409 2743 651 
Q 3003 894 3003 1313 
Q 3003 1734 2745 1975 
Q 2488 2216 2034 2216 
z
M 1403 2484 
Q 997 2584 770 2862 
Q 544 3141 544 3541 
Q 544 4100 942 4425 
Q 1341 4750 2034 4750 
Q 2731 4750 3128 4425 
Q 3525 4100 3525 3541 
Q 3525 3141 3298 2862 
Q 3072 2584 2669 2484 
Q 3125 2378 3379 2068 
Q 3634 1759 3634 1313 
Q 3634 634 3220 271 
Q 2806 -91 2034 -91 
Q 1263 -91 848 271 
Q 434 634 434 1313 
Q 434 1759 690 2068 
Q 947 2378 1403 2484 
z
M 1172 3481 
Q 1172 3119 1398 2916 
Q 1625 2713 2034 2713 
Q 2441 2713 2670 2916 
Q 2900 3119 2900 3481 
Q 2900 3844 2670 4047 
Q 2441 4250 2034 4250 
Q 1625 4250 1398 4047 
Q 1172 3844 1172 3481 
z
" id="DejaVuSans-38" transform="scale(0.015625)"/>
       </defs>
       <use xlink:href="#DejaVuSans-38"/>
       <use x="63.623047" xlink:href="#DejaVuSans-30"/>
       <use x="127.246094" xlink:href="#DejaVuSans-30"/>
       <use x="190.869141" xlink:href="#DejaVuSans-30"/>
      </g>
     </g>
    </g>
    <g id="xtick_6">
     <g id="line2d_11">
      <path clip-path="url(#p789f08d900)" d="M 335.602336 229.645912 
L 335.602336 7.264094 
" style="fill:none;stroke:#b0b0b0;stroke-linecap:square;stroke-width:0.8;"/>
     </g>
     <g id="line2d_12">
      <g>
       <use style="stroke:#000000;stroke-width:0.8;" x="335.602336" xlink:href="#mcfe0366dfa" y="229.645912"/>
      </g>
     </g>
     <g id="text_6">
      <!-- 10000 -->
      <g transform="translate(319.696086 244.244349)scale(0.1 -0.1)">
       <defs>
        <path d="M 794 531 
L 1825 531 
L 1825 4091 
L 703 3866 
L 703 4441 
L 1819 4666 
L 2450 4666 
L 2450 531 
L 3481 531 
L 3481 0 
L 794 0 
L 794 531 
z
" id="DejaVuSans-31" transform="scale(0.015625)"/>
       </defs>
       <use xlink:href="#DejaVuSans-31"/>
       <use x="63.623047" xlink:href="#DejaVuSans-30"/>
       <use x="127.246094" xlink:href="#DejaVuSans-30"/>
       <use x="190.869141" xlink:href="#DejaVuSans-30"/>
       <use x="254.492188" xlink:href="#DejaVuSans-30"/>
      </g>
     </g>
    </g>
    <g id="xtick_7">
     <g id="line2d_13">
      <path clip-path="url(#p789f08d900)" d="M 385.822935 229.645912 
L 385.822935 7.264094 
" style="fill:none;stroke:#b0b0b0;stroke-linecap:square;stroke-width:0.8;"/>
     </g>
     <g id="line2d_14">
      <g>
       <use style="stroke:#000000;stroke-width:0.8;" x="385.822935" xlink:href="#mcfe0366dfa" y="229.645912"/>
      </g>
     </g>
     <g id="text_7">
      <!-- 12000 -->
      <g transform="translate(369.916685 244.244349)scale(0.1 -0.1)">
       <use xlink:href="#DejaVuSans-31"/>
       <use x="63.623047" xlink:href="#DejaVuSans-32"/>
       <use x="127.246094" xlink:href="#DejaVuSans-30"/>
       <use x="190.869141" xlink:href="#DejaVuSans-30"/>
       <use x="254.492188" xlink:href="#DejaVuSans-30"/>
      </g>
     </g>
    </g>
    <g id="xtick_8">
     <g id="line2d_15">
      <path clip-path="url(#p789f08d900)" d="M 436.043535 229.645912 
L 436.043535 7.264094 
" style="fill:none;stroke:#b0b0b0;stroke-linecap:square;stroke-width:0.8;"/>
     </g>
     <g id="line2d_16">
      <g>
       <use style="stroke:#000000;stroke-width:0.8;" x="436.043535" xlink:href="#mcfe0366dfa" y="229.645912"/>
      </g>
     </g>
     <g id="text_8">
      <!-- 14000 -->
      <g transform="translate(420.137285 244.244349)scale(0.1 -0.1)">
       <use xlink:href="#DejaVuSans-31"/>
       <use x="63.623047" xlink:href="#DejaVuSans-34"/>
       <use x="127.246094" xlink:href="#DejaVuSans-30"/>
       <use x="190.869141" xlink:href="#DejaVuSans-30"/>
       <use x="254.492188" xlink:href="#DejaVuSans-30"/>
      </g>
     </g>
    </g>
    <g id="text_9">
     <!-- Horizontal distance [m] -->
     <g transform="translate(210.29581 257.922474)scale(0.1 -0.1)">
      <defs>
       <path d="M 628 4666 
L 1259 4666 
L 1259 2753 
L 3553 2753 
L 3553 4666 
L 4184 4666 
L 4184 0 
L 3553 0 
L 3553 2222 
L 1259 2222 
L 1259 0 
L 628 0 
L 628 4666 
z
" id="DejaVuSans-48" transform="scale(0.015625)"/>
       <path d="M 1959 3097 
Q 1497 3097 1228 2736 
Q 959 2375 959 1747 
Q 959 1119 1226 758 
Q 1494 397 1959 397 
Q 2419 397 2687 759 
Q 2956 1122 2956 1747 
Q 2956 2369 2687 2733 
Q 2419 3097 1959 3097 
z
M 1959 3584 
Q 2709 3584 3137 3096 
Q 3566 2609 3566 1747 
Q 3566 888 3137 398 
Q 2709 -91 1959 -91 
Q 1206 -91 779 398 
Q 353 888 353 1747 
Q 353 2609 779 3096 
Q 1206 3584 1959 3584 
z
" id="DejaVuSans-6f" transform="scale(0.015625)"/>
       <path d="M 2631 2963 
Q 2534 3019 2420 3045 
Q 2306 3072 2169 3072 
Q 1681 3072 1420 2755 
Q 1159 2438 1159 1844 
L 1159 0 
L 581 0 
L 581 3500 
L 1159 3500 
L 1159 2956 
Q 1341 3275 1631 3429 
Q 1922 3584 2338 3584 
Q 2397 3584 2469 3576 
Q 2541 3569 2628 3553 
L 2631 2963 
z
" id="DejaVuSans-72" transform="scale(0.015625)"/>
       <path d="M 603 3500 
L 1178 3500 
L 1178 0 
L 603 0 
L 603 3500 
z
M 603 4863 
L 1178 4863 
L 1178 4134 
L 603 4134 
L 603 4863 
z
" id="DejaVuSans-69" transform="scale(0.015625)"/>
       <path d="M 353 3500 
L 3084 3500 
L 3084 2975 
L 922 459 
L 3084 459 
L 3084 0 
L 275 0 
L 275 525 
L 2438 3041 
L 353 3041 
L 353 3500 
z
" id="DejaVuSans-7a" transform="scale(0.015625)"/>
       <path d="M 3513 2113 
L 3513 0 
L 2938 0 
L 2938 2094 
Q 2938 2591 2744 2837 
Q 2550 3084 2163 3084 
Q 1697 3084 1428 2787 
Q 1159 2491 1159 1978 
L 1159 0 
L 581 0 
L 581 3500 
L 1159 3500 
L 1159 2956 
Q 1366 3272 1645 3428 
Q 1925 3584 2291 3584 
Q 2894 3584 3203 3211 
Q 3513 2838 3513 2113 
z
" id="DejaVuSans-6e" transform="scale(0.015625)"/>
       <path d="M 1172 4494 
L 1172 3500 
L 2356 3500 
L 2356 3053 
L 1172 3053 
L 1172 1153 
Q 1172 725 1289 603 
Q 1406 481 1766 481 
L 2356 481 
L 2356 0 
L 1766 0 
Q 1100 0 847 248 
Q 594 497 594 1153 
L 594 3053 
L 172 3053 
L 172 3500 
L 594 3500 
L 594 4494 
L 1172 4494 
z
" id="DejaVuSans-74" transform="scale(0.015625)"/>
       <path d="M 2194 1759 
Q 1497 1759 1228 1600 
Q 959 1441 959 1056 
Q 959 750 1161 570 
Q 1363 391 1709 391 
Q 2188 391 2477 730 
Q 2766 1069 2766 1631 
L 2766 1759 
L 2194 1759 
z
M 3341 1997 
L 3341 0 
L 2766 0 
L 2766 531 
Q 2569 213 2275 61 
Q 1981 -91 1556 -91 
Q 1019 -91 701 211 
Q 384 513 384 1019 
Q 384 1609 779 1909 
Q 1175 2209 1959 2209 
L 2766 2209 
L 2766 2266 
Q 2766 2663 2505 2880 
Q 2244 3097 1772 3097 
Q 1472 3097 1187 3025 
Q 903 2953 641 2809 
L 641 3341 
Q 956 3463 1253 3523 
Q 1550 3584 1831 3584 
Q 2591 3584 2966 3190 
Q 3341 2797 3341 1997 
z
" id="DejaVuSans-61" transform="scale(0.015625)"/>
       <path d="M 603 4863 
L 1178 4863 
L 1178 0 
L 603 0 
L 603 4863 
z
" id="DejaVuSans-6c" transform="scale(0.015625)"/>
       <path id="DejaVuSans-20" transform="scale(0.015625)"/>
       <path d="M 2906 2969 
L 2906 4863 
L 3481 4863 
L 3481 0 
L 2906 0 
L 2906 525 
Q 2725 213 2448 61 
Q 2172 -91 1784 -91 
Q 1150 -91 751 415 
Q 353 922 353 1747 
Q 353 2572 751 3078 
Q 1150 3584 1784 3584 
Q 2172 3584 2448 3432 
Q 2725 3281 2906 2969 
z
M 947 1747 
Q 947 1113 1208 752 
Q 1469 391 1925 391 
Q 2381 391 2643 752 
Q 2906 1113 2906 1747 
Q 2906 2381 2643 2742 
Q 2381 3103 1925 3103 
Q 1469 3103 1208 2742 
Q 947 2381 947 1747 
z
" id="DejaVuSans-64" transform="scale(0.015625)"/>
       <path d="M 2834 3397 
L 2834 2853 
Q 2591 2978 2328 3040 
Q 2066 3103 1784 3103 
Q 1356 3103 1142 2972 
Q 928 2841 928 2578 
Q 928 2378 1081 2264 
Q 1234 2150 1697 2047 
L 1894 2003 
Q 2506 1872 2764 1633 
Q 3022 1394 3022 966 
Q 3022 478 2636 193 
Q 2250 -91 1575 -91 
Q 1294 -91 989 -36 
Q 684 19 347 128 
L 347 722 
Q 666 556 975 473 
Q 1284 391 1588 391 
Q 1994 391 2212 530 
Q 2431 669 2431 922 
Q 2431 1156 2273 1281 
Q 2116 1406 1581 1522 
L 1381 1569 
Q 847 1681 609 1914 
Q 372 2147 372 2553 
Q 372 3047 722 3315 
Q 1072 3584 1716 3584 
Q 2034 3584 2315 3537 
Q 2597 3491 2834 3397 
z
" id="DejaVuSans-73" transform="scale(0.015625)"/>
       <path d="M 3122 3366 
L 3122 2828 
Q 2878 2963 2633 3030 
Q 2388 3097 2138 3097 
Q 1578 3097 1268 2742 
Q 959 2388 959 1747 
Q 959 1106 1268 751 
Q 1578 397 2138 397 
Q 2388 397 2633 464 
Q 2878 531 3122 666 
L 3122 134 
Q 2881 22 2623 -34 
Q 2366 -91 2075 -91 
Q 1284 -91 818 406 
Q 353 903 353 1747 
Q 353 2603 823 3093 
Q 1294 3584 2113 3584 
Q 2378 3584 2631 3529 
Q 2884 3475 3122 3366 
z
" id="DejaVuSans-63" transform="scale(0.015625)"/>
       <path d="M 3597 1894 
L 3597 1613 
L 953 1613 
Q 991 1019 1311 708 
Q 1631 397 2203 397 
Q 2534 397 2845 478 
Q 3156 559 3463 722 
L 3463 178 
Q 3153 47 2828 -22 
Q 2503 -91 2169 -91 
Q 1331 -91 842 396 
Q 353 884 353 1716 
Q 353 2575 817 3079 
Q 1281 3584 2069 3584 
Q 2775 3584 3186 3129 
Q 3597 2675 3597 1894 
z
M 3022 2063 
Q 3016 2534 2758 2815 
Q 2500 3097 2075 3097 
Q 1594 3097 1305 2825 
Q 1016 2553 972 2059 
L 3022 2063 
z
" id="DejaVuSans-65" transform="scale(0.015625)"/>
       <path d="M 550 4863 
L 1875 4863 
L 1875 4416 
L 1125 4416 
L 1125 -397 
L 1875 -397 
L 1875 -844 
L 550 -844 
L 550 4863 
z
" id="DejaVuSans-5b" transform="scale(0.015625)"/>
       <path d="M 3328 2828 
Q 3544 3216 3844 3400 
Q 4144 3584 4550 3584 
Q 5097 3584 5394 3201 
Q 5691 2819 5691 2113 
L 5691 0 
L 5113 0 
L 5113 2094 
Q 5113 2597 4934 2840 
Q 4756 3084 4391 3084 
Q 3944 3084 3684 2787 
Q 3425 2491 3425 1978 
L 3425 0 
L 2847 0 
L 2847 2094 
Q 2847 2600 2669 2842 
Q 2491 3084 2119 3084 
Q 1678 3084 1418 2786 
Q 1159 2488 1159 1978 
L 1159 0 
L 581 0 
L 581 3500 
L 1159 3500 
L 1159 2956 
Q 1356 3278 1631 3431 
Q 1906 3584 2284 3584 
Q 2666 3584 2933 3390 
Q 3200 3197 3328 2828 
z
" id="DejaVuSans-6d" transform="scale(0.015625)"/>
       <path d="M 1947 4863 
L 1947 -844 
L 622 -844 
L 622 -397 
L 1369 -397 
L 1369 4416 
L 622 4416 
L 622 4863 
L 1947 4863 
z
" id="DejaVuSans-5d" transform="scale(0.015625)"/>
      </defs>
      <use xlink:href="#DejaVuSans-48"/>
      <use x="75.195312" xlink:href="#DejaVuSans-6f"/>
      <use x="136.376953" xlink:href="#DejaVuSans-72"/>
      <use x="177.490234" xlink:href="#DejaVuSans-69"/>
      <use x="205.273438" xlink:href="#DejaVuSans-7a"/>
      <use x="257.763672" xlink:href="#DejaVuSans-6f"/>
      <use x="318.945312" xlink:href="#DejaVuSans-6e"/>
      <use x="382.324219" xlink:href="#DejaVuSans-74"/>
      <use x="421.533203" xlink:href="#DejaVuSans-61"/>
      <use x="482.8125" xlink:href="#DejaVuSans-6c"/>
      <use x="510.595703" xlink:href="#DejaVuSans-20"/>
      <use x="542.382812" xlink:href="#DejaVuSans-64"/>
      <use x="605.859375" xlink:href="#DejaVuSans-69"/>
      <use x="633.642578" xlink:href="#DejaVuSans-73"/>
      <use x="685.742188" xlink:href="#DejaVuSans-74"/>
      <use x="724.951172" xlink:href="#DejaVuSans-61"/>
      <use x="786.230469" xlink:href="#DejaVuSans-6e"/>
      <use x="849.609375" xlink:href="#DejaVuSans-63"/>
      <use x="904.589844" xlink:href="#DejaVuSans-65"/>
      <use x="966.113281" xlink:href="#DejaVuSans-20"/>
      <use x="997.900391" xlink:href="#DejaVuSans-5b"/>
      <use x="1036.914062" xlink:href="#DejaVuSans-6d"/>
      <use x="1134.326172" xlink:href="#DejaVuSans-5d"/>
     </g>
    </g>
   </g>
   <g id="matplotlib.axis_2">
    <g id="ytick_1">
     <g id="line2d_17">
      <path clip-path="url(#p789f08d900)" d="M 66.053125 219.541396 
L 471.871307 219.541396 
" style="fill:none;stroke:#b0b0b0;stroke-linecap:square;stroke-width:0.8;"/>
     </g>
     <g id="line2d_18">
      <defs>
       <path d="M 0 0 
L -3.5 0 
" id="m5bd612d397" style="stroke:#000000;stroke-width:0.8;"/>
      </defs>
      <g>
       <use style="stroke:#000000;stroke-width:0.8;" x="66.053125" xlink:href="#m5bd612d397" y="219.541396"/>
      </g>
     </g>
     <g id="text_10">
      <!-- 0 -->
      <g transform="translate(52.690625 223.340615)scale(0.1 -0.1)">
       <use xlink:href="#DejaVuSans-30"/>
      </g>
     </g>
    </g>
    <g id="ytick_2">
     <g id="line2d_19">
      <path clip-path="url(#p789f08d900)" d="M 66.053125 189.749656 
L 471.871307 189.749656 
" style="fill:none;stroke:#b0b0b0;stroke-linecap:square;stroke-width:0.8;"/>
     </g>
     <g id="line2d_20">
      <g>
       <use style="stroke:#000000;stroke-width:0.8;" x="66.053125" xlink:href="#m5bd612d397" y="189.749656"/>
      </g>
     </g>
     <g id="text_11">
      <!-- 25000 -->
      <g transform="translate(27.240625 193.548875)scale(0.1 -0.1)">
       <defs>
        <path d="M 691 4666 
L 3169 4666 
L 3169 4134 
L 1269 4134 
L 1269 2991 
Q 1406 3038 1543 3061 
Q 1681 3084 1819 3084 
Q 2600 3084 3056 2656 
Q 3513 2228 3513 1497 
Q 3513 744 3044 326 
Q 2575 -91 1722 -91 
Q 1428 -91 1123 -41 
Q 819 9 494 109 
L 494 744 
Q 775 591 1075 516 
Q 1375 441 1709 441 
Q 2250 441 2565 725 
Q 2881 1009 2881 1497 
Q 2881 1984 2565 2268 
Q 2250 2553 1709 2553 
Q 1456 2553 1204 2497 
Q 953 2441 691 2322 
L 691 4666 
z
" id="DejaVuSans-35" transform="scale(0.015625)"/>
       </defs>
       <use xlink:href="#DejaVuSans-32"/>
       <use x="63.623047" xlink:href="#DejaVuSans-35"/>
       <use x="127.246094" xlink:href="#DejaVuSans-30"/>
       <use x="190.869141" xlink:href="#DejaVuSans-30"/>
       <use x="254.492188" xlink:href="#DejaVuSans-30"/>
      </g>
     </g>
    </g>
    <g id="ytick_3">
     <g id="line2d_21">
      <path clip-path="url(#p789f08d900)" d="M 66.053125 159.957917 
L 471.871307 159.957917 
" style="fill:none;stroke:#b0b0b0;stroke-linecap:square;stroke-width:0.8;"/>
     </g>
     <g id="line2d_22">
      <g>
       <use style="stroke:#000000;stroke-width:0.8;" x="66.053125" xlink:href="#m5bd612d397" y="159.957917"/>
      </g>
     </g>
     <g id="text_12">
      <!-- 50000 -->
      <g transform="translate(27.240625 163.757135)scale(0.1 -0.1)">
       <use xlink:href="#DejaVuSans-35"/>
       <use x="63.623047" xlink:href="#DejaVuSans-30"/>
       <use x="127.246094" xlink:href="#DejaVuSans-30"/>
       <use x="190.869141" xlink:href="#DejaVuSans-30"/>
       <use x="254.492188" xlink:href="#DejaVuSans-30"/>
      </g>
     </g>
    </g>
    <g id="ytick_4">
     <g id="line2d_23">
      <path clip-path="url(#p789f08d900)" d="M 66.053125 130.166177 
L 471.871307 130.166177 
" style="fill:none;stroke:#b0b0b0;stroke-linecap:square;stroke-width:0.8;"/>
     </g>
     <g id="line2d_24">
      <g>
       <use style="stroke:#000000;stroke-width:0.8;" x="66.053125" xlink:href="#m5bd612d397" y="130.166177"/>
      </g>
     </g>
     <g id="text_13">
      <!-- 75000 -->
      <g transform="translate(27.240625 133.965396)scale(0.1 -0.1)">
       <defs>
        <path d="M 525 4666 
L 3525 4666 
L 3525 4397 
L 1831 0 
L 1172 0 
L 2766 4134 
L 525 4134 
L 525 4666 
z
" id="DejaVuSans-37" transform="scale(0.015625)"/>
       </defs>
       <use xlink:href="#DejaVuSans-37"/>
       <use x="63.623047" xlink:href="#DejaVuSans-35"/>
       <use x="127.246094" xlink:href="#DejaVuSans-30"/>
       <use x="190.869141" xlink:href="#DejaVuSans-30"/>
       <use x="254.492188" xlink:href="#DejaVuSans-30"/>
      </g>
     </g>
    </g>
    <g id="ytick_5">
     <g id="line2d_25">
      <path clip-path="url(#p789f08d900)" d="M 66.053125 100.374438 
L 471.871307 100.374438 
" style="fill:none;stroke:#b0b0b0;stroke-linecap:square;stroke-width:0.8;"/>
     </g>
     <g id="line2d_26">
      <g>
       <use style="stroke:#000000;stroke-width:0.8;" x="66.053125" xlink:href="#m5bd612d397" y="100.374438"/>
      </g>
     </g>
     <g id="text_14">
      <!-- 100000 -->
      <g transform="translate(20.878125 104.173656)scale(0.1 -0.1)">
       <use xlink:href="#DejaVuSans-31"/>
       <use x="63.623047" xlink:href="#DejaVuSans-30"/>
       <use x="127.246094" xlink:href="#DejaVuSans-30"/>
       <use x="190.869141" xlink:href="#DejaVuSans-30"/>
       <use x="254.492188" xlink:href="#DejaVuSans-30"/>
       <use x="318.115234" xlink:href="#DejaVuSans-30"/>
      </g>
     </g>
    </g>
    <g id="ytick_6">
     <g id="line2d_27">
      <path clip-path="url(#p789f08d900)" d="M 66.053125 70.582698 
L 471.871307 70.582698 
" style="fill:none;stroke:#b0b0b0;stroke-linecap:square;stroke-width:0.8;"/>
     </g>
     <g id="line2d_28">
      <g>
       <use style="stroke:#000000;stroke-width:0.8;" x="66.053125" xlink:href="#m5bd612d397" y="70.582698"/>
      </g>
     </g>
     <g id="text_15">
      <!-- 125000 -->
      <g transform="translate(20.878125 74.381917)scale(0.1 -0.1)">
       <use xlink:href="#DejaVuSans-31"/>
       <use x="63.623047" xlink:href="#DejaVuSans-32"/>
       <use x="127.246094" xlink:href="#DejaVuSans-35"/>
       <use x="190.869141" xlink:href="#DejaVuSans-30"/>
       <use x="254.492188" xlink:href="#DejaVuSans-30"/>
       <use x="318.115234" xlink:href="#DejaVuSans-30"/>
      </g>
     </g>
    </g>
    <g id="ytick_7">
     <g id="line2d_29">
      <path clip-path="url(#p789f08d900)" d="M 66.053125 40.790958 
L 471.871307 40.790958 
" style="fill:none;stroke:#b0b0b0;stroke-linecap:square;stroke-width:0.8;"/>
     </g>
     <g id="line2d_30">
      <g>
       <use style="stroke:#000000;stroke-width:0.8;" x="66.053125" xlink:href="#m5bd612d397" y="40.790958"/>
      </g>
     </g>
     <g id="text_16">
      <!-- 150000 -->
      <g transform="translate(20.878125 44.590177)scale(0.1 -0.1)">
       <use xlink:href="#DejaVuSans-31"/>
       <use x="63.623047" xlink:href="#DejaVuSans-35"/>
       <use x="127.246094" xlink:href="#DejaVuSans-30"/>
       <use x="190.869141" xlink:href="#DejaVuSans-30"/>
       <use x="254.492188" xlink:href="#DejaVuSans-30"/>
       <use x="318.115234" xlink:href="#DejaVuSans-30"/>
      </g>
     </g>
    </g>
    <g id="ytick_8">
     <g id="line2d_31">
      <path clip-path="url(#p789f08d900)" d="M 66.053125 10.999219 
L 471.871307 10.999219 
" style="fill:none;stroke:#b0b0b0;stroke-linecap:square;stroke-width:0.8;"/>
     </g>
     <g id="line2d_32">
      <g>
       <use style="stroke:#000000;stroke-width:0.8;" x="66.053125" xlink:href="#m5bd612d397" y="10.999219"/>
      </g>
     </g>
     <g id="text_17">
      <!-- 175000 -->
      <g transform="translate(20.878125 14.798437)scale(0.1 -0.1)">
       <use xlink:href="#DejaVuSans-31"/>
       <use x="63.623047" xlink:href="#DejaVuSans-37"/>
       <use x="127.246094" xlink:href="#DejaVuSans-35"/>
       <use x="190.869141" xlink:href="#DejaVuSans-30"/>
       <use x="254.492188" xlink:href="#DejaVuSans-30"/>
       <use x="318.115234" xlink:href="#DejaVuSans-30"/>
      </g>
     </g>
    </g>
    <g id="text_18">
     <!-- Vertical distance [m] -->
     <g transform="translate(14.798438 170.308128)rotate(-90)scale(0.1 -0.1)">
      <defs>
       <path d="M 1831 0 
L 50 4666 
L 709 4666 
L 2188 738 
L 3669 4666 
L 4325 4666 
L 2547 0 
L 1831 0 
z
" id="DejaVuSans-56" transform="scale(0.015625)"/>
      </defs>
      <use xlink:href="#DejaVuSans-56"/>
      <use x="60.658203" xlink:href="#DejaVuSans-65"/>
      <use x="122.181641" xlink:href="#DejaVuSans-72"/>
      <use x="163.294922" xlink:href="#DejaVuSans-74"/>
      <use x="202.503906" xlink:href="#DejaVuSans-69"/>
      <use x="230.287109" xlink:href="#DejaVuSans-63"/>
      <use x="285.267578" xlink:href="#DejaVuSans-61"/>
      <use x="346.546875" xlink:href="#DejaVuSans-6c"/>
      <use x="374.330078" xlink:href="#DejaVuSans-20"/>
      <use x="406.117188" xlink:href="#DejaVuSans-64"/>
      <use x="469.59375" xlink:href="#DejaVuSans-69"/>
      <use x="497.376953" xlink:href="#DejaVuSans-73"/>
      <use x="549.476562" xlink:href="#DejaVuSans-74"/>
      <use x="588.685547" xlink:href="#DejaVuSans-61"/>
      <use x="649.964844" xlink:href="#DejaVuSans-6e"/>
      <use x="713.34375" xlink:href="#DejaVuSans-63"/>
      <use x="768.324219" xlink:href="#DejaVuSans-65"/>
      <use x="829.847656" xlink:href="#DejaVuSans-20"/>
      <use x="861.634766" xlink:href="#DejaVuSans-5b"/>
      <use x="900.648438" xlink:href="#DejaVuSans-6d"/>
      <use x="998.060547" xlink:href="#DejaVuSans-5d"/>
     </g>
    </g>
   </g>
   <g id="line2d_33">
    <path clip-path="url(#p789f08d900)" d="M 84.499406 219.537647 
L 84.622437 219.136267 
L 85.12913 218.26647 
L 86.158487 216.963821 
L 87.802548 215.25598 
L 90.180772 213.120703 
L 93.384063 210.558865 
L 97.492199 207.572112 
L 102.575127 204.162875 
L 108.693863 200.334379 
L 115.901134 196.090662 
L 124.474047 191.310244 
L 134.294755 186.096634 
L 145.402373 180.454602 
L 158.188749 174.217586 
L 172.418554 167.53061 
L 188.121713 160.398555 
L 205.843859 152.600911 
L 225.20669 144.330149 
L 246.236801 135.590032 
L 269.683305 126.093932 
L 294.99687 116.088484 
L 322.211328 105.573688 
L 351.360392 94.548906 
L 382.479003 83.012524 
L 416.805108 70.528988 
L 453.425026 57.454793 
L 453.425026 57.454793 
" style="fill:none;stroke:#1f77b4;stroke-linecap:square;stroke-width:1.5;"/>
   </g>
   <g id="line2d_34">
    <path clip-path="url(#p789f08d900)" d="M 84.499406 219.537647 
L 84.623904 219.132642 
L 85.144524 218.228501 
L 86.27248 216.747138 
L 88.246536 214.547523 
L 91.362821 211.425944 
L 96.104951 207.011754 
L 102.960456 200.956164 
L 112.494913 192.849777 
L 125.37737 182.204657 
L 142.419172 168.426566 
L 164.313698 151.024095 
L 191.764789 129.497596 
L 225.966175 102.969554 
L 267.419024 71.105876 
L 317.08299 33.217949 
L 337.947341 17.372358 
L 337.947341 17.372358 
" style="fill:none;stroke:#ff7f0e;stroke-linecap:square;stroke-width:1.5;"/>
   </g>
   <g id="line2d_35">
    <path clip-path="url(#p789f08d900)" d="M 84.499406 219.537647 
L 84.622323 219.136467 
L 85.127696 218.268337 
L 86.151625 216.971176 
L 87.781725 215.275425 
L 90.1319 213.161869 
L 93.28805 210.633693 
L 97.326924 207.693681 
L 102.318432 204.34402 
L 108.326732 200.586444 
L 115.410273 196.422644 
L 123.621147 191.854796 
L 133.270939 186.748032 
L 144.212852 181.215212 
L 156.484932 175.260211 
L 170.521282 168.702744 
L 186.045877 161.700034 
L 203.084715 154.257337 
L 222.236023 146.138963 
L 243.068903 137.552057 
L 265.605874 128.500946 
L 290.664596 118.680713 
L 317.631408 108.35491 
L 346.538222 97.523613 
L 377.417623 86.186072 
L 411.496076 73.915123 
L 447.863332 61.062405 
L 453.168263 59.206539 
L 453.168263 59.206539 
" style="fill:none;stroke:#2ca02c;stroke-linecap:square;stroke-width:1.5;"/>
   </g>
   <g id="line2d_36">
    <path clip-path="url(#p789f08d900)" d="M 84.499406 219.537647 
L 84.623789 219.132845 
L 85.15893 218.206873 
L 86.29487 216.719786 
L 88.269128 214.523075 
L 91.436915 211.354219 
L 96.154748 206.968331 
L 102.948008 200.974594 
L 112.383342 192.964122 
L 124.937465 182.608641 
L 141.547916 169.206669 
L 162.90177 152.27325 
L 190.068533 131.025489 
L 223.521946 105.151031 
L 264.602561 73.667685 
L 313.880823 36.191851 
L 336.082631 19.386093 
L 336.082631 19.386093 
" style="fill:none;stroke:#d62728;stroke-linecap:square;stroke-width:1.5;"/>
   </g>
   <g id="patch_3">
    <path d="M 66.053125 229.645912 
L 66.053125 7.264094 
" style="fill:none;stroke:#000000;stroke-linecap:square;stroke-linejoin:miter;stroke-width:0.8;"/>
   </g>
   <g id="patch_4">
    <path d="M 471.871307 229.645912 
L 471.871307 7.264094 
" style="fill:none;stroke:#000000;stroke-linecap:square;stroke-linejoin:miter;stroke-width:0.8;"/>
   </g>
   <g id="patch_5">
    <path d="M 66.053125 229.645912 
L 471.871307 229.645912 
" style="fill:none;stroke:#000000;stroke-linecap:square;stroke-linejoin:miter;stroke-width:0.8;"/>
   </g>
   <g id="patch_6">
    <path d="M 66.053125 7.264094 
L 471.871307 7.264094 
" style="fill:none;stroke:#000000;stroke-linecap:square;stroke-linejoin:miter;stroke-width:0.8;"/>
   </g>
   <g id="legend_1">
    <g id="patch_7">
     <path d="M 73.053125 73.976594 
L 119.204688 73.976594 
Q 121.204688 73.976594 121.204688 71.976594 
L 121.204688 14.264094 
Q 121.204688 12.264094 119.204688 12.264094 
L 73.053125 12.264094 
Q 71.053125 12.264094 71.053125 14.264094 
L 71.053125 71.976594 
Q 71.053125 73.976594 73.053125 73.976594 
z
" style="fill:#ffffff;opacity:0.8;stroke:#cccccc;stroke-linejoin:miter;"/>
    </g>
    <g id="line2d_37">
     <path d="M 75.053125 20.362531 
L 95.053125 20.362531 
" style="fill:none;stroke:#1f77b4;stroke-linecap:square;stroke-width:1.5;"/>
    </g>
    <g id="line2d_38"/>
    <g id="text_19">
     <!-- (a) -->
     <g transform="translate(103.053125 23.862531)scale(0.1 -0.1)">
      <defs>
       <path d="M 1984 4856 
Q 1566 4138 1362 3434 
Q 1159 2731 1159 2009 
Q 1159 1288 1364 580 
Q 1569 -128 1984 -844 
L 1484 -844 
Q 1016 -109 783 600 
Q 550 1309 550 2009 
Q 550 2706 781 3412 
Q 1013 4119 1484 4856 
L 1984 4856 
z
" id="DejaVuSans-28" transform="scale(0.015625)"/>
       <path d="M 513 4856 
L 1013 4856 
Q 1481 4119 1714 3412 
Q 1947 2706 1947 2009 
Q 1947 1309 1714 600 
Q 1481 -109 1013 -844 
L 513 -844 
Q 928 -128 1133 580 
Q 1338 1288 1338 2009 
Q 1338 2731 1133 3434 
Q 928 4138 513 4856 
z
" id="DejaVuSans-29" transform="scale(0.015625)"/>
      </defs>
      <use xlink:href="#DejaVuSans-28"/>
      <use x="39.013672" xlink:href="#DejaVuSans-61"/>
      <use x="100.292969" xlink:href="#DejaVuSans-29"/>
     </g>
    </g>
    <g id="line2d_39">
     <path d="M 75.053125 35.040656 
L 95.053125 35.040656 
" style="fill:none;stroke:#ff7f0e;stroke-linecap:square;stroke-width:1.5;"/>
    </g>
    <g id="line2d_40"/>
    <g id="text_20">
     <!-- (b) -->
     <g transform="translate(103.053125 38.540656)scale(0.1 -0.1)">
      <defs>
       <path d="M 3116 1747 
Q 3116 2381 2855 2742 
Q 2594 3103 2138 3103 
Q 1681 3103 1420 2742 
Q 1159 2381 1159 1747 
Q 1159 1113 1420 752 
Q 1681 391 2138 391 
Q 2594 391 2855 752 
Q 3116 1113 3116 1747 
z
M 1159 2969 
Q 1341 3281 1617 3432 
Q 1894 3584 2278 3584 
Q 2916 3584 3314 3078 
Q 3713 2572 3713 1747 
Q 3713 922 3314 415 
Q 2916 -91 2278 -91 
Q 1894 -91 1617 61 
Q 1341 213 1159 525 
L 1159 0 
L 581 0 
L 581 4863 
L 1159 4863 
L 1159 2969 
z
" id="DejaVuSans-62" transform="scale(0.015625)"/>
      </defs>
      <use xlink:href="#DejaVuSans-28"/>
      <use x="39.013672" xlink:href="#DejaVuSans-62"/>
      <use x="102.490234" xlink:href="#DejaVuSans-29"/>
     </g>
    </g>
    <g id="line2d_41">
     <path d="M 75.053125 49.718781 
L 95.053125 49.718781 
" style="fill:none;stroke:#2ca02c;stroke-linecap:square;stroke-width:1.5;"/>
    </g>
    <g id="line2d_42"/>
    <g id="text_21">
     <!-- (c) -->
     <g transform="translate(103.053125 53.218781)scale(0.1 -0.1)">
      <use xlink:href="#DejaVuSans-28"/>
      <use x="39.013672" xlink:href="#DejaVuSans-63"/>
      <use x="93.994141" xlink:href="#DejaVuSans-29"/>
     </g>
    </g>
    <g id="line2d_43">
     <path d="M 75.053125 64.396906 
L 95.053125 64.396906 
" style="fill:none;stroke:#d62728;stroke-linecap:square;stroke-width:1.5;"/>
    </g>
    <g id="line2d_44"/>
    <g id="text_22">
     <!-- (d) -->
     <g transform="translate(103.053125 67.896906)scale(0.1 -0.1)">
      <use xlink:href="#DejaVuSans-28"/>
      <use x="39.013672" xlink:href="#DejaVuSans-64"/>
      <use x="102.490234" xlink:href="#DejaVuSans-29"/>
     </g>
    </g>
   </g>
  </g>
  <g id="axes_2">
   <g id="patch_8">
    <path d="M 553.034943 229.645912 
L 958.853125 229.645912 
L 958.853125 7.264094 
L 553.034943 7.264094 
z
" style="fill:#ffffff;"/>
   </g>
   <g id="matplotlib.axis_3">
    <g id="xtick_9">
     <g id="line2d_45">
      <path clip-path="url(#p8413aad6e6)" d="M 571.112299 229.645912 
L 571.112299 7.264094 
" style="fill:none;stroke:#b0b0b0;stroke-linecap:square;stroke-width:0.8;"/>
     </g>
     <g id="line2d_46">
      <g>
       <use style="stroke:#000000;stroke-width:0.8;" x="571.112299" xlink:href="#mcfe0366dfa" y="229.645912"/>
      </g>
     </g>
     <g id="text_23">
      <!-- 0 -->
      <g transform="translate(567.931049 244.244349)scale(0.1 -0.1)">
       <use xlink:href="#DejaVuSans-30"/>
      </g>
     </g>
    </g>
    <g id="xtick_10">
     <g id="line2d_47">
      <path clip-path="url(#p8413aad6e6)" d="M 644.897423 229.645912 
L 644.897423 7.264094 
" style="fill:none;stroke:#b0b0b0;stroke-linecap:square;stroke-width:0.8;"/>
     </g>
     <g id="line2d_48">
      <g>
       <use style="stroke:#000000;stroke-width:0.8;" x="644.897423" xlink:href="#mcfe0366dfa" y="229.645912"/>
      </g>
     </g>
     <g id="text_24">
      <!-- 20 -->
      <g transform="translate(638.534923 244.244349)scale(0.1 -0.1)">
       <use xlink:href="#DejaVuSans-32"/>
       <use x="63.623047" xlink:href="#DejaVuSans-30"/>
      </g>
     </g>
    </g>
    <g id="xtick_11">
     <g id="line2d_49">
      <path clip-path="url(#p8413aad6e6)" d="M 718.682546 229.645912 
L 718.682546 7.264094 
" style="fill:none;stroke:#b0b0b0;stroke-linecap:square;stroke-width:0.8;"/>
     </g>
     <g id="line2d_50">
      <g>
       <use style="stroke:#000000;stroke-width:0.8;" x="718.682546" xlink:href="#mcfe0366dfa" y="229.645912"/>
      </g>
     </g>
     <g id="text_25">
      <!-- 40 -->
      <g transform="translate(712.320046 244.244349)scale(0.1 -0.1)">
       <use xlink:href="#DejaVuSans-34"/>
       <use x="63.623047" xlink:href="#DejaVuSans-30"/>
      </g>
     </g>
    </g>
    <g id="xtick_12">
     <g id="line2d_51">
      <path clip-path="url(#p8413aad6e6)" d="M 792.46767 229.645912 
L 792.46767 7.264094 
" style="fill:none;stroke:#b0b0b0;stroke-linecap:square;stroke-width:0.8;"/>
     </g>
     <g id="line2d_52">
      <g>
       <use style="stroke:#000000;stroke-width:0.8;" x="792.46767" xlink:href="#mcfe0366dfa" y="229.645912"/>
      </g>
     </g>
     <g id="text_26">
      <!-- 60 -->
      <g transform="translate(786.10517 244.244349)scale(0.1 -0.1)">
       <use xlink:href="#DejaVuSans-36"/>
       <use x="63.623047" xlink:href="#DejaVuSans-30"/>
      </g>
     </g>
    </g>
    <g id="xtick_13">
     <g id="line2d_53">
      <path clip-path="url(#p8413aad6e6)" d="M 866.252794 229.645912 
L 866.252794 7.264094 
" style="fill:none;stroke:#b0b0b0;stroke-linecap:square;stroke-width:0.8;"/>
     </g>
     <g id="line2d_54">
      <g>
       <use style="stroke:#000000;stroke-width:0.8;" x="866.252794" xlink:href="#mcfe0366dfa" y="229.645912"/>
      </g>
     </g>
     <g id="text_27">
      <!-- 80 -->
      <g transform="translate(859.890294 244.244349)scale(0.1 -0.1)">
       <use xlink:href="#DejaVuSans-38"/>
       <use x="63.623047" xlink:href="#DejaVuSans-30"/>
      </g>
     </g>
    </g>
    <g id="xtick_14">
     <g id="line2d_55">
      <path clip-path="url(#p8413aad6e6)" d="M 940.037918 229.645912 
L 940.037918 7.264094 
" style="fill:none;stroke:#b0b0b0;stroke-linecap:square;stroke-width:0.8;"/>
     </g>
     <g id="line2d_56">
      <g>
       <use style="stroke:#000000;stroke-width:0.8;" x="940.037918" xlink:href="#mcfe0366dfa" y="229.645912"/>
      </g>
     </g>
     <g id="text_28">
      <!-- 100 -->
      <g transform="translate(930.494168 244.244349)scale(0.1 -0.1)">
       <use xlink:href="#DejaVuSans-31"/>
       <use x="63.623047" xlink:href="#DejaVuSans-30"/>
       <use x="127.246094" xlink:href="#DejaVuSans-30"/>
      </g>
     </g>
    </g>
    <g id="text_29">
     <!-- Time [s] -->
     <g transform="translate(735.615128 257.922474)scale(0.1 -0.1)">
      <defs>
       <path d="M -19 4666 
L 3928 4666 
L 3928 4134 
L 2272 4134 
L 2272 0 
L 1638 0 
L 1638 4134 
L -19 4134 
L -19 4666 
z
" id="DejaVuSans-54" transform="scale(0.015625)"/>
      </defs>
      <use xlink:href="#DejaVuSans-54"/>
      <use x="57.958984" xlink:href="#DejaVuSans-69"/>
      <use x="85.742188" xlink:href="#DejaVuSans-6d"/>
      <use x="183.154297" xlink:href="#DejaVuSans-65"/>
      <use x="244.677734" xlink:href="#DejaVuSans-20"/>
      <use x="276.464844" xlink:href="#DejaVuSans-5b"/>
      <use x="315.478516" xlink:href="#DejaVuSans-73"/>
      <use x="367.578125" xlink:href="#DejaVuSans-5d"/>
     </g>
    </g>
   </g>
   <g id="matplotlib.axis_4">
    <g id="ytick_9">
     <g id="line2d_57">
      <path clip-path="url(#p8413aad6e6)" d="M 553.034943 219.541396 
L 958.853125 219.541396 
" style="fill:none;stroke:#b0b0b0;stroke-linecap:square;stroke-width:0.8;"/>
     </g>
     <g id="line2d_58">
      <g>
       <use style="stroke:#000000;stroke-width:0.8;" x="553.034943" xlink:href="#m5bd612d397" y="219.541396"/>
      </g>
     </g>
     <g id="text_30">
      <!-- 0 -->
      <g transform="translate(539.672443 223.340615)scale(0.1 -0.1)">
       <use xlink:href="#DejaVuSans-30"/>
      </g>
     </g>
    </g>
    <g id="ytick_10">
     <g id="line2d_59">
      <path clip-path="url(#p8413aad6e6)" d="M 553.034943 189.749656 
L 958.853125 189.749656 
" style="fill:none;stroke:#b0b0b0;stroke-linecap:square;stroke-width:0.8;"/>
     </g>
     <g id="line2d_60">
      <g>
       <use style="stroke:#000000;stroke-width:0.8;" x="553.034943" xlink:href="#m5bd612d397" y="189.749656"/>
      </g>
     </g>
     <g id="text_31">
      <!-- 25000 -->
      <g transform="translate(514.222443 193.548875)scale(0.1 -0.1)">
       <use xlink:href="#DejaVuSans-32"/>
       <use x="63.623047" xlink:href="#DejaVuSans-35"/>
       <use x="127.246094" xlink:href="#DejaVuSans-30"/>
       <use x="190.869141" xlink:href="#DejaVuSans-30"/>
       <use x="254.492188" xlink:href="#DejaVuSans-30"/>
      </g>
     </g>
    </g>
    <g id="ytick_11">
     <g id="line2d_61">
      <path clip-path="url(#p8413aad6e6)" d="M 553.034943 159.957917 
L 958.853125 159.957917 
" style="fill:none;stroke:#b0b0b0;stroke-linecap:square;stroke-width:0.8;"/>
     </g>
     <g id="line2d_62">
      <g>
       <use style="stroke:#000000;stroke-width:0.8;" x="553.034943" xlink:href="#m5bd612d397" y="159.957917"/>
      </g>
     </g>
     <g id="text_32">
      <!-- 50000 -->
      <g transform="translate(514.222443 163.757135)scale(0.1 -0.1)">
       <use xlink:href="#DejaVuSans-35"/>
       <use x="63.623047" xlink:href="#DejaVuSans-30"/>
       <use x="127.246094" xlink:href="#DejaVuSans-30"/>
       <use x="190.869141" xlink:href="#DejaVuSans-30"/>
       <use x="254.492188" xlink:href="#DejaVuSans-30"/>
      </g>
     </g>
    </g>
    <g id="ytick_12">
     <g id="line2d_63">
      <path clip-path="url(#p8413aad6e6)" d="M 553.034943 130.166177 
L 958.853125 130.166177 
" style="fill:none;stroke:#b0b0b0;stroke-linecap:square;stroke-width:0.8;"/>
     </g>
     <g id="line2d_64">
      <g>
       <use style="stroke:#000000;stroke-width:0.8;" x="553.034943" xlink:href="#m5bd612d397" y="130.166177"/>
      </g>
     </g>
     <g id="text_33">
      <!-- 75000 -->
      <g transform="translate(514.222443 133.965396)scale(0.1 -0.1)">
       <use xlink:href="#DejaVuSans-37"/>
       <use x="63.623047" xlink:href="#DejaVuSans-35"/>
       <use x="127.246094" xlink:href="#DejaVuSans-30"/>
       <use x="190.869141" xlink:href="#DejaVuSans-30"/>
       <use x="254.492188" xlink:href="#DejaVuSans-30"/>
      </g>
     </g>
    </g>
    <g id="ytick_13">
     <g id="line2d_65">
      <path clip-path="url(#p8413aad6e6)" d="M 553.034943 100.374438 
L 958.853125 100.374438 
" style="fill:none;stroke:#b0b0b0;stroke-linecap:square;stroke-width:0.8;"/>
     </g>
     <g id="line2d_66">
      <g>
       <use style="stroke:#000000;stroke-width:0.8;" x="553.034943" xlink:href="#m5bd612d397" y="100.374438"/>
      </g>
     </g>
     <g id="text_34">
      <!-- 100000 -->
      <g transform="translate(507.859943 104.173656)scale(0.1 -0.1)">
       <use xlink:href="#DejaVuSans-31"/>
       <use x="63.623047" xlink:href="#DejaVuSans-30"/>
       <use x="127.246094" xlink:href="#DejaVuSans-30"/>
       <use x="190.869141" xlink:href="#DejaVuSans-30"/>
       <use x="254.492188" xlink:href="#DejaVuSans-30"/>
       <use x="318.115234" xlink:href="#DejaVuSans-30"/>
      </g>
     </g>
    </g>
    <g id="ytick_14">
     <g id="line2d_67">
      <path clip-path="url(#p8413aad6e6)" d="M 553.034943 70.582698 
L 958.853125 70.582698 
" style="fill:none;stroke:#b0b0b0;stroke-linecap:square;stroke-width:0.8;"/>
     </g>
     <g id="line2d_68">
      <g>
       <use style="stroke:#000000;stroke-width:0.8;" x="553.034943" xlink:href="#m5bd612d397" y="70.582698"/>
      </g>
     </g>
     <g id="text_35">
      <!-- 125000 -->
      <g transform="translate(507.859943 74.381917)scale(0.1 -0.1)">
       <use xlink:href="#DejaVuSans-31"/>
       <use x="63.623047" xlink:href="#DejaVuSans-32"/>
       <use x="127.246094" xlink:href="#DejaVuSans-35"/>
       <use x="190.869141" xlink:href="#DejaVuSans-30"/>
       <use x="254.492188" xlink:href="#DejaVuSans-30"/>
       <use x="318.115234" xlink:href="#DejaVuSans-30"/>
      </g>
     </g>
    </g>
    <g id="ytick_15">
     <g id="line2d_69">
      <path clip-path="url(#p8413aad6e6)" d="M 553.034943 40.790958 
L 958.853125 40.790958 
" style="fill:none;stroke:#b0b0b0;stroke-linecap:square;stroke-width:0.8;"/>
     </g>
     <g id="line2d_70">
      <g>
       <use style="stroke:#000000;stroke-width:0.8;" x="553.034943" xlink:href="#m5bd612d397" y="40.790958"/>
      </g>
     </g>
     <g id="text_36">
      <!-- 150000 -->
      <g transform="translate(507.859943 44.590177)scale(0.1 -0.1)">
       <use xlink:href="#DejaVuSans-31"/>
       <use x="63.623047" xlink:href="#DejaVuSans-35"/>
       <use x="127.246094" xlink:href="#DejaVuSans-30"/>
       <use x="190.869141" xlink:href="#DejaVuSans-30"/>
       <use x="254.492188" xlink:href="#DejaVuSans-30"/>
       <use x="318.115234" xlink:href="#DejaVuSans-30"/>
      </g>
     </g>
    </g>
    <g id="ytick_16">
     <g id="line2d_71">
      <path clip-path="url(#p8413aad6e6)" d="M 553.034943 10.999219 
L 958.853125 10.999219 
" style="fill:none;stroke:#b0b0b0;stroke-linecap:square;stroke-width:0.8;"/>
     </g>
     <g id="line2d_72">
      <g>
       <use style="stroke:#000000;stroke-width:0.8;" x="553.034943" xlink:href="#m5bd612d397" y="10.999219"/>
      </g>
     </g>
     <g id="text_37">
      <!-- 175000 -->
      <g transform="translate(507.859943 14.798437)scale(0.1 -0.1)">
       <use xlink:href="#DejaVuSans-31"/>
       <use x="63.623047" xlink:href="#DejaVuSans-37"/>
       <use x="127.246094" xlink:href="#DejaVuSans-35"/>
       <use x="190.869141" xlink:href="#DejaVuSans-30"/>
       <use x="254.492188" xlink:href="#DejaVuSans-30"/>
       <use x="318.115234" xlink:href="#DejaVuSans-30"/>
      </g>
     </g>
    </g>
    <g id="text_38">
     <!-- Vertical distance [m] -->
     <g transform="translate(501.780256 170.308128)rotate(-90)scale(0.1 -0.1)">
      <use xlink:href="#DejaVuSans-56"/>
      <use x="60.658203" xlink:href="#DejaVuSans-65"/>
      <use x="122.181641" xlink:href="#DejaVuSans-72"/>
      <use x="163.294922" xlink:href="#DejaVuSans-74"/>
      <use x="202.503906" xlink:href="#DejaVuSans-69"/>
      <use x="230.287109" xlink:href="#DejaVuSans-63"/>
      <use x="285.267578" xlink:href="#DejaVuSans-61"/>
      <use x="346.546875" xlink:href="#DejaVuSans-6c"/>
      <use x="374.330078" xlink:href="#DejaVuSans-20"/>
      <use x="406.117188" xlink:href="#DejaVuSans-64"/>
      <use x="469.59375" xlink:href="#DejaVuSans-69"/>
      <use x="497.376953" xlink:href="#DejaVuSans-73"/>
      <use x="549.476562" xlink:href="#DejaVuSans-74"/>
      <use x="588.685547" xlink:href="#DejaVuSans-61"/>
      <use x="649.964844" xlink:href="#DejaVuSans-6e"/>
      <use x="713.34375" xlink:href="#DejaVuSans-63"/>
      <use x="768.324219" xlink:href="#DejaVuSans-65"/>
      <use x="829.847656" xlink:href="#DejaVuSans-20"/>
      <use x="861.634766" xlink:href="#DejaVuSans-5b"/>
      <use x="900.648438" xlink:href="#DejaVuSans-6d"/>
      <use x="998.060547" xlink:href="#DejaVuSans-5d"/>
     </g>
    </g>
   </g>
   <g id="line2d_73">
    <path clip-path="url(#p8413aad6e6)" d="M 571.481224 219.537647 
L 584.393621 219.295194 
L 597.306018 218.829382 
L 609.849489 218.152692 
L 622.024034 217.274534 
L 633.829654 216.204984 
L 645.635274 214.910821 
L 657.071968 213.433046 
L 668.139737 211.783407 
L 679.207505 209.908039 
L 689.906348 207.870944 
L 700.605191 205.603425 
L 710.935108 203.1856 
L 720.8961 200.631995 
L 730.857092 197.850568 
L 740.449158 194.94728 
L 750.041224 191.813481 
L 759.264365 188.573137 
L 768.487505 185.100149 
L 777.710646 181.383931 
L 786.564861 177.577001 
L 795.419075 173.524676 
L 803.904365 169.400214 
L 812.389654 165.028779 
L 820.506018 160.60542 
L 828.622381 155.934144 
L 836.738745 151.002914 
L 844.486183 146.041367 
L 852.233621 140.818794 
L 859.981059 135.321841 
L 867.359571 129.81825 
L 874.738084 124.038866 
L 882.116596 117.968673 
L 889.126183 111.917625 
L 896.13577 105.573688 
L 903.145356 98.919695 
L 909.786018 92.312681 
L 916.426679 85.392335 
L 923.06734 78.138603 
L 929.339075 70.961499 
L 935.610811 63.445647 
L 940.406844 57.454793 
L 940.406844 57.454793 
" style="fill:none;stroke:#1f77b4;stroke-linecap:square;stroke-width:1.5;"/>
   </g>
   <g id="line2d_74">
    <path clip-path="url(#p8413aad6e6)" d="M 571.481224 219.537647 
L 584.393621 219.293971 
L 596.937092 218.83464 
L 608.742712 218.180924 
L 619.81048 217.352607 
L 630.509323 216.334772 
L 640.839241 215.132626 
L 650.800232 213.754636 
L 660.761224 212.148548 
L 670.35329 210.374778 
L 679.576431 208.449122 
L 688.799571 206.298577 
L 698.022712 203.914412 
L 706.876927 201.397832 
L 715.731142 198.650396 
L 724.585356 195.6644 
L 733.070646 192.571681 
L 741.555935 189.245498 
L 750.041224 185.678444 
L 758.526513 181.86279 
L 766.642877 177.972936 
L 774.759241 173.840743 
L 782.875604 169.458323 
L 790.991968 164.817324 
L 798.739406 160.137916 
L 806.486844 155.206602 
L 814.234282 150.014624 
L 821.98172 144.55262 
L 829.729158 138.810556 
L 837.10767 133.071686 
L 844.486183 127.058979 
L 851.864695 120.761623 
L 859.243208 114.167927 
L 866.62172 107.265208 
L 873.631307 100.408832 
L 880.640894 93.248206 
L 887.65048 85.769231 
L 894.660067 77.956444 
L 901.300728 70.231519 
L 907.941389 62.175725 
L 914.582051 53.771362 
L 921.222712 44.998727 
L 927.494447 36.355465 
L 933.766183 27.343188 
L 940.037918 17.938361 
L 940.406844 17.372358 
L 940.406844 17.372358 
" style="fill:none;stroke:#ff7f0e;stroke-linecap:square;stroke-width:1.5;"/>
   </g>
   <g id="line2d_75">
    <path clip-path="url(#p8413aad6e6)" d="M 571.481224 219.537647 
L 584.393621 219.295271 
L 597.306018 218.82998 
L 609.849489 218.154899 
L 622.024034 217.28027 
L 634.19858 216.180336 
L 646.004199 214.889545 
L 657.440894 213.419758 
L 668.877588 211.72493 
L 679.945356 209.861178 
L 691.013125 207.767551 
L 701.711968 205.515054 
L 712.041885 203.116814 
L 722.371803 200.488488 
L 732.332794 197.72552 
L 742.293786 194.727127 
L 751.885852 191.60635 
L 761.108993 188.379104 
L 770.332133 184.919123 
L 779.555274 181.215212 
L 788.409489 177.418921 
L 797.263704 173.375629 
L 805.748993 169.257949 
L 814.234282 164.891136 
L 822.350646 160.469903 
L 830.467009 155.798252 
L 838.583373 150.863891 
L 846.330811 145.896539 
L 854.078249 140.665158 
L 861.825687 135.156117 
L 869.204199 129.637683 
L 876.582712 123.8399 
L 883.961224 117.747406 
L 890.970811 111.671197 
L 897.980398 105.297826 
L 904.621059 98.969834 
L 911.26172 92.342746 
L 917.902381 85.398152 
L 924.174117 78.52934 
L 930.445852 71.339624 
L 936.717588 63.807229 
L 940.406844 59.206539 
L 940.406844 59.206539 
" style="fill:none;stroke:#2ca02c;stroke-linecap:square;stroke-width:1.5;"/>
   </g>
   <g id="line2d_76">
    <path clip-path="url(#p8413aad6e6)" d="M 571.481224 219.537647 
L 584.393621 219.294049 
L 596.937092 218.835229 
L 608.742712 218.183041 
L 620.179406 217.326665 
L 630.878249 216.307071 
L 641.208166 215.106338 
L 651.538084 213.678684 
L 661.499075 212.074509 
L 671.091142 210.307777 
L 680.683208 208.313223 
L 689.906348 206.171432 
L 699.129489 203.801229 
L 707.983704 201.302689 
L 716.837918 198.577366 
L 725.692133 195.616935 
L 734.177423 192.551289 
L 742.662712 189.25403 
L 751.148001 185.71711 
L 759.63329 181.932212 
L 767.749654 178.071887 
L 775.866018 173.968946 
L 783.982381 169.615195 
L 792.098745 165.002033 
L 799.846183 160.348234 
L 807.593621 155.441438 
L 815.341059 150.27276 
L 823.088497 144.832716 
L 830.835935 139.111151 
L 838.214447 133.390332 
L 845.59296 127.394122 
L 852.971472 121.11158 
L 860.349985 114.530873 
L 867.728497 107.639158 
L 874.738084 100.791231 
L 881.74767 93.636919 
L 888.757257 86.16192 
L 895.766844 78.350539 
L 902.407505 70.624327 
L 909.048166 62.56443 
L 915.688827 54.152834 
L 922.329489 45.369472 
L 928.601224 36.71248 
L 934.87296 27.682533 
L 940.406844 19.386093 
L 940.406844 19.386093 
" style="fill:none;stroke:#d62728;stroke-linecap:square;stroke-width:1.5;"/>
   </g>
   <g id="patch_9">
    <path d="M 553.034943 229.645912 
L 553.034943 7.264094 
" style="fill:none;stroke:#000000;stroke-linecap:square;stroke-linejoin:miter;stroke-width:0.8;"/>
   </g>
   <g id="patch_10">
    <path d="M 958.853125 229.645912 
L 958.853125 7.264094 
" style="fill:none;stroke:#000000;stroke-linecap:square;stroke-linejoin:miter;stroke-width:0.8;"/>
   </g>
   <g id="patch_11">
    <path d="M 553.034943 229.645912 
L 958.853125 229.645912 
" style="fill:none;stroke:#000000;stroke-linecap:square;stroke-linejoin:miter;stroke-width:0.8;"/>
   </g>
   <g id="patch_12">
    <path d="M 553.034943 7.264094 
L 958.853125 7.264094 
" style="fill:none;stroke:#000000;stroke-linecap:square;stroke-linejoin:miter;stroke-width:0.8;"/>
   </g>
   <g id="legend_2">
    <g id="patch_13">
     <path d="M 560.034943 73.976594 
L 606.186506 73.976594 
Q 608.186506 73.976594 608.186506 71.976594 
L 608.186506 14.264094 
Q 608.186506 12.264094 606.186506 12.264094 
L 560.034943 12.264094 
Q 558.034943 12.264094 558.034943 14.264094 
L 558.034943 71.976594 
Q 558.034943 73.976594 560.034943 73.976594 
z
" style="fill:#ffffff;opacity:0.8;stroke:#cccccc;stroke-linejoin:miter;"/>
    </g>
    <g id="line2d_77">
     <path d="M 562.034943 20.362531 
L 582.034943 20.362531 
" style="fill:none;stroke:#1f77b4;stroke-linecap:square;stroke-width:1.5;"/>
    </g>
    <g id="line2d_78"/>
    <g id="text_39">
     <!-- (a) -->
     <g transform="translate(590.034943 23.862531)scale(0.1 -0.1)">
      <use xlink:href="#DejaVuSans-28"/>
      <use x="39.013672" xlink:href="#DejaVuSans-61"/>
      <use x="100.292969" xlink:href="#DejaVuSans-29"/>
     </g>
    </g>
    <g id="line2d_79">
     <path d="M 562.034943 35.040656 
L 582.034943 35.040656 
" style="fill:none;stroke:#ff7f0e;stroke-linecap:square;stroke-width:1.5;"/>
    </g>
    <g id="line2d_80"/>
    <g id="text_40">
     <!-- (b) -->
     <g transform="translate(590.034943 38.540656)scale(0.1 -0.1)">
      <use xlink:href="#DejaVuSans-28"/>
      <use x="39.013672" xlink:href="#DejaVuSans-62"/>
      <use x="102.490234" xlink:href="#DejaVuSans-29"/>
     </g>
    </g>
    <g id="line2d_81">
     <path d="M 562.034943 49.718781 
L 582.034943 49.718781 
" style="fill:none;stroke:#2ca02c;stroke-linecap:square;stroke-width:1.5;"/>
    </g>
    <g id="line2d_82"/>
    <g id="text_41">
     <!-- (c) -->
     <g transform="translate(590.034943 53.218781)scale(0.1 -0.1)">
      <use xlink:href="#DejaVuSans-28"/>
      <use x="39.013672" xlink:href="#DejaVuSans-63"/>
      <use x="93.994141" xlink:href="#DejaVuSans-29"/>
     </g>
    </g>
    <g id="line2d_83">
     <path d="M 562.034943 64.396906 
L 582.034943 64.396906 
" style="fill:none;stroke:#d62728;stroke-linecap:square;stroke-width:1.5;"/>
    </g>
    <g id="line2d_84"/>
    <g id="text_42">
     <!-- (d) -->
     <g transform="translate(590.034943 67.896906)scale(0.1 -0.1)">
      <use xlink:href="#DejaVuSans-28"/>
      <use x="39.013672" xlink:href="#DejaVuSans-64"/>
      <use x="102.490234" xlink:href="#DejaVuSans-29"/>
     </g>
    </g>
   </g>
  </g>
  <g id="axes_3">
   <g id="patch_14">
    <path d="M 66.053125 496.504094 
L 471.871307 496.504094 
L 471.871307 274.122275 
L 66.053125 274.122275 
z
" style="fill:#ffffff;"/>
   </g>
   <g id="matplotlib.axis_5">
    <g id="xtick_15">
     <g id="line2d_85">
      <path clip-path="url(#pd1b160b68c)" d="M 84.13048 496.504094 
L 84.13048 274.122275 
" style="fill:none;stroke:#b0b0b0;stroke-linecap:square;stroke-width:0.8;"/>
     </g>
     <g id="line2d_86">
      <g>
       <use style="stroke:#000000;stroke-width:0.8;" x="84.13048" xlink:href="#mcfe0366dfa" y="496.504094"/>
      </g>
     </g>
     <g id="text_43">
      <!-- 0 -->
      <g transform="translate(80.94923 511.102531)scale(0.1 -0.1)">
       <use xlink:href="#DejaVuSans-30"/>
      </g>
     </g>
    </g>
    <g id="xtick_16">
     <g id="line2d_87">
      <path clip-path="url(#pd1b160b68c)" d="M 157.915604 496.504094 
L 157.915604 274.122275 
" style="fill:none;stroke:#b0b0b0;stroke-linecap:square;stroke-width:0.8;"/>
     </g>
     <g id="line2d_88">
      <g>
       <use style="stroke:#000000;stroke-width:0.8;" x="157.915604" xlink:href="#mcfe0366dfa" y="496.504094"/>
      </g>
     </g>
     <g id="text_44">
      <!-- 20 -->
      <g transform="translate(151.553104 511.102531)scale(0.1 -0.1)">
       <use xlink:href="#DejaVuSans-32"/>
       <use x="63.623047" xlink:href="#DejaVuSans-30"/>
      </g>
     </g>
    </g>
    <g id="xtick_17">
     <g id="line2d_89">
      <path clip-path="url(#pd1b160b68c)" d="M 231.700728 496.504094 
L 231.700728 274.122275 
" style="fill:none;stroke:#b0b0b0;stroke-linecap:square;stroke-width:0.8;"/>
     </g>
     <g id="line2d_90">
      <g>
       <use style="stroke:#000000;stroke-width:0.8;" x="231.700728" xlink:href="#mcfe0366dfa" y="496.504094"/>
      </g>
     </g>
     <g id="text_45">
      <!-- 40 -->
      <g transform="translate(225.338228 511.102531)scale(0.1 -0.1)">
       <use xlink:href="#DejaVuSans-34"/>
       <use x="63.623047" xlink:href="#DejaVuSans-30"/>
      </g>
     </g>
    </g>
    <g id="xtick_18">
     <g id="line2d_91">
      <path clip-path="url(#pd1b160b68c)" d="M 305.485852 496.504094 
L 305.485852 274.122275 
" style="fill:none;stroke:#b0b0b0;stroke-linecap:square;stroke-width:0.8;"/>
     </g>
     <g id="line2d_92">
      <g>
       <use style="stroke:#000000;stroke-width:0.8;" x="305.485852" xlink:href="#mcfe0366dfa" y="496.504094"/>
      </g>
     </g>
     <g id="text_46">
      <!-- 60 -->
      <g transform="translate(299.123352 511.102531)scale(0.1 -0.1)">
       <use xlink:href="#DejaVuSans-36"/>
       <use x="63.623047" xlink:href="#DejaVuSans-30"/>
      </g>
     </g>
    </g>
    <g id="xtick_19">
     <g id="line2d_93">
      <path clip-path="url(#pd1b160b68c)" d="M 379.270976 496.504094 
L 379.270976 274.122275 
" style="fill:none;stroke:#b0b0b0;stroke-linecap:square;stroke-width:0.8;"/>
     </g>
     <g id="line2d_94">
      <g>
       <use style="stroke:#000000;stroke-width:0.8;" x="379.270976" xlink:href="#mcfe0366dfa" y="496.504094"/>
      </g>
     </g>
     <g id="text_47">
      <!-- 80 -->
      <g transform="translate(372.908476 511.102531)scale(0.1 -0.1)">
       <use xlink:href="#DejaVuSans-38"/>
       <use x="63.623047" xlink:href="#DejaVuSans-30"/>
      </g>
     </g>
    </g>
    <g id="xtick_20">
     <g id="line2d_95">
      <path clip-path="url(#pd1b160b68c)" d="M 453.0561 496.504094 
L 453.0561 274.122275 
" style="fill:none;stroke:#b0b0b0;stroke-linecap:square;stroke-width:0.8;"/>
     </g>
     <g id="line2d_96">
      <g>
       <use style="stroke:#000000;stroke-width:0.8;" x="453.0561" xlink:href="#mcfe0366dfa" y="496.504094"/>
      </g>
     </g>
     <g id="text_48">
      <!-- 100 -->
      <g transform="translate(443.51235 511.102531)scale(0.1 -0.1)">
       <use xlink:href="#DejaVuSans-31"/>
       <use x="63.623047" xlink:href="#DejaVuSans-30"/>
       <use x="127.246094" xlink:href="#DejaVuSans-30"/>
      </g>
     </g>
    </g>
    <g id="text_49">
     <!-- Time [s] -->
     <g transform="translate(248.63331 524.780656)scale(0.1 -0.1)">
      <use xlink:href="#DejaVuSans-54"/>
      <use x="57.958984" xlink:href="#DejaVuSans-69"/>
      <use x="85.742188" xlink:href="#DejaVuSans-6d"/>
      <use x="183.154297" xlink:href="#DejaVuSans-65"/>
      <use x="244.677734" xlink:href="#DejaVuSans-20"/>
      <use x="276.464844" xlink:href="#DejaVuSans-5b"/>
      <use x="315.478516" xlink:href="#DejaVuSans-73"/>
      <use x="367.578125" xlink:href="#DejaVuSans-5d"/>
     </g>
    </g>
   </g>
   <g id="matplotlib.axis_6">
    <g id="ytick_17">
     <g id="line2d_97">
      <path clip-path="url(#pd1b160b68c)" d="M 66.053125 487.741035 
L 471.871307 487.741035 
" style="fill:none;stroke:#b0b0b0;stroke-linecap:square;stroke-width:0.8;"/>
     </g>
     <g id="line2d_98">
      <g>
       <use style="stroke:#000000;stroke-width:0.8;" x="66.053125" xlink:href="#m5bd612d397" y="487.741035"/>
      </g>
     </g>
     <g id="text_50">
      <!-- 0 -->
      <g transform="translate(52.690625 491.540254)scale(0.1 -0.1)">
       <use xlink:href="#DejaVuSans-30"/>
      </g>
     </g>
    </g>
    <g id="ytick_18">
     <g id="line2d_99">
      <path clip-path="url(#pd1b160b68c)" d="M 66.053125 444.977974 
L 471.871307 444.977974 
" style="fill:none;stroke:#b0b0b0;stroke-linecap:square;stroke-width:0.8;"/>
     </g>
     <g id="line2d_100">
      <g>
       <use style="stroke:#000000;stroke-width:0.8;" x="66.053125" xlink:href="#m5bd612d397" y="444.977974"/>
      </g>
     </g>
     <g id="text_51">
      <!-- 1000 -->
      <g transform="translate(33.603125 448.777193)scale(0.1 -0.1)">
       <use xlink:href="#DejaVuSans-31"/>
       <use x="63.623047" xlink:href="#DejaVuSans-30"/>
       <use x="127.246094" xlink:href="#DejaVuSans-30"/>
       <use x="190.869141" xlink:href="#DejaVuSans-30"/>
      </g>
     </g>
    </g>
    <g id="ytick_19">
     <g id="line2d_101">
      <path clip-path="url(#pd1b160b68c)" d="M 66.053125 402.214913 
L 471.871307 402.214913 
" style="fill:none;stroke:#b0b0b0;stroke-linecap:square;stroke-width:0.8;"/>
     </g>
     <g id="line2d_102">
      <g>
       <use style="stroke:#000000;stroke-width:0.8;" x="66.053125" xlink:href="#m5bd612d397" y="402.214913"/>
      </g>
     </g>
     <g id="text_52">
      <!-- 2000 -->
      <g transform="translate(33.603125 406.014132)scale(0.1 -0.1)">
       <use xlink:href="#DejaVuSans-32"/>
       <use x="63.623047" xlink:href="#DejaVuSans-30"/>
       <use x="127.246094" xlink:href="#DejaVuSans-30"/>
       <use x="190.869141" xlink:href="#DejaVuSans-30"/>
      </g>
     </g>
    </g>
    <g id="ytick_20">
     <g id="line2d_103">
      <path clip-path="url(#pd1b160b68c)" d="M 66.053125 359.451853 
L 471.871307 359.451853 
" style="fill:none;stroke:#b0b0b0;stroke-linecap:square;stroke-width:0.8;"/>
     </g>
     <g id="line2d_104">
      <g>
       <use style="stroke:#000000;stroke-width:0.8;" x="66.053125" xlink:href="#m5bd612d397" y="359.451853"/>
      </g>
     </g>
     <g id="text_53">
      <!-- 3000 -->
      <g transform="translate(33.603125 363.251072)scale(0.1 -0.1)">
       <defs>
        <path d="M 2597 2516 
Q 3050 2419 3304 2112 
Q 3559 1806 3559 1356 
Q 3559 666 3084 287 
Q 2609 -91 1734 -91 
Q 1441 -91 1130 -33 
Q 819 25 488 141 
L 488 750 
Q 750 597 1062 519 
Q 1375 441 1716 441 
Q 2309 441 2620 675 
Q 2931 909 2931 1356 
Q 2931 1769 2642 2001 
Q 2353 2234 1838 2234 
L 1294 2234 
L 1294 2753 
L 1863 2753 
Q 2328 2753 2575 2939 
Q 2822 3125 2822 3475 
Q 2822 3834 2567 4026 
Q 2313 4219 1838 4219 
Q 1578 4219 1281 4162 
Q 984 4106 628 3988 
L 628 4550 
Q 988 4650 1302 4700 
Q 1616 4750 1894 4750 
Q 2613 4750 3031 4423 
Q 3450 4097 3450 3541 
Q 3450 3153 3228 2886 
Q 3006 2619 2597 2516 
z
" id="DejaVuSans-33" transform="scale(0.015625)"/>
       </defs>
       <use xlink:href="#DejaVuSans-33"/>
       <use x="63.623047" xlink:href="#DejaVuSans-30"/>
       <use x="127.246094" xlink:href="#DejaVuSans-30"/>
       <use x="190.869141" xlink:href="#DejaVuSans-30"/>
      </g>
     </g>
    </g>
    <g id="ytick_21">
     <g id="line2d_105">
      <path clip-path="url(#pd1b160b68c)" d="M 66.053125 316.688792 
L 471.871307 316.688792 
" style="fill:none;stroke:#b0b0b0;stroke-linecap:square;stroke-width:0.8;"/>
     </g>
     <g id="line2d_106">
      <g>
       <use style="stroke:#000000;stroke-width:0.8;" x="66.053125" xlink:href="#m5bd612d397" y="316.688792"/>
      </g>
     </g>
     <g id="text_54">
      <!-- 4000 -->
      <g transform="translate(33.603125 320.488011)scale(0.1 -0.1)">
       <use xlink:href="#DejaVuSans-34"/>
       <use x="63.623047" xlink:href="#DejaVuSans-30"/>
       <use x="127.246094" xlink:href="#DejaVuSans-30"/>
       <use x="190.869141" xlink:href="#DejaVuSans-30"/>
      </g>
     </g>
    </g>
    <g id="text_55">
     <!-- Velocity [m/s] -->
     <g transform="translate(27.523438 419.578809)rotate(-90)scale(0.1 -0.1)">
      <defs>
       <path d="M 2059 -325 
Q 1816 -950 1584 -1140 
Q 1353 -1331 966 -1331 
L 506 -1331 
L 506 -850 
L 844 -850 
Q 1081 -850 1212 -737 
Q 1344 -625 1503 -206 
L 1606 56 
L 191 3500 
L 800 3500 
L 1894 763 
L 2988 3500 
L 3597 3500 
L 2059 -325 
z
" id="DejaVuSans-79" transform="scale(0.015625)"/>
       <path d="M 1625 4666 
L 2156 4666 
L 531 -594 
L 0 -594 
L 1625 4666 
z
" id="DejaVuSans-2f" transform="scale(0.015625)"/>
      </defs>
      <use xlink:href="#DejaVuSans-56"/>
      <use x="60.658203" xlink:href="#DejaVuSans-65"/>
      <use x="122.181641" xlink:href="#DejaVuSans-6c"/>
      <use x="149.964844" xlink:href="#DejaVuSans-6f"/>
      <use x="211.146484" xlink:href="#DejaVuSans-63"/>
      <use x="266.126953" xlink:href="#DejaVuSans-69"/>
      <use x="293.910156" xlink:href="#DejaVuSans-74"/>
      <use x="333.119141" xlink:href="#DejaVuSans-79"/>
      <use x="392.298828" xlink:href="#DejaVuSans-20"/>
      <use x="424.085938" xlink:href="#DejaVuSans-5b"/>
      <use x="463.099609" xlink:href="#DejaVuSans-6d"/>
      <use x="560.511719" xlink:href="#DejaVuSans-2f"/>
      <use x="594.203125" xlink:href="#DejaVuSans-73"/>
      <use x="646.302734" xlink:href="#DejaVuSans-5d"/>
     </g>
    </g>
   </g>
   <g id="line2d_107">
    <path clip-path="url(#pd1b160b68c)" d="M 84.499406 486.395814 
L 103.314613 483.102633 
L 121.391968 479.714909 
L 138.731472 476.241495 
L 155.333125 472.69255 
L 171.196927 469.079566 
L 186.691803 465.323234 
L 201.448827 461.518715 
L 215.836927 457.577296 
L 229.487175 453.607642 
L 242.768497 449.510922 
L 255.311968 445.410814 
L 267.486513 441.197665 
L 279.292133 436.872804 
L 290.359902 432.58507 
L 301.058745 428.206603 
L 311.388662 423.741728 
L 321.349654 419.195565 
L 330.94172 414.574131 
L 340.164861 409.884449 
L 349.019075 405.134662 
L 357.504365 400.334158 
L 365.620728 395.493696 
L 373.368166 390.625539 
L 381.115604 385.492804 
L 388.494117 380.335182 
L 395.503704 375.168707 
L 402.144365 370.011521 
L 408.785026 364.574119 
L 415.056761 359.156401 
L 421.328497 353.436797 
L 427.231307 347.749902 
L 432.765191 342.123614 
L 438.299075 336.182652 
L 443.464034 330.324488 
L 448.628993 324.131684 
L 453.425026 318.049608 
L 453.425026 318.049608 
" style="fill:none;stroke:#1f77b4;stroke-linecap:square;stroke-width:1.5;"/>
   </g>
   <g id="line2d_108">
    <path clip-path="url(#pd1b160b68c)" d="M 84.499406 486.395814 
L 98.887505 483.848415 
L 111.062051 481.465452 
L 122.129819 479.075346 
L 132.828662 476.543158 
L 143.527505 473.788218 
L 154.595274 470.709136 
L 166.031968 467.294805 
L 177.837588 463.537958 
L 190.012133 459.431909 
L 202.555604 454.96763 
L 215.468001 450.131516 
L 228.380398 445.05253 
L 240.923869 439.881534 
L 253.46734 434.467467 
L 265.641885 428.9672 
L 277.447505 423.387119 
L 288.884199 417.732501 
L 299.951968 412.00812 
L 310.650811 406.218668 
L 320.980728 400.36907 
L 330.572794 394.688312 
L 340.164861 388.745902 
L 349.388001 382.76244 
L 358.242216 376.746033 
L 366.727505 370.706042 
L 374.843869 364.65326 
L 382.591307 358.600092 
L 389.969819 352.560737 
L 397.348332 346.227257 
L 404.357918 339.910751 
L 410.99858 333.629981 
L 417.270315 327.406305 
L 423.542051 320.870163 
L 429.444861 314.403592 
L 435.34767 307.599123 
L 440.881555 300.880033 
L 446.415439 293.795464 
L 451.580398 286.816487 
L 453.425026 284.23054 
L 453.425026 284.23054 
" style="fill:none;stroke:#ff7f0e;stroke-linecap:square;stroke-width:1.5;"/>
   </g>
   <g id="line2d_109">
    <path clip-path="url(#pd1b160b68c)" d="M 84.499406 486.395829 
L 103.683538 483.040586 
L 122.498745 479.524968 
L 140.945026 475.851511 
L 158.653456 472.098384 
L 175.255108 468.35737 
L 191.11891 464.555744 
L 205.875935 460.79299 
L 219.895108 456.989326 
L 233.176431 453.155052 
L 245.719902 449.305558 
L 257.894447 445.337278 
L 269.700067 441.252433 
L 281.136761 437.055143 
L 292.20453 432.750801 
L 302.903373 428.345564 
L 313.23329 423.846032 
L 323.194282 419.259142 
L 332.786348 414.592232 
L 342.009489 409.853214 
L 350.863704 405.050791 
L 359.348993 400.194685 
L 367.465356 395.29586 
L 375.212794 390.366715 
L 382.591307 385.421265 
L 389.969819 380.207873 
L 396.979406 374.983314 
L 403.620067 369.765845 
L 410.260728 364.262291 
L 416.532464 358.775895 
L 422.435274 353.330657 
L 428.338084 347.584981 
L 433.871968 341.897987 
L 439.405852 335.890039 
L 444.570811 329.962781 
L 449.73577 323.693492 
L 453.425026 318.98525 
L 453.425026 318.98525 
" style="fill:none;stroke:#2ca02c;stroke-linecap:square;stroke-width:1.5;"/>
   </g>
   <g id="line2d_110">
    <path clip-path="url(#pd1b160b68c)" d="M 84.499406 486.395829 
L 98.887505 483.851069 
L 111.062051 481.476251 
L 122.498745 479.019001 
L 133.566513 476.415307 
L 144.634282 473.58813 
L 156.070976 470.440673 
L 167.876596 466.964911 
L 180.051142 463.153703 
L 192.594613 458.996162 
L 205.138084 454.607133 
L 217.681555 449.982689 
L 229.8561 445.261173 
L 242.030646 440.300202 
L 253.836265 435.250813 
L 265.641885 429.955756 
L 277.07858 424.58062 
L 288.146348 419.136264 
L 298.845191 413.63245 
L 309.544034 407.874971 
L 319.873951 402.056327 
L 329.834943 396.183197 
L 339.427009 390.262411 
L 348.65015 384.301371 
L 357.504365 378.308378 
L 365.989654 372.292894 
L 374.106018 366.265768 
L 381.853456 360.239427 
L 389.231968 354.228071 
L 396.61048 347.925346 
L 403.620067 341.641008 
L 410.260728 335.393781 
L 416.901389 328.83158 
L 423.173125 322.314716 
L 429.075935 315.868183 
L 434.978745 309.085888 
L 440.512629 302.38985 
L 446.046513 295.330897 
L 451.211472 288.378544 
L 453.425026 285.281516 
L 453.425026 285.281516 
" style="fill:none;stroke:#d62728;stroke-linecap:square;stroke-width:1.5;"/>
   </g>
   <g id="patch_15">
    <path d="M 66.053125 496.504094 
L 66.053125 274.122275 
" style="fill:none;stroke:#000000;stroke-linecap:square;stroke-linejoin:miter;stroke-width:0.8;"/>
   </g>
   <g id="patch_16">
    <path d="M 471.871307 496.504094 
L 471.871307 274.122275 
" style="fill:none;stroke:#000000;stroke-linecap:square;stroke-linejoin:miter;stroke-width:0.8;"/>
   </g>
   <g id="patch_17">
    <path d="M 66.053125 496.504094 
L 471.871307 496.504094 
" style="fill:none;stroke:#000000;stroke-linecap:square;stroke-linejoin:miter;stroke-width:0.8;"/>
   </g>
   <g id="patch_18">
    <path d="M 66.053125 274.122275 
L 471.871307 274.122275 
" style="fill:none;stroke:#000000;stroke-linecap:square;stroke-linejoin:miter;stroke-width:0.8;"/>
   </g>
   <g id="legend_3">
    <g id="patch_19">
     <path d="M 73.053125 340.834775 
L 119.204688 340.834775 
Q 121.204688 340.834775 121.204688 338.834775 
L 121.204688 281.122275 
Q 121.204688 279.122275 119.204688 279.122275 
L 73.053125 279.122275 
Q 71.053125 279.122275 71.053125 281.122275 
L 71.053125 338.834775 
Q 71.053125 340.834775 73.053125 340.834775 
z
" style="fill:#ffffff;opacity:0.8;stroke:#cccccc;stroke-linejoin:miter;"/>
    </g>
    <g id="line2d_111">
     <path d="M 75.053125 287.220713 
L 95.053125 287.220713 
" style="fill:none;stroke:#1f77b4;stroke-linecap:square;stroke-width:1.5;"/>
    </g>
    <g id="line2d_112"/>
    <g id="text_56">
     <!-- (a) -->
     <g transform="translate(103.053125 290.720713)scale(0.1 -0.1)">
      <use xlink:href="#DejaVuSans-28"/>
      <use x="39.013672" xlink:href="#DejaVuSans-61"/>
      <use x="100.292969" xlink:href="#DejaVuSans-29"/>
     </g>
    </g>
    <g id="line2d_113">
     <path d="M 75.053125 301.898838 
L 95.053125 301.898838 
" style="fill:none;stroke:#ff7f0e;stroke-linecap:square;stroke-width:1.5;"/>
    </g>
    <g id="line2d_114"/>
    <g id="text_57">
     <!-- (b) -->
     <g transform="translate(103.053125 305.398838)scale(0.1 -0.1)">
      <use xlink:href="#DejaVuSans-28"/>
      <use x="39.013672" xlink:href="#DejaVuSans-62"/>
      <use x="102.490234" xlink:href="#DejaVuSans-29"/>
     </g>
    </g>
    <g id="line2d_115">
     <path d="M 75.053125 316.576963 
L 95.053125 316.576963 
" style="fill:none;stroke:#2ca02c;stroke-linecap:square;stroke-width:1.5;"/>
    </g>
    <g id="line2d_116"/>
    <g id="text_58">
     <!-- (c) -->
     <g transform="translate(103.053125 320.076963)scale(0.1 -0.1)">
      <use xlink:href="#DejaVuSans-28"/>
      <use x="39.013672" xlink:href="#DejaVuSans-63"/>
      <use x="93.994141" xlink:href="#DejaVuSans-29"/>
     </g>
    </g>
    <g id="line2d_117">
     <path d="M 75.053125 331.255088 
L 95.053125 331.255088 
" style="fill:none;stroke:#d62728;stroke-linecap:square;stroke-width:1.5;"/>
    </g>
    <g id="line2d_118"/>
    <g id="text_59">
     <!-- (d) -->
     <g transform="translate(103.053125 334.755088)scale(0.1 -0.1)">
      <use xlink:href="#DejaVuSans-28"/>
      <use x="39.013672" xlink:href="#DejaVuSans-64"/>
      <use x="102.490234" xlink:href="#DejaVuSans-29"/>
     </g>
    </g>
   </g>
  </g>
  <g id="axes_4">
   <g id="patch_20">
    <path d="M 553.034943 496.504094 
L 958.853125 496.504094 
L 958.853125 274.122275 
L 553.034943 274.122275 
z
" style="fill:#ffffff;"/>
   </g>
   <g id="matplotlib.axis_7">
    <g id="xtick_21">
     <g id="line2d_119">
      <path clip-path="url(#pff80a9126d)" d="M 571.112299 496.504094 
L 571.112299 274.122275 
" style="fill:none;stroke:#b0b0b0;stroke-linecap:square;stroke-width:0.8;"/>
     </g>
     <g id="line2d_120">
      <g>
       <use style="stroke:#000000;stroke-width:0.8;" x="571.112299" xlink:href="#mcfe0366dfa" y="496.504094"/>
      </g>
     </g>
     <g id="text_60">
      <!-- 0 -->
      <g transform="translate(567.931049 511.102531)scale(0.1 -0.1)">
       <use xlink:href="#DejaVuSans-30"/>
      </g>
     </g>
    </g>
    <g id="xtick_22">
     <g id="line2d_121">
      <path clip-path="url(#pff80a9126d)" d="M 644.897423 496.504094 
L 644.897423 274.122275 
" style="fill:none;stroke:#b0b0b0;stroke-linecap:square;stroke-width:0.8;"/>
     </g>
     <g id="line2d_122">
      <g>
       <use style="stroke:#000000;stroke-width:0.8;" x="644.897423" xlink:href="#mcfe0366dfa" y="496.504094"/>
      </g>
     </g>
     <g id="text_61">
      <!-- 20 -->
      <g transform="translate(638.534923 511.102531)scale(0.1 -0.1)">
       <use xlink:href="#DejaVuSans-32"/>
       <use x="63.623047" xlink:href="#DejaVuSans-30"/>
      </g>
     </g>
    </g>
    <g id="xtick_23">
     <g id="line2d_123">
      <path clip-path="url(#pff80a9126d)" d="M 718.682546 496.504094 
L 718.682546 274.122275 
" style="fill:none;stroke:#b0b0b0;stroke-linecap:square;stroke-width:0.8;"/>
     </g>
     <g id="line2d_124">
      <g>
       <use style="stroke:#000000;stroke-width:0.8;" x="718.682546" xlink:href="#mcfe0366dfa" y="496.504094"/>
      </g>
     </g>
     <g id="text_62">
      <!-- 40 -->
      <g transform="translate(712.320046 511.102531)scale(0.1 -0.1)">
       <use xlink:href="#DejaVuSans-34"/>
       <use x="63.623047" xlink:href="#DejaVuSans-30"/>
      </g>
     </g>
    </g>
    <g id="xtick_24">
     <g id="line2d_125">
      <path clip-path="url(#pff80a9126d)" d="M 792.46767 496.504094 
L 792.46767 274.122275 
" style="fill:none;stroke:#b0b0b0;stroke-linecap:square;stroke-width:0.8;"/>
     </g>
     <g id="line2d_126">
      <g>
       <use style="stroke:#000000;stroke-width:0.8;" x="792.46767" xlink:href="#mcfe0366dfa" y="496.504094"/>
      </g>
     </g>
     <g id="text_63">
      <!-- 60 -->
      <g transform="translate(786.10517 511.102531)scale(0.1 -0.1)">
       <use xlink:href="#DejaVuSans-36"/>
       <use x="63.623047" xlink:href="#DejaVuSans-30"/>
      </g>
     </g>
    </g>
    <g id="xtick_25">
     <g id="line2d_127">
      <path clip-path="url(#pff80a9126d)" d="M 866.252794 496.504094 
L 866.252794 274.122275 
" style="fill:none;stroke:#b0b0b0;stroke-linecap:square;stroke-width:0.8;"/>
     </g>
     <g id="line2d_128">
      <g>
       <use style="stroke:#000000;stroke-width:0.8;" x="866.252794" xlink:href="#mcfe0366dfa" y="496.504094"/>
      </g>
     </g>
     <g id="text_64">
      <!-- 80 -->
      <g transform="translate(859.890294 511.102531)scale(0.1 -0.1)">
       <use xlink:href="#DejaVuSans-38"/>
       <use x="63.623047" xlink:href="#DejaVuSans-30"/>
      </g>
     </g>
    </g>
    <g id="xtick_26">
     <g id="line2d_129">
      <path clip-path="url(#pff80a9126d)" d="M 940.037918 496.504094 
L 940.037918 274.122275 
" style="fill:none;stroke:#b0b0b0;stroke-linecap:square;stroke-width:0.8;"/>
     </g>
     <g id="line2d_130">
      <g>
       <use style="stroke:#000000;stroke-width:0.8;" x="940.037918" xlink:href="#mcfe0366dfa" y="496.504094"/>
      </g>
     </g>
     <g id="text_65">
      <!-- 100 -->
      <g transform="translate(930.494168 511.102531)scale(0.1 -0.1)">
       <use xlink:href="#DejaVuSans-31"/>
       <use x="63.623047" xlink:href="#DejaVuSans-30"/>
       <use x="127.246094" xlink:href="#DejaVuSans-30"/>
      </g>
     </g>
    </g>
    <g id="text_66">
     <!-- Time [s] -->
     <g transform="translate(735.615128 524.780656)scale(0.1 -0.1)">
      <use xlink:href="#DejaVuSans-54"/>
      <use x="57.958984" xlink:href="#DejaVuSans-69"/>
      <use x="85.742188" xlink:href="#DejaVuSans-6d"/>
      <use x="183.154297" xlink:href="#DejaVuSans-65"/>
      <use x="244.677734" xlink:href="#DejaVuSans-20"/>
      <use x="276.464844" xlink:href="#DejaVuSans-5b"/>
      <use x="315.478516" xlink:href="#DejaVuSans-73"/>
      <use x="367.578125" xlink:href="#DejaVuSans-5d"/>
     </g>
    </g>
   </g>
   <g id="matplotlib.axis_8">
    <g id="ytick_22">
     <g id="line2d_131">
      <path clip-path="url(#pff80a9126d)" d="M 553.034943 483.621929 
L 958.853125 483.621929 
" style="fill:none;stroke:#b0b0b0;stroke-linecap:square;stroke-width:0.8;"/>
     </g>
     <g id="line2d_132">
      <g>
       <use style="stroke:#000000;stroke-width:0.8;" x="553.034943" xlink:href="#m5bd612d397" y="483.621929"/>
      </g>
     </g>
     <g id="text_67">
      <!-- 0.02 -->
      <g transform="translate(523.769318 487.421148)scale(0.1 -0.1)">
       <defs>
        <path d="M 684 794 
L 1344 794 
L 1344 0 
L 684 0 
L 684 794 
z
" id="DejaVuSans-2e" transform="scale(0.015625)"/>
       </defs>
       <use xlink:href="#DejaVuSans-30"/>
       <use x="63.623047" xlink:href="#DejaVuSans-2e"/>
       <use x="95.410156" xlink:href="#DejaVuSans-30"/>
       <use x="159.033203" xlink:href="#DejaVuSans-32"/>
      </g>
     </g>
    </g>
    <g id="ytick_23">
     <g id="line2d_133">
      <path clip-path="url(#pff80a9126d)" d="M 553.034943 455.916952 
L 958.853125 455.916952 
" style="fill:none;stroke:#b0b0b0;stroke-linecap:square;stroke-width:0.8;"/>
     </g>
     <g id="line2d_134">
      <g>
       <use style="stroke:#000000;stroke-width:0.8;" x="553.034943" xlink:href="#m5bd612d397" y="455.916952"/>
      </g>
     </g>
     <g id="text_68">
      <!-- 0.04 -->
      <g transform="translate(523.769318 459.716171)scale(0.1 -0.1)">
       <use xlink:href="#DejaVuSans-30"/>
       <use x="63.623047" xlink:href="#DejaVuSans-2e"/>
       <use x="95.410156" xlink:href="#DejaVuSans-30"/>
       <use x="159.033203" xlink:href="#DejaVuSans-34"/>
      </g>
     </g>
    </g>
    <g id="ytick_24">
     <g id="line2d_135">
      <path clip-path="url(#pff80a9126d)" d="M 553.034943 428.211975 
L 958.853125 428.211975 
" style="fill:none;stroke:#b0b0b0;stroke-linecap:square;stroke-width:0.8;"/>
     </g>
     <g id="line2d_136">
      <g>
       <use style="stroke:#000000;stroke-width:0.8;" x="553.034943" xlink:href="#m5bd612d397" y="428.211975"/>
      </g>
     </g>
     <g id="text_69">
      <!-- 0.06 -->
      <g transform="translate(523.769318 432.011194)scale(0.1 -0.1)">
       <use xlink:href="#DejaVuSans-30"/>
       <use x="63.623047" xlink:href="#DejaVuSans-2e"/>
       <use x="95.410156" xlink:href="#DejaVuSans-30"/>
       <use x="159.033203" xlink:href="#DejaVuSans-36"/>
      </g>
     </g>
    </g>
    <g id="ytick_25">
     <g id="line2d_137">
      <path clip-path="url(#pff80a9126d)" d="M 553.034943 400.506998 
L 958.853125 400.506998 
" style="fill:none;stroke:#b0b0b0;stroke-linecap:square;stroke-width:0.8;"/>
     </g>
     <g id="line2d_138">
      <g>
       <use style="stroke:#000000;stroke-width:0.8;" x="553.034943" xlink:href="#m5bd612d397" y="400.506998"/>
      </g>
     </g>
     <g id="text_70">
      <!-- 0.08 -->
      <g transform="translate(523.769318 404.306217)scale(0.1 -0.1)">
       <use xlink:href="#DejaVuSans-30"/>
       <use x="63.623047" xlink:href="#DejaVuSans-2e"/>
       <use x="95.410156" xlink:href="#DejaVuSans-30"/>
       <use x="159.033203" xlink:href="#DejaVuSans-38"/>
      </g>
     </g>
    </g>
    <g id="ytick_26">
     <g id="line2d_139">
      <path clip-path="url(#pff80a9126d)" d="M 553.034943 372.802021 
L 958.853125 372.802021 
" style="fill:none;stroke:#b0b0b0;stroke-linecap:square;stroke-width:0.8;"/>
     </g>
     <g id="line2d_140">
      <g>
       <use style="stroke:#000000;stroke-width:0.8;" x="553.034943" xlink:href="#m5bd612d397" y="372.802021"/>
      </g>
     </g>
     <g id="text_71">
      <!-- 0.10 -->
      <g transform="translate(523.769318 376.60124)scale(0.1 -0.1)">
       <use xlink:href="#DejaVuSans-30"/>
       <use x="63.623047" xlink:href="#DejaVuSans-2e"/>
       <use x="95.410156" xlink:href="#DejaVuSans-31"/>
       <use x="159.033203" xlink:href="#DejaVuSans-30"/>
      </g>
     </g>
    </g>
    <g id="ytick_27">
     <g id="line2d_141">
      <path clip-path="url(#pff80a9126d)" d="M 553.034943 345.097044 
L 958.853125 345.097044 
" style="fill:none;stroke:#b0b0b0;stroke-linecap:square;stroke-width:0.8;"/>
     </g>
     <g id="line2d_142">
      <g>
       <use style="stroke:#000000;stroke-width:0.8;" x="553.034943" xlink:href="#m5bd612d397" y="345.097044"/>
      </g>
     </g>
     <g id="text_72">
      <!-- 0.12 -->
      <g transform="translate(523.769318 348.896263)scale(0.1 -0.1)">
       <use xlink:href="#DejaVuSans-30"/>
       <use x="63.623047" xlink:href="#DejaVuSans-2e"/>
       <use x="95.410156" xlink:href="#DejaVuSans-31"/>
       <use x="159.033203" xlink:href="#DejaVuSans-32"/>
      </g>
     </g>
    </g>
    <g id="ytick_28">
     <g id="line2d_143">
      <path clip-path="url(#pff80a9126d)" d="M 553.034943 317.392067 
L 958.853125 317.392067 
" style="fill:none;stroke:#b0b0b0;stroke-linecap:square;stroke-width:0.8;"/>
     </g>
     <g id="line2d_144">
      <g>
       <use style="stroke:#000000;stroke-width:0.8;" x="553.034943" xlink:href="#m5bd612d397" y="317.392067"/>
      </g>
     </g>
     <g id="text_73">
      <!-- 0.14 -->
      <g transform="translate(523.769318 321.191286)scale(0.1 -0.1)">
       <use xlink:href="#DejaVuSans-30"/>
       <use x="63.623047" xlink:href="#DejaVuSans-2e"/>
       <use x="95.410156" xlink:href="#DejaVuSans-31"/>
       <use x="159.033203" xlink:href="#DejaVuSans-34"/>
      </g>
     </g>
    </g>
    <g id="ytick_29">
     <g id="line2d_145">
      <path clip-path="url(#pff80a9126d)" d="M 553.034943 289.687091 
L 958.853125 289.687091 
" style="fill:none;stroke:#b0b0b0;stroke-linecap:square;stroke-width:0.8;"/>
     </g>
     <g id="line2d_146">
      <g>
       <use style="stroke:#000000;stroke-width:0.8;" x="553.034943" xlink:href="#m5bd612d397" y="289.687091"/>
      </g>
     </g>
     <g id="text_74">
      <!-- 0.16 -->
      <g transform="translate(523.769318 293.486309)scale(0.1 -0.1)">
       <use xlink:href="#DejaVuSans-30"/>
       <use x="63.623047" xlink:href="#DejaVuSans-2e"/>
       <use x="95.410156" xlink:href="#DejaVuSans-31"/>
       <use x="159.033203" xlink:href="#DejaVuSans-36"/>
      </g>
     </g>
    </g>
    <g id="text_75">
     <!-- Theta [rad.] -->
     <g transform="translate(517.689631 415.010059)rotate(-90)scale(0.1 -0.1)">
      <defs>
       <path d="M 3513 2113 
L 3513 0 
L 2938 0 
L 2938 2094 
Q 2938 2591 2744 2837 
Q 2550 3084 2163 3084 
Q 1697 3084 1428 2787 
Q 1159 2491 1159 1978 
L 1159 0 
L 581 0 
L 581 4863 
L 1159 4863 
L 1159 2956 
Q 1366 3272 1645 3428 
Q 1925 3584 2291 3584 
Q 2894 3584 3203 3211 
Q 3513 2838 3513 2113 
z
" id="DejaVuSans-68" transform="scale(0.015625)"/>
      </defs>
      <use xlink:href="#DejaVuSans-54"/>
      <use x="61.083984" xlink:href="#DejaVuSans-68"/>
      <use x="124.462891" xlink:href="#DejaVuSans-65"/>
      <use x="185.986328" xlink:href="#DejaVuSans-74"/>
      <use x="225.195312" xlink:href="#DejaVuSans-61"/>
      <use x="286.474609" xlink:href="#DejaVuSans-20"/>
      <use x="318.261719" xlink:href="#DejaVuSans-5b"/>
      <use x="357.275391" xlink:href="#DejaVuSans-72"/>
      <use x="398.388672" xlink:href="#DejaVuSans-61"/>
      <use x="459.667969" xlink:href="#DejaVuSans-64"/>
      <use x="523.144531" xlink:href="#DejaVuSans-2e"/>
      <use x="554.931641" xlink:href="#DejaVuSans-5d"/>
     </g>
    </g>
   </g>
   <g id="line2d_147">
    <path clip-path="url(#pff80a9126d)" d="M 571.481224 486.395829 
L 574.063704 481.396442 
L 577.015108 476.153794 
L 580.335439 470.703345 
L 584.024695 465.075514 
L 588.082877 459.297197 
L 592.509985 453.392702 
L 597.306018 447.38436 
L 602.470976 441.292925 
L 607.635935 435.537346 
L 613.169819 429.693669 
L 619.072629 423.783496 
L 625.344365 417.826884 
L 631.985026 411.842558 
L 638.625687 406.155872 
L 645.635274 400.444835 
L 653.013786 394.727098 
L 660.392299 389.284556 
L 668.139737 383.841517 
L 676.2561 378.414083 
L 684.741389 373.01741 
L 693.226679 367.883327 
L 702.080894 362.785961 
L 711.304034 357.738985 
L 720.527175 352.942183 
L 730.119241 348.20162 
L 740.080232 343.529533 
L 750.41015 338.93746 
L 760.740067 334.587341 
L 771.43891 330.321754 
L 782.506679 326.151011 
L 793.943373 322.084854 
L 805.380067 318.252377 
L 817.185687 314.527901 
L 829.360232 310.920246 
L 841.903704 307.437827 
L 854.8161 304.088716 
L 867.728497 300.966691 
L 881.009819 297.980851 
L 894.660067 295.139161 
L 908.679241 292.449648 
L 923.06734 289.920629 
L 937.455439 287.61719 
L 940.406844 287.171903 
L 940.406844 287.171903 
" style="fill:none;stroke:#1f77b4;stroke-linecap:square;stroke-width:1.5;"/>
   </g>
   <g id="line2d_148">
    <path clip-path="url(#pff80a9126d)" d="M 571.481224 486.395829 
L 574.063704 481.420189 
L 577.015108 476.268309 
L 579.966513 471.576922 
L 582.917918 467.276785 
L 586.238249 462.850528 
L 589.55858 458.815981 
L 592.87891 455.138387 
L 596.199241 451.789404 
L 599.519571 448.744471 
L 602.839902 445.981336 
L 606.529158 443.216495 
L 610.218414 440.747049 
L 613.90767 438.547396 
L 617.596927 436.593149 
L 621.655108 434.699328 
L 625.71329 433.045463 
L 630.140398 431.483273 
L 634.936431 430.039759 
L 640.101389 428.733643 
L 645.635274 427.575318 
L 651.538084 426.567435 
L 658.178745 425.661137 
L 665.557257 424.877156 
L 674.411472 424.171626 
L 684.741389 423.583547 
L 697.284861 423.101203 
L 713.517588 422.713829 
L 735.653125 422.425333 
L 769.594282 422.229583 
L 833.049489 422.122822 
L 940.406844 422.094639 
L 940.406844 422.094639 
" style="fill:none;stroke:#ff7f0e;stroke-linecap:square;stroke-width:1.5;"/>
   </g>
   <g id="line2d_149">
    <path clip-path="url(#pff80a9126d)" d="M 571.481224 486.39582 
L 574.063704 481.396124 
L 577.015108 476.152551 
L 580.335439 470.700245 
L 584.024695 465.069215 
L 588.082877 459.285836 
L 592.509985 453.37378 
L 597.306018 447.354621 
L 602.470976 441.248235 
L 608.004861 435.073093 
L 613.538745 429.225696 
L 619.441555 423.30388 
L 625.71329 417.326738 
L 632.353951 411.312021 
L 639.363538 405.276366 
L 646.373125 399.530413 
L 653.751637 393.765832 
L 661.499075 387.998852 
L 669.615439 382.245038 
L 677.731803 376.762524 
L 686.217092 371.299384 
L 695.071307 365.870957 
L 703.925522 360.702134 
L 713.148662 355.576575 
L 722.740728 350.509016 
L 732.332794 345.69395 
L 742.293786 340.94569 
L 752.254778 336.439948 
L 762.584695 332.0094 
L 773.283538 327.666221 
L 783.982381 323.559282 
L 795.05015 319.545739 
L 806.486844 315.635826 
L 818.292464 311.839078 
L 830.467009 308.164421 
L 842.641555 304.721131 
L 855.185026 301.402843 
L 868.097423 298.217744 
L 881.378745 295.173808 
L 895.028993 292.278916 
L 908.679241 289.610105 
L 922.698414 287.09461 
L 937.086513 284.741502 
L 940.406844 284.23054 
L 940.406844 284.23054 
" style="fill:none;stroke:#2ca02c;stroke-linecap:square;stroke-width:1.5;"/>
   </g>
   <g id="line2d_150">
    <path clip-path="url(#pff80a9126d)" d="M 571.481224 486.39582 
L 574.063704 481.419872 
L 577.015108 476.267078 
L 579.966513 471.574128 
L 582.917918 467.271732 
L 586.238249 462.842067 
L 589.55858 458.803169 
L 592.87891 455.120283 
L 596.199241 451.765091 
L 599.519571 448.713073 
L 602.839902 445.942041 
L 606.529158 443.167565 
L 610.218414 440.687695 
L 613.90767 438.476963 
L 617.596927 436.511122 
L 621.655108 434.60412 
L 625.71329 432.936805 
L 630.140398 431.359838 
L 634.936431 429.900426 
L 640.101389 428.577571 
L 645.635274 427.402009 
L 651.538084 426.376778 
L 658.178745 425.452463 
L 665.557257 424.650494 
L 674.042546 423.952178 
L 684.003538 423.356699 
L 696.178084 422.857001 
L 711.67296 422.453963 
L 732.70172 422.146255 
L 763.691472 421.935125 
L 819.030315 421.812605 
L 940.406844 421.771358 
L 940.406844 421.771358 
" style="fill:none;stroke:#d62728;stroke-linecap:square;stroke-width:1.5;"/>
   </g>
   <g id="patch_21">
    <path d="M 553.034943 496.504094 
L 553.034943 274.122275 
" style="fill:none;stroke:#000000;stroke-linecap:square;stroke-linejoin:miter;stroke-width:0.8;"/>
   </g>
   <g id="patch_22">
    <path d="M 958.853125 496.504094 
L 958.853125 274.122275 
" style="fill:none;stroke:#000000;stroke-linecap:square;stroke-linejoin:miter;stroke-width:0.8;"/>
   </g>
   <g id="patch_23">
    <path d="M 553.034943 496.504094 
L 958.853125 496.504094 
" style="fill:none;stroke:#000000;stroke-linecap:square;stroke-linejoin:miter;stroke-width:0.8;"/>
   </g>
   <g id="patch_24">
    <path d="M 553.034943 274.122275 
L 958.853125 274.122275 
" style="fill:none;stroke:#000000;stroke-linecap:square;stroke-linejoin:miter;stroke-width:0.8;"/>
   </g>
   <g id="legend_4">
    <g id="patch_25">
     <path d="M 560.034943 340.834775 
L 606.186506 340.834775 
Q 608.186506 340.834775 608.186506 338.834775 
L 608.186506 281.122275 
Q 608.186506 279.122275 606.186506 279.122275 
L 560.034943 279.122275 
Q 558.034943 279.122275 558.034943 281.122275 
L 558.034943 338.834775 
Q 558.034943 340.834775 560.034943 340.834775 
z
" style="fill:#ffffff;opacity:0.8;stroke:#cccccc;stroke-linejoin:miter;"/>
    </g>
    <g id="line2d_151">
     <path d="M 562.034943 287.220713 
L 582.034943 287.220713 
" style="fill:none;stroke:#1f77b4;stroke-linecap:square;stroke-width:1.5;"/>
    </g>
    <g id="line2d_152"/>
    <g id="text_76">
     <!-- (a) -->
     <g transform="translate(590.034943 290.720713)scale(0.1 -0.1)">
      <use xlink:href="#DejaVuSans-28"/>
      <use x="39.013672" xlink:href="#DejaVuSans-61"/>
      <use x="100.292969" xlink:href="#DejaVuSans-29"/>
     </g>
    </g>
    <g id="line2d_153">
     <path d="M 562.034943 301.898838 
L 582.034943 301.898838 
" style="fill:none;stroke:#ff7f0e;stroke-linecap:square;stroke-width:1.5;"/>
    </g>
    <g id="line2d_154"/>
    <g id="text_77">
     <!-- (b) -->
     <g transform="translate(590.034943 305.398838)scale(0.1 -0.1)">
      <use xlink:href="#DejaVuSans-28"/>
      <use x="39.013672" xlink:href="#DejaVuSans-62"/>
      <use x="102.490234" xlink:href="#DejaVuSans-29"/>
     </g>
    </g>
    <g id="line2d_155">
     <path d="M 562.034943 316.576963 
L 582.034943 316.576963 
" style="fill:none;stroke:#2ca02c;stroke-linecap:square;stroke-width:1.5;"/>
    </g>
    <g id="line2d_156"/>
    <g id="text_78">
     <!-- (c) -->
     <g transform="translate(590.034943 320.076963)scale(0.1 -0.1)">
      <use xlink:href="#DejaVuSans-28"/>
      <use x="39.013672" xlink:href="#DejaVuSans-63"/>
      <use x="93.994141" xlink:href="#DejaVuSans-29"/>
     </g>
    </g>
    <g id="line2d_157">
     <path d="M 562.034943 331.255088 
L 582.034943 331.255088 
" style="fill:none;stroke:#d62728;stroke-linecap:square;stroke-width:1.5;"/>
    </g>
    <g id="line2d_158"/>
    <g id="text_79">
     <!-- (d) -->
     <g transform="translate(590.034943 334.755088)scale(0.1 -0.1)">
      <use xlink:href="#DejaVuSans-28"/>
      <use x="39.013672" xlink:href="#DejaVuSans-64"/>
      <use x="102.490234" xlink:href="#DejaVuSans-29"/>
     </g>
    </g>
   </g>
  </g>
 </g>
 <defs>
  <clipPath id="p789f08d900">
   <rect height="222.381818" width="405.818182" x="66.053125" y="7.264094"/>
  </clipPath>
  <clipPath id="p8413aad6e6">
   <rect height="222.381818" width="405.818182" x="553.034943" y="7.264094"/>
  </clipPath>
  <clipPath id="pd1b160b68c">
   <rect height="222.381818" width="405.818182" x="66.053125" y="274.122275"/>
  </clipPath>
  <clipPath id="pff80a9126d">
   <rect height="222.381818" width="405.818182" x="553.034943" y="274.122275"/>
  </clipPath>
 </defs>
</svg>
